SplineFontDB: 1.0
FontName: THKodchasal-Bold
FullName: THKodchasal-Bold
FamilyName: TH Kodchasal
Weight: Bold
Copyright: Copyright (c) 2006 by Department of Intellectual Property (DIP), Ministry of Commerce and Software Industry Promotion Agency (Public Organization) (SIPA). All rights reserved.
Version: 1.1
ItalicAngle: 0
UnderlinePosition: -35
UnderlineWidth: 30
Ascent: 800
Descent: 200
Order2: 1
XUID: [1021 375 425136265 3044999]
FSType: 0
OS2Version: 3
OS2_WeightWidthSlopeOnly: 0
OS2_UseTypoMetrics: 1
CreationTime: 1157457032
ModificationTime: 1174406216
PfmFamily: 17
TTFWeight: 700
TTFWidth: 5
LineGap: 60
VLineGap: 0
Panose: 2 0 5 6 0 0 0 2 0 4
OS2TypoAscent: 0
OS2TypoAOffset: 1
OS2TypoDescent: 0
OS2TypoDOffset: 1
OS2TypoLinegap: 0
OS2WinAscent: 18
OS2WinAOffset: 1
OS2WinDescent: 4
OS2WinDOffset: 1
HheadAscent: -111
HheadAOffset: 1
HheadDescent: 316
HheadDOffset: 1
OS2SubXSize: 700
OS2SubYSize: 650
OS2SubXOff: 0
OS2SubYOff: 140
OS2SupXSize: 700
OS2SupYSize: 650
OS2SupXOff: 0
OS2SupYOff: 477
OS2StrikeYSize: 30
OS2StrikeYPos: 250
OS2FamilyClass: 773
OS2Vendor: 'IPTH'
ScriptLang: 2
 1 latn 1 dflt 
 0 
ChainSub: coverage 0 0 'liga' 0 0 0 1
 1 0 1
  Coverage: 64 uni0E48.alt2 uni0E49.alt2 uni0E4A.alt2 uni0E4B.alt2 uni0E4C.alt2
  FCoverage: 7 uni0E33
 1
  SeqLookup: 0 'L027'
EndFPST
ChainSub: coverage 0 0 'liga' 0 0 0 1
 1 1 0
  Coverage: 7 uni0E47
  BCoverage: 12 uni0E2C.alt1
 1
  SeqLookup: 0 'L026'
EndFPST
ChainSub: coverage 0 0 'liga' 0 0 0 1
 1 0 1
  Coverage: 7 uni0E2C
  FCoverage: 39 uni0E34 uni0E35 uni0E36 uni0E37 uni0E47
 1
  SeqLookup: 0 'L026'
EndFPST
ChainSub: coverage 0 0 'liga' 0 0 0 1
 1 0 1
  Coverage: 15 uni0E0E uni0E0F
  FCoverage: 38 uni0E38.alt1 uni0E39.alt1 uni0E3A.alt1
 1
  SeqLookup: 0 'L026'
EndFPST
ChainSub: coverage 0 0 'liga' 0 0 0 1
 1 1 0
  Coverage: 5 a b c
  BCoverage: 23 uni0E1B uni0E1D uni0E1F
 1
  SeqLookup: 0 'L026'
EndFPST
ChainSub: coverage 0 0 'liga' 0 0 0 1
 1 0 1
  Coverage: 5 a b c

StartChar: .notdef
Encoding: 65536 -1 0
Width: 500
Flags: W
Fore
402 35 m 1,0,-1
 402 660 l 1,1,-1
 97 660 l 1,2,-1
 97 35 l 1,3,-1
 402 35 l 1,0,-1
436 0 m 1,4,-1
 63 0 l 1,5,-1
 63 695 l 1,6,-1
 436 695 l 1,7,-1
 436 0 l 1,4,-1
EndSplineSet
EndChar
StartChar: numbersign
Encoding: 35 35 4
Width: 474
Flags: W
Fore
416 328 m 0,0,1
 415 321 415 321 408 312.5 c 128,-1,2
 401 304 401 304 380 304 c 2,3,-1
 344 304 l 1,4,-1
 327 194 l 1,5,-1
 363 194 l 2,6,7
 377 194 377 194 386.5 187.5 c 128,-1,8
 396 181 396 181 394 167 c 0,9,10
 392 160 392 160 385.5 151.5 c 128,-1,11
 379 143 379 143 358 143 c 2,12,-1
 322 143 l 1,13,-1
 303 26 l 2,14,15
 300 6 300 6 290.5 0 c 128,-1,16
 281 -6 281 -6 274 -6 c 0,17,18
 263 -6 263 -6 257 2 c 0,19,20
 249 11 249 11 252 29 c 2,21,-1
 270 143 l 1,22,-1
 176 143 l 1,23,-1
 157 26 l 2,24,25
 154 5 154 5 144.5 -0.5 c 128,-1,26
 135 -6 135 -6 128 -6 c 256,27,28
 121 -6 121 -6 116.5 -3.5 c 128,-1,29
 112 -1 112 -1 110 1 c 0,30,31
 103 9 103 9 106 29 c 2,32,-1
 124 143 l 1,33,-1
 85 143 l 2,34,35
 71 143 71 143 62 148 c 128,-1,36
 53 153 53 153 55 169 c 0,37,38
 57 178 57 178 64 186 c 128,-1,39
 71 194 71 194 91 194 c 2,40,-1
 132 194 l 1,41,-1
 150 304 l 1,42,-1
 112 304 l 2,43,44
 98 304 98 304 88.5 310 c 128,-1,45
 79 316 79 316 81 331 c 0,46,47
 83 339 83 339 90 347.5 c 128,-1,48
 97 356 97 356 117 356 c 2,49,-1
 158 356 l 1,50,-1
 175 458 l 2,51,52
 178 478 178 478 187 483.5 c 128,-1,53
 196 489 196 489 205 489 c 0,54,55
 219 489 219 489 223.5 479 c 128,-1,56
 228 469 228 469 226 455 c 2,57,-1
 210 356 l 1,58,-1
 301 356 l 1,59,-1
 317 458 l 2,60,61
 320 478 320 478 329 483.5 c 128,-1,62
 338 489 338 489 347 489 c 0,63,64
 362 489 362 489 366 479 c 128,-1,65
 370 469 370 469 368 455 c 2,66,-1
 352 356 l 1,67,-1
 386 356 l 2,68,69
 400 356 400 356 409 349 c 128,-1,70
 418 342 418 342 416 328 c 0,0,1
202 304 m 1,71,-1
 184 194 l 1,72,-1
 276 194 l 1,73,-1
 293 304 l 1,74,-1
 202 304 l 1,71,-1
EndSplineSet
EndChar
StartChar: dollar
Encoding: 36 36 5
Width: 440
Flags: W
Fore
416 144 m 0,0,1
 416 109 416 109 402 82.5 c 128,-1,2
 388 56 388 56 364.5 37.5 c 128,-1,3
 341 19 341 19 309.5 9 c 128,-1,4
 278 -1 278 -1 244 -4 c 1,5,-1
 244 -29 l 2,6,7
 244 -40 244 -40 236 -48.5 c 128,-1,8
 228 -57 228 -57 216 -57 c 256,9,10
 204 -57 204 -57 196 -48.5 c 128,-1,11
 188 -40 188 -40 188 -29 c 2,12,-1
 188 -3 l 1,13,14
 134 3 134 3 92.5 25.5 c 128,-1,15
 51 48 51 48 30 83 c 0,16,17
 22 97 22 97 26 111.5 c 128,-1,18
 30 126 30 126 44 134 c 256,19,20
 58 142 58 142 73 138.5 c 128,-1,21
 88 135 88 135 96 121 c 0,22,23
 106 104 106 104 131 91.5 c 128,-1,24
 156 79 156 79 188 74 c 1,25,-1
 188 206 l 1,26,27
 157 209 157 209 128 218.5 c 128,-1,28
 99 228 99 228 76 244.5 c 128,-1,29
 53 261 53 261 39 284.5 c 128,-1,30
 25 308 25 308 25 340 c 0,31,32
 25 374 25 374 38 400 c 128,-1,33
 51 426 51 426 73 444.5 c 128,-1,34
 95 463 95 463 125 473.5 c 128,-1,35
 155 484 155 484 188 487 c 1,36,-1
 188 513 l 2,37,38
 188 524 188 524 196 532.5 c 128,-1,39
 204 541 204 541 216 541 c 256,40,41
 228 541 228 541 236 532.5 c 128,-1,42
 244 524 244 524 244 513 c 2,43,-1
 244 487 l 1,44,45
 301 483 301 483 345 460 c 128,-1,46
 389 437 389 437 410 401 c 0,47,48
 418 387 418 387 414.5 372 c 128,-1,49
 411 357 411 357 397 349 c 256,50,51
 383 341 383 341 368 345 c 128,-1,52
 353 349 353 349 345 363 c 0,53,54
 334 382 334 382 306.5 395 c 128,-1,55
 279 408 279 408 244 411 c 1,56,-1
 244 279 l 1,57,58
 278 277 278 277 309 269 c 128,-1,59
 340 261 340 261 364 244.5 c 128,-1,60
 388 228 388 228 402 203 c 128,-1,61
 416 178 416 178 416 144 c 0,0,1
188 411 m 1,62,63
 170 409 170 409 154 404.5 c 128,-1,64
 138 400 138 400 125 392 c 128,-1,65
 112 384 112 384 104.5 371.5 c 128,-1,66
 97 359 97 359 97 341 c 0,67,68
 97 324 97 324 105.5 313.5 c 128,-1,69
 114 303 114 303 127 296.5 c 128,-1,70
 140 290 140 290 156 286.5 c 128,-1,71
 172 283 172 283 188 281 c 1,72,-1
 188 411 l 1,62,63
340 144 m 0,73,74
 340 162 340 162 331.5 173 c 128,-1,75
 323 184 323 184 309.5 190 c 128,-1,76
 296 196 296 196 279 198.5 c 128,-1,77
 262 201 262 201 244 203 c 1,78,-1
 244 72 l 1,79,80
 263 75 263 75 280 79.5 c 128,-1,81
 297 84 297 84 310.5 91.5 c 128,-1,82
 324 99 324 99 332 111.5 c 128,-1,83
 340 124 340 124 340 144 c 0,73,74
EndSplineSet
EndChar
StartChar: percent
Encoding: 37 37 6
Width: 473
Flags: W
Fore
229 404 m 256,0,1
 229 383 229 383 221 364.5 c 128,-1,2
 213 346 213 346 199.5 332.5 c 128,-1,3
 186 319 186 319 167.5 311 c 128,-1,4
 149 303 149 303 128 303 c 256,5,6
 107 303 107 303 88.5 311 c 128,-1,7
 70 319 70 319 56.5 332.5 c 128,-1,8
 43 346 43 346 35 364.5 c 128,-1,9
 27 383 27 383 27 404 c 256,10,11
 27 425 27 425 35 443 c 128,-1,12
 43 461 43 461 56.5 474.5 c 128,-1,13
 70 488 70 488 88.5 496 c 128,-1,14
 107 504 107 504 128 504 c 256,15,16
 149 504 149 504 167.5 496 c 128,-1,17
 186 488 186 488 199.5 474.5 c 128,-1,18
 213 461 213 461 221 443 c 128,-1,19
 229 425 229 425 229 404 c 256,0,1
398 498 m 0,20,21
 401 490 401 490 396 482 c 2,22,-1
 92 -11 l 2,23,24
 87 -19 87 -19 79 -21 c 128,-1,25
 71 -23 71 -23 63 -18 c 256,26,27
 55 -13 55 -13 53 -4.5 c 128,-1,28
 51 4 51 4 56 11 c 0,29,30
 69 32 69 32 106 92 c 0,31,32
 122 117 122 117 144.5 153.5 c 128,-1,33
 167 190 167 190 197.5 240.5 c 128,-1,34
 228 291 228 291 268.5 356 c 128,-1,35
 309 421 309 421 360 504 c 0,36,37
 365 512 365 512 373 514 c 128,-1,38
 381 516 381 516 389 511 c 0,39,40
 396 507 396 507 398 498 c 0,20,21
442 102 m 256,41,42
 442 81 442 81 434 63 c 128,-1,43
 426 45 426 45 412.5 31.5 c 128,-1,44
 399 18 399 18 380.5 10 c 128,-1,45
 362 2 362 2 341 2 c 0,46,47
 299 2 299 2 270 31 c 128,-1,48
 241 60 241 60 241 102 c 0,49,50
 241 123 241 123 249 141.5 c 128,-1,51
 257 160 257 160 270.5 173.5 c 128,-1,52
 284 187 284 187 302 195 c 128,-1,53
 320 203 320 203 341 203 c 256,54,55
 362 203 362 203 380.5 195 c 128,-1,56
 399 187 399 187 412.5 173.5 c 128,-1,57
 426 160 426 160 434 141.5 c 128,-1,58
 442 123 442 123 442 102 c 256,41,42
176 404 m 0,59,60
 176 424 176 424 161.5 438.5 c 128,-1,61
 147 453 147 453 127 453 c 0,62,63
 106 453 106 453 91.5 438.5 c 128,-1,64
 77 424 77 424 77 404 c 0,65,66
 77 383 77 383 91.5 368.5 c 128,-1,67
 106 354 106 354 127 354 c 0,68,69
 147 354 147 354 161.5 368.5 c 128,-1,70
 176 383 176 383 176 404 c 0,59,60
389 102 m 0,71,72
 389 123 389 123 374.5 137.5 c 128,-1,73
 360 152 360 152 340 152 c 256,74,75
 320 152 320 152 305.5 137.5 c 128,-1,76
 291 123 291 123 291 102 c 0,77,78
 291 82 291 82 305.5 67.5 c 128,-1,79
 320 53 320 53 340 53 c 256,80,81
 360 53 360 53 374.5 67.5 c 128,-1,82
 389 82 389 82 389 102 c 0,71,72
EndSplineSet
EndChar
StartChar: ampersand
Encoding: 38 38 7
Width: 543
Flags: W
Fore
502 55 m 1,0,1
 510 43 510 43 507.5 30 c 128,-1,2
 505 17 505 17 494 9 c 256,3,4
 483 1 483 1 469.5 -0.5 c 128,-1,5
 456 -2 456 -2 442 7 c 0,6,7
 441 8 441 8 432 16.5 c 128,-1,8
 423 25 423 25 412.5 35.5 c 128,-1,9
 402 46 402 46 393.5 54.5 c 128,-1,10
 385 63 385 63 384 64 c 1,11,12
 368 52 368 52 350 39 c 128,-1,13
 332 26 332 26 313 17 c 0,14,15
 292 8 292 8 266 2 c 128,-1,16
 240 -4 240 -4 211.5 -4 c 128,-1,17
 183 -4 183 -4 154.5 4.5 c 128,-1,18
 126 13 126 13 101 34 c 0,19,20
 63 65 63 65 50.5 103.5 c 128,-1,21
 38 142 38 142 45.5 179.5 c 128,-1,22
 53 217 53 217 78.5 249 c 128,-1,23
 104 281 104 281 142 300 c 1,24,25
 125 319 125 319 111.5 340.5 c 128,-1,26
 98 362 98 362 98 388 c 0,27,28
 98 411 98 411 108 432.5 c 128,-1,29
 118 454 118 454 136.5 470.5 c 128,-1,30
 155 487 155 487 182.5 496.5 c 128,-1,31
 210 506 210 506 245 506 c 0,32,33
 294 505 294 505 324.5 486 c 128,-1,34
 355 467 355 467 368 445 c 0,35,36
 383 413 383 413 379 382 c 0,37,38
 377 369 377 369 371 355 c 128,-1,39
 365 341 365 341 352.5 327 c 128,-1,40
 340 313 340 313 319.5 300.5 c 128,-1,41
 299 288 299 288 268 278 c 1,42,-1
 370 184 l 1,43,44
 377 198 377 198 382.5 215 c 128,-1,45
 388 232 388 232 394 261 c 0,46,47
 396 273 396 273 403 280 c 128,-1,48
 410 287 410 287 418 289.5 c 128,-1,49
 426 292 426 292 434.5 290 c 128,-1,50
 443 288 443 288 449 284 c 0,51,52
 470 266 470 266 465 239 c 0,53,54
 463 227 463 227 458.5 211 c 128,-1,55
 454 195 454 195 449 178.5 c 128,-1,56
 444 162 444 162 438 148.5 c 128,-1,57
 432 135 432 135 428 129 c 1,58,59
 451 105 451 105 465.5 90.5 c 128,-1,60
 480 76 480 76 488 68 c 0,61,62
 498 58 498 58 502 55 c 1,0,1
305 397 m 0,63,64
 306 414 306 414 290 429.5 c 128,-1,65
 274 445 274 445 245 445 c 0,66,67
 215 445 215 445 199.5 432 c 128,-1,68
 184 419 184 419 181 408 c 0,69,70
 176 386 176 386 190 363.5 c 128,-1,71
 204 341 204 341 232 325 c 1,72,73
 234 323 234 323 245.5 328 c 128,-1,74
 257 333 257 333 270 343 c 128,-1,75
 283 353 283 353 294 366.5 c 128,-1,76
 305 380 305 380 305 397 c 0,63,64
192 249 m 1,77,78
 158 234 158 234 142.5 211.5 c 128,-1,79
 127 189 127 189 124.5 165.5 c 128,-1,80
 122 142 122 142 130 122 c 128,-1,81
 138 102 138 102 153 91 c 0,82,83
 182 69 182 69 211.5 69 c 128,-1,84
 241 69 241 69 265.5 78.5 c 128,-1,85
 290 88 290 88 307 102.5 c 128,-1,86
 324 117 324 117 329 125 c 1,87,-1
 192 249 l 1,77,78
EndSplineSet
EndChar
StartChar: quotesingle
Encoding: 39 39 8
Width: 179
Flags: W
Fore
126 340 m 1,0,1
 126 315 126 315 114.5 305.5 c 128,-1,2
 103 296 103 296 90 296 c 0,3,4
 70 296 70 296 61 308.5 c 128,-1,5
 52 321 52 321 52 340 c 2,6,-1
 52 443 l 2,7,8
 52 462 52 462 60.5 475 c 128,-1,9
 69 488 69 488 90 488 c 0,10,11
 108 488 108 488 117 474.5 c 128,-1,12
 126 461 126 461 126 443 c 2,13,-1
 126 340 l 1,14,-1
 126 340 l 1,0,1
EndSplineSet
EndChar
StartChar: parenleft
Encoding: 40 40 9
Width: 300
Flags: W
Fore
217 -85 m 2,0,1
 218 -87 218 -87 219 -93.5 c 128,-1,2
 220 -100 220 -100 217.5 -107 c 128,-1,3
 215 -114 215 -114 208 -120.5 c 128,-1,4
 201 -127 201 -127 186 -130 c 0,5,6
 179 -132 179 -132 172.5 -128.5 c 128,-1,7
 166 -125 166 -125 160 -120 c 128,-1,8
 154 -115 154 -115 150 -109 c 128,-1,9
 146 -103 146 -103 145 -99 c 1,10,11
 144 -98 144 -98 137 -76.5 c 128,-1,12
 130 -55 130 -55 122 -17 c 128,-1,13
 114 21 114 21 107.5 75 c 128,-1,14
 101 129 101 129 101 196 c 256,15,16
 101 263 101 263 107.5 317.5 c 128,-1,17
 114 372 114 372 122 410 c 128,-1,18
 130 448 130 448 137 469 c 128,-1,19
 144 490 144 490 145 492 c 2,20,21
 146 496 146 496 149.5 501.5 c 128,-1,22
 153 507 153 507 158 512.5 c 128,-1,23
 163 518 163 518 170 521 c 128,-1,24
 177 524 177 524 186 523 c 0,25,26
 199 521 199 521 206 515 c 128,-1,27
 213 509 213 509 216 502 c 128,-1,28
 219 495 219 495 218.5 488.5 c 128,-1,29
 218 482 218 482 217 478 c 2,30,31
 210.5 458 l 130,-1,32
 204 438 204 438 196.5 401 c 128,-1,33
 189 364 189 364 182.5 312 c 128,-1,34
 176 260 176 260 176 196 c 256,35,36
 176 132 176 132 182.5 80 c 128,-1,37
 189 28 189 28 196.5 -8.5 c 128,-1,38
 204 -45 204 -45 210.5 -65 c 128,-1,39
 217 -84 217 -84 217 -85 c 2,0,1
EndSplineSet
EndChar
StartChar: parenright
Encoding: 41 41 10
Width: 300
Flags: W
Fore
199 196 m 256,0,1
 199 129 199 129 192.5 75 c 128,-1,2
 186 21 186 21 178 -17 c 128,-1,3
 170 -55 170 -55 163.5 -76.5 c 128,-1,4
 157 -98 157 -98 156 -99 c 2,5,6
 154 -103 154 -103 150 -109 c 128,-1,7
 146 -115 146 -115 140.5 -120 c 128,-1,8
 135 -125 135 -125 128 -128.5 c 128,-1,9
 121 -132 121 -132 114 -130 c 0,10,11
 99 -127 99 -127 92 -120.5 c 128,-1,12
 85 -114 85 -114 83 -107 c 128,-1,13
 81 -100 81 -100 82 -93.5 c 128,-1,14
 83 -87 83 -87 84 -85 c 2,15,16
 90.5 -65 l 130,-1,17
 97 -45 97 -45 104.5 -8.5 c 128,-1,18
 112 28 112 28 118.5 80 c 128,-1,19
 125 132 125 132 125 196 c 256,20,21
 125 260 125 260 118.5 312 c 128,-1,22
 112 364 112 364 104.5 401 c 128,-1,23
 97 438 97 438 90.5 458 c 128,-1,24
 84 477 84 477 84 478 c 2,25,26
 82 482 82 482 82 488.5 c 128,-1,27
 82 495 82 495 84.5 502 c 128,-1,28
 87 509 87 509 94 515 c 128,-1,29
 101 521 101 521 114 523 c 0,30,31
 123 524 123 524 130 521 c 128,-1,32
 137 518 137 518 142 512.5 c 128,-1,33
 147 507 147 507 150.5 501.5 c 128,-1,34
 154 496 154 496 156 492 c 0,35,36
 157 490 157 490 163.5 469 c 128,-1,37
 170 448 170 448 178 410 c 128,-1,38
 186 372 186 372 192.5 317.5 c 128,-1,39
 199 263 199 263 199 196 c 256,0,1
EndSplineSet
EndChar
StartChar: asterisk
Encoding: 42 42 11
Width: 458
Flags: W
Fore
350 301 m 256,0,1
 352 289 352 289 344 280 c 0,2,3
 328 262 328 262 306 272 c 1,4,5
 293 282 293 282 279.5 293 c 128,-1,6
 266 304 266 304 253 316 c 1,7,8
 255 299 255 299 257 281.5 c 128,-1,9
 259 264 259 264 259 248 c 0,10,11
 259 237 259 237 250.5 229 c 128,-1,12
 242 221 242 221 231 221 c 256,13,14
 220 221 220 221 211 229 c 128,-1,15
 202 237 202 237 202 248 c 0,16,17
 202 265 202 265 204 282 c 128,-1,18
 208 316 l 1,19,20
 194 305 194 305 181.5 294 c 128,-1,21
 169 283 169 283 155 272 c 0,22,23
 147 266 147 266 135 268.5 c 128,-1,24
 123 271 123 271 117 280 c 0,25,26
 109 292 109 292 112 303 c 128,-1,27
 115 314 115 314 122 319 c 0,28,29
 141 330 141 330 156.5 339.5 c 128,-1,30
 172 349 172 349 193 360 c 1,31,32
 172 371 172 371 156.5 380.5 c 128,-1,33
 141 390 141 390 122 401 c 0,34,35
 114 407 114 407 112 418.5 c 128,-1,36
 110 430 110 430 117 440 c 0,37,38
 123 449 123 449 135 451.5 c 128,-1,39
 147 454 147 454 155 448 c 0,40,41
 169 437 169 437 181.5 426 c 128,-1,42
 194 415 194 415 208 404 c 1,43,44
 206 421 206 421 204 438.5 c 128,-1,45
 202 456 202 456 202 472 c 0,46,47
 202 485 202 485 210.5 492 c 128,-1,48
 219 499 219 499 231 499 c 0,49,50
 242 499 242 499 250.5 492.5 c 128,-1,51
 259 486 259 486 259 472 c 0,52,53
 259 455 259 455 257 437.5 c 128,-1,54
 255 420 255 420 253 403 c 1,55,56
 266 416 266 416 279 426.5 c 128,-1,57
 292 437 292 437 306 448 c 1,58,59
 329 459 329 459 344 440 c 0,60,61
 353 428 353 428 349 416.5 c 128,-1,62
 345 405 345 405 339 401 c 0,63,64
 322 387 322 387 305 380 c 128,-1,65
 288 373 288 373 268 360 c 1,66,67
 288 347 288 347 305 340 c 128,-1,68
 322 333 322 333 339 319 c 0,69,70
 348 313 348 313 350 301 c 256,0,1
EndSplineSet
EndChar
StartChar: plus
Encoding: 43 43 12
Width: 489
Flags: W
Fore
429 174 m 0,0,1
 429 160 429 160 419 148 c 128,-1,2
 409 136 409 136 384 136 c 2,3,-1
 280 136 l 1,4,-1
 280 53 l 2,5,6
 280 28 280 28 268.5 18 c 128,-1,7
 257 8 257 8 243 8 c 0,8,9
 223 8 223 8 214 21 c 128,-1,10
 205 34 205 34 205 53 c 2,11,-1
 205 136 l 1,12,-1
 102 136 l 2,13,14
 83 136 83 136 70 145 c 128,-1,15
 57 154 57 154 57 174 c 0,16,17
 57 193 57 193 70 201.5 c 128,-1,18
 83 210 83 210 102 210 c 2,19,-1
 205 210 l 1,20,-1
 205 296 l 2,21,22
 205 315 205 315 214 327.5 c 128,-1,23
 223 340 223 340 243 340 c 0,24,25
 261 340 261 340 270.5 327 c 128,-1,26
 280 314 280 314 280 296 c 2,27,-1
 280 210 l 1,28,-1
 384 210 l 2,29,30
 403 210 403 210 416 201.5 c 128,-1,31
 429 193 429 193 429 174 c 0,0,1
EndSplineSet
EndChar
StartChar: comma
Encoding: 44 44 13
Width: 235
Flags: W
Fore
53 54 m 2,0,1
 53 70 53 70 63 85 c 128,-1,2
 73 100 73 100 88 108 c 0,3,4
 104 115 104 115 119 113.5 c 128,-1,5
 134 112 134 112 146 104.5 c 128,-1,6
 158 97 158 97 166.5 85 c 128,-1,7
 175 73 175 73 178 58 c 0,8,9
 184 30 184 30 178 4.5 c 128,-1,10
 172 -21 172 -21 158.5 -42 c 128,-1,11
 145 -63 145 -63 126 -78 c 128,-1,12
 107 -93 107 -93 89 -100 c 0,13,14
 75 -105 75 -105 64.5 -102 c 128,-1,15
 54 -99 54 -99 49 -92.5 c 128,-1,16
 44 -86 44 -86 45.5 -78 c 128,-1,17
 47 -70 47 -70 57 -65 c 0,18,19
 78 -56 78 -56 94.5 -44 c 128,-1,20
 111 -32 111 -32 122 -6 c 1,21,22
 120 -6 120 -6 117 -6.5 c 128,-1,23
 114 -7 114 -7 112 -7 c 0,24,25
 86 -7 86 -7 69.5 10.5 c 128,-1,26
 53 28 53 28 53 52 c 2,27,-1
 53 54 l 2,0,1
EndSplineSet
EndChar
StartChar: hyphen
Encoding: 45 45 14
Width: 410
Flags: W
Fore
353 174 m 0,0,1
 353 160 353 160 343.5 148 c 128,-1,2
 334 136 334 136 309 136 c 2,3,-1
 100 136 l 2,4,5
 81 136 81 136 68.5 145 c 128,-1,6
 56 154 56 154 56 174 c 0,7,8
 56 193 56 193 69 201.5 c 128,-1,9
 82 210 82 210 100 210 c 2,10,-1
 309 210 l 2,11,12
 327 210 327 210 340 201.5 c 128,-1,13
 353 193 353 193 353 174 c 0,0,1
EndSplineSet
EndChar
StartChar: period
Encoding: 46 46 15
Width: 228
Flags: W
Fore
53 51 m 256,0,1
 53 77 53 77 70.5 94.5 c 128,-1,2
 88 112 88 112 114 112 c 256,3,4
 140 112 140 112 157.5 94.5 c 128,-1,5
 175 77 175 77 175 51 c 256,6,7
 175 25 175 25 157.5 7.5 c 128,-1,8
 140 -10 140 -10 114 -10 c 256,9,10
 88 -10 88 -10 70.5 7.5 c 128,-1,11
 53 25 53 25 53 51 c 256,0,1
EndSplineSet
EndChar
StartChar: slash
Encoding: 47 47 16
Width: 374
Flags: W
Fore
327 467 m 0,0,1
 332 455 332 455 327 440 c 2,2,-1
 106 -46 l 2,3,4
 101 -60 101 -60 87 -65 c 128,-1,5
 73 -70 73 -70 59 -64 c 0,6,7
 46 -58 46 -58 41 -44 c 128,-1,8
 36 -30 36 -30 41 -17 c 0,9,10
 50 3 50 3 77 62 c 0,11,12
 88 87 88 87 104.5 123 c 128,-1,13
 121 159 121 159 143.5 208.5 c 128,-1,14
 166 258 166 258 195.5 322.5 c 128,-1,15
 225 387 225 387 262 469 c 0,16,17
 268 483 268 483 281.5 488 c 128,-1,18
 295 493 295 493 309 487 c 0,19,20
 322 481 322 481 327 467 c 0,0,1
EndSplineSet
EndChar
StartChar: zero
Encoding: 48 48 17
Width: 481
Flags: W
Fore
442 241 m 0,0,1
 442 175 442 175 426 127.5 c 128,-1,2
 410 80 410 80 382.5 49.5 c 128,-1,3
 355 19 355 19 318.5 4.5 c 128,-1,4
 282 -10 282 -10 241 -10 c 0,5,6
 196 -10 196 -10 159 5 c 128,-1,7
 122 20 122 20 95.5 51 c 128,-1,8
 69 82 69 82 54.5 129.5 c 128,-1,9
 40 177 40 177 40 241 c 0,10,11
 40 326 40 326 63 375.5 c 128,-1,12
 86 425 86 425 118.5 451 c 128,-1,13
 151 477 151 477 185 484.5 c 128,-1,14
 219 492 219 492 241 492 c 0,15,16
 289 492 289 492 326.5 474 c 128,-1,17
 364 456 364 456 389.5 423 c 128,-1,18
 415 390 415 390 428.5 344 c 128,-1,19
 442 298 442 298 442 241 c 0,0,1
370 241 m 0,20,21
 370 419 370 419 241 419 c 0,22,23
 174 419 174 419 143 370 c 128,-1,24
 112 321 112 321 112 241 c 0,25,26
 112 150 112 150 145.5 106.5 c 128,-1,27
 179 63 179 63 241 63 c 256,28,29
 303 63 303 63 336.5 107.5 c 128,-1,30
 370 152 370 152 370 241 c 0,20,21
EndSplineSet
EndChar
StartChar: one
Encoding: 49 49 18
Width: 353
Flags: W
Fore
251 34 m 1,0,1
 251 19 251 19 240.5 8 c 128,-1,2
 230 -3 230 -3 215 -3 c 256,3,4
 200 -3 200 -3 189.5 8 c 128,-1,5
 179 19 179 19 179 34 c 2,6,-1
 179 405 l 1,7,-1
 102 376 l 2,8,9
 88 371 88 371 74 377 c 128,-1,10
 60 383 60 383 55 397 c 256,11,12
 50 411 50 411 56 425 c 128,-1,13
 62 439 62 439 76 444 c 0,14,15
 124 461 124 461 150 471 c 128,-1,16
 176 481 176 481 188 486 c 2,17,-1
 204 492 l 2,18,19
 217 496 217 496 226 493.5 c 128,-1,20
 235 491 235 491 240.5 485 c 128,-1,21
 246 479 246 479 248.5 471.5 c 128,-1,22
 251 464 251 464 251 457 c 2,23,-1
 251 34 l 1,24,-1
 251 34 l 1,0,1
EndSplineSet
EndChar
StartChar: two
Encoding: 50 50 19
Width: 461
Flags: W
Fore
420 36 m 256,0,1
 420 21 420 21 409.5 10.5 c 128,-1,2
 399 0 399 0 384 0 c 2,3,-1
 80 0 l 2,4,5
 75 0 75 0 61.5 3 c 128,-1,6
 48 6 48 6 41 24 c 0,7,8
 36 36 36 36 41.5 50 c 128,-1,9
 47 64 47 64 52 69 c 2,10,-1
 303 269 l 2,11,12
 330 291 330 291 336 318.5 c 128,-1,13
 342 346 342 346 331.5 370 c 128,-1,14
 321 394 321 394 297 410 c 128,-1,15
 273 426 273 426 239 426 c 256,16,17
 205 426 205 426 183 415.5 c 128,-1,18
 161 405 161 405 147.5 389.5 c 128,-1,19
 134 374 134 374 128 355.5 c 128,-1,20
 122 337 122 337 119 322 c 0,21,22
 117 307 117 307 106 297 c 128,-1,23
 95 287 95 287 81 288 c 0,24,25
 66 289 66 289 56 300.5 c 128,-1,26
 46 312 46 312 47 327 c 0,27,28
 50 364 50 364 64 395 c 128,-1,29
 78 426 78 426 102.5 448 c 128,-1,30
 127 470 127 470 161 482.5 c 128,-1,31
 195 495 195 495 239 495 c 0,32,33
 298 495 298 495 341 465.5 c 128,-1,34
 384 436 384 436 402 393 c 128,-1,35
 420 350 420 350 409.5 301.5 c 128,-1,36
 399 253 399 253 351 215 c 2,37,-1
 172 72 l 1,38,-1
 384 72 l 2,39,40
 399 72 399 72 409.5 61.5 c 128,-1,41
 420 51 420 51 420 36 c 256,0,1
EndSplineSet
EndChar
StartChar: three
Encoding: 51 51 20
Width: 447
Flags: W
Fore
402 140 m 0,0,1
 402 103 402 103 386 75 c 128,-1,2
 370 47 370 47 344 28.5 c 128,-1,3
 318 10 318 10 284.5 0.5 c 128,-1,4
 251 -9 251 -9 215 -9 c 0,5,6
 182 -9 182 -9 149 0 c 128,-1,7
 116 9 116 9 90.5 28 c 128,-1,8
 65 47 65 47 49 77.5 c 128,-1,9
 33 108 33 108 33 151 c 0,10,11
 33 166 33 166 44 176.5 c 128,-1,12
 55 187 55 187 70 187 c 256,13,14
 85 187 85 187 95.5 176.5 c 128,-1,15
 106 166 106 166 106 151 c 0,16,17
 106 121 106 121 118.5 102.5 c 128,-1,18
 131 84 131 84 148.5 73 c 128,-1,19
 166 62 166 62 184.5 58 c 128,-1,20
 203 54 203 54 214 54 c 0,21,22
 234 54 234 54 254.5 60 c 128,-1,23
 275 66 275 66 291.5 77.5 c 128,-1,24
 308 89 308 89 318.5 106.5 c 128,-1,25
 329 124 329 124 329 147 c 256,26,27
 329 170 329 170 322.5 184 c 128,-1,28
 316 198 316 198 306.5 205.5 c 128,-1,29
 297 213 297 213 287 215 c 128,-1,30
 277 217 277 217 271 217 c 2,31,-1
 202 217 l 2,32,33
 187 217 187 217 176.5 227.5 c 128,-1,34
 166 238 166 238 166 253 c 256,35,36
 166 268 166 268 176.5 279 c 128,-1,37
 187 290 187 290 202 290 c 2,38,-1
 268 290 l 2,39,40
 276 290 276 290 285 295.5 c 128,-1,41
 294 301 294 301 301 311.5 c 128,-1,42
 308 322 308 322 311.5 337 c 128,-1,43
 315 352 315 352 311 370 c 0,44,45
 306 398 306 398 278.5 413.5 c 128,-1,46
 251 429 251 429 216 429 c 0,47,48
 185 429 185 429 164.5 421.5 c 128,-1,49
 144 414 144 414 131.5 403.5 c 128,-1,50
 119 393 119 393 114 381.5 c 128,-1,51
 109 370 109 370 109 362 c 0,52,53
 109 347 109 347 98.5 336.5 c 128,-1,54
 88 326 88 326 73 326 c 256,55,56
 58 326 58 326 47.5 336.5 c 128,-1,57
 37 347 37 347 37 362 c 0,58,59
 37 382 37 382 47 405.5 c 128,-1,60
 57 429 57 429 78.5 449.5 c 128,-1,61
 100 470 100 470 134 484 c 128,-1,62
 168 498 168 498 216 498 c 0,63,64
 252 498 252 498 281 489 c 128,-1,65
 310 480 310 480 332 464 c 128,-1,66
 354 448 354 448 367 427.5 c 128,-1,67
 380 407 380 407 383 383 c 0,68,69
 389 338 389 338 376 304.5 c 128,-1,70
 363 271 363 271 334 254 c 1,71,72
 366 246 366 246 384 216.5 c 128,-1,73
 402 187 402 187 402 140 c 0,0,1
EndSplineSet
EndChar
StartChar: four
Encoding: 52 52 21
Width: 489
Flags: W
Fore
452 122 m 256,0,1
 452 107 452 107 441.5 96.5 c 128,-1,2
 431 86 431 86 416 86 c 2,3,-1
 388 86 l 1,4,-1
 388 32 l 2,5,6
 388 17 388 17 377.5 6.5 c 128,-1,7
 367 -4 367 -4 352 -4 c 256,8,9
 337 -4 337 -4 326.5 6.5 c 128,-1,10
 316 17 316 17 316 32 c 2,11,-1
 316 86 l 1,12,-1
 61 86 l 2,13,14
 49 86 49 86 41 92 c 128,-1,15
 33 98 33 98 29 107 c 128,-1,16
 25 116 25 116 26 126.5 c 128,-1,17
 27 137 27 137 34 145 c 2,18,-1
 317 478 l 2,19,20
 327 490 327 490 339.5 492.5 c 128,-1,21
 352 495 352 495 362.5 491 c 128,-1,22
 373 487 373 487 380.5 477.5 c 128,-1,23
 388 468 388 468 388 456 c 2,24,-1
 388 158 l 1,25,-1
 416 158 l 2,26,27
 431 158 431 158 441.5 147.5 c 128,-1,28
 452 137 452 137 452 122 c 256,0,1
316 376 m 1,29,-1
 132 158 l 1,30,-1
 316 158 l 1,31,-1
 316 376 l 1,29,-1
EndSplineSet
EndChar
StartChar: five
Encoding: 53 53 22
Width: 470
Flags: W
Fore
420 112 m 0,0,1
 407 65 407 65 372.5 34 c 128,-1,2
 338 3 338 3 289 -8 c 0,3,4
 250 -17 250 -17 210 -13 c 128,-1,5
 170 -9 170 -9 136 8 c 128,-1,6
 102 25 102 25 77.5 55 c 128,-1,7
 53 85 53 85 44 129 c 0,8,9
 41 144 41 144 49.5 156.5 c 128,-1,10
 58 169 58 169 72 172 c 0,11,12
 87 175 87 175 99.5 166.5 c 128,-1,13
 112 158 112 158 115 143 c 0,14,15
 126 94 126 94 160 73.5 c 128,-1,16
 194 53 194 53 256 58 c 0,17,18
 292 61 292 61 317.5 86 c 128,-1,19
 343 111 343 111 351 143.5 c 128,-1,20
 359 176 359 176 346.5 209.5 c 128,-1,21
 334 243 334 243 294 264 c 0,22,23
 275 274 275 274 250 276 c 128,-1,24
 225 278 225 278 200.5 273.5 c 128,-1,25
 176 269 176 269 156 258.5 c 128,-1,26
 136 248 136 248 126 235 c 0,27,28
 119 226 119 226 107.5 223 c 128,-1,29
 96 220 96 220 85 223.5 c 128,-1,30
 74 227 74 227 66.5 235.5 c 128,-1,31
 59 244 59 244 61 258 c 2,32,-1
 95 488 l 1,33,-1
 375 488 l 2,34,35
 390 488 390 488 400.5 477.5 c 128,-1,36
 411 467 411 467 411 452 c 256,37,38
 411 437 411 437 400.5 426.5 c 128,-1,39
 390 416 390 416 375 416 c 2,40,-1
 158 416 l 1,41,-1
 144 326 l 1,42,43
 172 337 172 337 204.5 341.5 c 128,-1,44
 237 346 237 346 269 342.5 c 128,-1,45
 301 339 301 339 330 327 c 128,-1,46
 359 315 359 315 381 293 c 0,47,48
 397 277 397 277 407.5 255.5 c 128,-1,49
 418 234 418 234 423 210 c 128,-1,50
 428 186 428 186 427 161 c 128,-1,51
 426 136 426 136 420 112 c 0,0,1
EndSplineSet
EndChar
StartChar: six
Encoding: 54 54 23
Width: 473
Flags: W
Fore
433 169 m 0,0,1
 432 131 432 131 418.5 97.5 c 128,-1,2
 405 64 405 64 380 40 c 128,-1,3
 355 16 355 16 319.5 2 c 128,-1,4
 284 -12 284 -12 241 -11 c 0,5,6
 187 -10 187 -10 148.5 9.5 c 128,-1,7
 110 29 110 29 85.5 63.5 c 128,-1,8
 61 98 61 98 50 144.5 c 128,-1,9
 39 191 39 191 40 245 c 0,10,11
 41 304 41 304 56.5 351.5 c 128,-1,12
 72 399 72 399 100.5 432.5 c 128,-1,13
 129 466 129 466 169 484 c 128,-1,14
 209 502 209 502 259 502 c 0,15,16
 289 502 289 502 316 494 c 128,-1,17
 343 486 343 486 364 472.5 c 128,-1,18
 385 459 385 459 400 441.5 c 128,-1,19
 415 424 415 424 422 405 c 0,20,21
 427 390 427 390 422.5 376 c 128,-1,22
 418 362 418 362 403 357 c 256,23,24
 388 352 388 352 374 358.5 c 128,-1,25
 360 365 360 365 355 380 c 0,26,27
 349 397 349 397 320.5 413.5 c 128,-1,28
 292 430 292 430 257 430 c 0,29,30
 190 430 190 430 157.5 391 c 128,-1,31
 125 352 125 352 117 285 c 1,32,33
 143 310 143 310 176 325.5 c 128,-1,34
 209 341 209 341 244 341 c 0,35,36
 285 341 285 341 320 329 c 128,-1,37
 355 317 355 317 380.5 294.5 c 128,-1,38
 406 272 406 272 420 240.5 c 128,-1,39
 434 209 434 209 433 169 c 0,0,1
361 166 m 0,40,41
 361 189 361 189 351 208.5 c 128,-1,42
 341 228 341 228 325 242.5 c 128,-1,43
 309 257 309 257 287.5 265 c 128,-1,44
 266 273 266 273 244 273 c 0,45,46
 221 273 221 273 200 265 c 128,-1,47
 179 257 179 257 162.5 242.5 c 128,-1,48
 146 228 146 228 136.5 208.5 c 128,-1,49
 127 189 127 189 127 166 c 256,50,51
 127 143 127 143 136.5 123.5 c 128,-1,52
 146 104 146 104 162.5 90 c 128,-1,53
 179 76 179 76 200 68 c 128,-1,54
 221 60 221 60 244 60 c 0,55,56
 268 60 268 60 289.5 68.5 c 128,-1,57
 311 77 311 77 326.5 91 c 128,-1,58
 342 105 342 105 351.5 124.5 c 128,-1,59
 361 144 361 144 361 166 c 0,40,41
EndSplineSet
EndChar
StartChar: seven
Encoding: 55 55 24
Width: 442
Flags: W
Fore
170 2 m 2,0,1
 162 -11 162 -11 148 -15 c 128,-1,2
 134 -19 134 -19 120 -11 c 0,3,4
 107 -3 107 -3 103 11 c 128,-1,5
 99 25 99 25 107 38 c 2,6,-1
 322 414 l 1,7,-1
 67 414 l 2,8,9
 52 414 52 414 41.5 424.5 c 128,-1,10
 31 435 31 435 31 450 c 256,11,12
 31 465 31 465 41.5 475.5 c 128,-1,13
 52 486 52 486 67 486 c 2,14,-1
 403 486 l 1,15,-1
 403 409 l 1,16,-1
 170 2 l 2,0,1
EndSplineSet
EndChar
StartChar: eight
Encoding: 56 56 25
Width: 452
Flags: W
Fore
420 145 m 256,0,1
 420 107 420 107 403 77 c 128,-1,2
 386 47 386 47 359 26 c 128,-1,3
 332 5 332 5 297.5 -6 c 128,-1,4
 263 -17 263 -17 227 -17 c 256,5,6
 191 -17 191 -17 156.5 -6 c 128,-1,7
 122 5 122 5 95 26 c 128,-1,8
 68 47 68 47 51.5 77 c 128,-1,9
 35 107 35 107 35 145 c 0,10,11
 35 185 35 185 54.5 218 c 128,-1,12
 74 251 74 251 109 274 c 1,13,14
 88 291 88 291 76.5 315.5 c 128,-1,15
 65 340 65 340 65 366 c 0,16,17
 65 394 65 394 78 419 c 128,-1,18
 91 444 91 444 113 462.5 c 128,-1,19
 135 481 135 481 164.5 491.5 c 128,-1,20
 194 502 194 502 227 502 c 0,21,22
 257 502 257 502 286 492.5 c 128,-1,23
 315 483 315 483 338 465.5 c 128,-1,24
 361 448 361 448 375.5 422.5 c 128,-1,25
 390 397 390 397 390 366 c 0,26,27
 390 340 390 340 378.5 315.5 c 128,-1,28
 367 291 367 291 346 274 c 1,29,30
 380 254 380 254 400 218.5 c 128,-1,31
 420 183 420 183 420 145 c 256,0,1
316 366 m 0,32,33
 316 383 316 383 308.5 396 c 128,-1,34
 301 409 301 409 288.5 417.5 c 128,-1,35
 276 426 276 426 260 430 c 128,-1,36
 244 434 244 434 227 434 c 0,37,38
 212 434 212 434 196 429.5 c 128,-1,39
 180 425 180 425 167 416.5 c 128,-1,40
 154 408 154 408 146 395 c 128,-1,41
 138 382 138 382 138 366 c 0,42,43
 138 345 138 345 148 332 c 128,-1,44
 158 319 158 319 172.5 312 c 128,-1,45
 187 305 187 305 202 302.5 c 128,-1,46
 217 300 217 300 227 300 c 0,47,48
 239 300 239 300 254 303 c 128,-1,49
 269 306 269 306 283 313.5 c 128,-1,50
 297 321 297 321 306.5 333.5 c 128,-1,51
 316 346 316 346 316 366 c 0,32,33
349 145 m 0,52,53
 349 172 349 172 336 190.5 c 128,-1,54
 323 209 323 209 304 220 c 128,-1,55
 285 231 285 231 264 235.5 c 128,-1,56
 243 240 243 240 227 240 c 0,57,58
 224 240 224 240 205 238 c 128,-1,59
 186 236 186 236 164 227 c 128,-1,60
 142 218 142 218 124 199 c 128,-1,61
 106 180 106 180 106 145 c 0,62,63
 106 118 106 118 118 100 c 128,-1,64
 130 82 130 82 148 71.5 c 128,-1,65
 166 61 166 61 186.5 57 c 128,-1,66
 207 53 207 53 224 53 c 0,67,68
 244 53 244 53 266 58 c 128,-1,69
 288 63 288 63 306.5 74 c 128,-1,70
 325 85 325 85 337 102.5 c 128,-1,71
 349 120 349 120 349 145 c 0,52,53
EndSplineSet
EndChar
StartChar: nine
Encoding: 57 57 26
Width: 466
Flags: W
Fore
425 236 m 0,0,1
 423 118 423 118 365 52 c 128,-1,2
 307 -14 307 -14 206 -14 c 0,3,4
 172 -14 172 -14 144.5 -6 c 128,-1,5
 117 2 117 2 97 15.5 c 128,-1,6
 77 29 77 29 63.5 46 c 128,-1,7
 50 63 50 63 43 82 c 0,8,9
 37 97 37 97 42 111 c 128,-1,10
 47 125 47 125 62 130 c 256,11,12
 77 135 77 135 90.5 128.5 c 128,-1,13
 104 122 104 122 110 107 c 0,14,15
 118 87 118 87 141 72.5 c 128,-1,16
 164 58 164 58 208 58 c 0,17,18
 275 58 275 58 307.5 93.5 c 128,-1,19
 340 129 340 129 348 196 c 1,20,21
 322 172 322 172 289 156.5 c 128,-1,22
 256 141 256 141 221 141 c 0,23,24
 182 141 182 141 147.5 153 c 128,-1,25
 113 165 113 165 87 187 c 128,-1,26
 61 209 61 209 46 240.5 c 128,-1,27
 31 272 31 272 32 312 c 0,28,29
 33 350 33 350 47 383 c 128,-1,30
 61 416 61 416 85.5 440 c 128,-1,31
 110 464 110 464 144.5 478 c 128,-1,32
 179 492 179 492 221 492 c 0,33,34
 275 492 275 492 314 472.5 c 128,-1,35
 353 453 353 453 378 418.5 c 128,-1,36
 403 384 403 384 414.5 337 c 128,-1,37
 426 290 426 290 425 236 c 0,0,1
338 315 m 0,38,39
 338 338 338 338 328.5 357.5 c 128,-1,40
 319 377 319 377 302.5 391.5 c 128,-1,41
 286 406 286 406 265 414 c 128,-1,42
 244 422 244 422 221 422 c 0,43,44
 197 422 197 422 175.5 413.5 c 128,-1,45
 154 405 154 405 138 390.5 c 128,-1,46
 122 376 122 376 113 356.5 c 128,-1,47
 104 337 104 337 104 315 c 0,48,49
 104 268 104 268 137 238.5 c 128,-1,50
 170 209 170 209 221 209 c 0,51,52
 271 209 271 209 304.5 238.5 c 128,-1,53
 338 268 338 268 338 315 c 0,38,39
EndSplineSet
EndChar
StartChar: colon
Encoding: 58 58 27
Width: 233
Flags: W
Fore
53 291 m 256,0,1
 53 317 53 317 70.5 334.5 c 128,-1,2
 88 352 88 352 114 352 c 256,3,4
 140 352 140 352 157.5 334.5 c 128,-1,5
 175 317 175 317 175 291 c 256,6,7
 175 265 175 265 157.5 247.5 c 128,-1,8
 140 230 140 230 114 230 c 256,9,10
 88 230 88 230 70.5 247.5 c 128,-1,11
 53 265 53 265 53 291 c 256,0,1
53 55 m 256,12,13
 53 81 53 81 70.5 98.5 c 128,-1,14
 88 116 88 116 114 116 c 256,15,16
 140 116 140 116 157.5 98.5 c 128,-1,17
 175 81 175 81 175 55 c 256,18,19
 175 29 175 29 157.5 11.5 c 128,-1,20
 140 -6 140 -6 114 -6 c 256,21,22
 88 -6 88 -6 70.5 11.5 c 128,-1,23
 53 29 53 29 53 55 c 256,12,13
EndSplineSet
EndChar
StartChar: semicolon
Encoding: 59 59 28
Width: 235
Flags: W
Fore
53 54 m 2,0,1
 53 70 53 70 63 85 c 128,-1,2
 73 100 73 100 88 108 c 0,3,4
 104 115 104 115 119 113.5 c 128,-1,5
 134 112 134 112 146 104.5 c 128,-1,6
 158 97 158 97 166.5 85 c 128,-1,7
 175 73 175 73 178 58 c 0,8,9
 184 30 184 30 178 4.5 c 128,-1,10
 172 -21 172 -21 158.5 -42 c 128,-1,11
 145 -63 145 -63 126 -78 c 128,-1,12
 107 -93 107 -93 89 -100 c 0,13,14
 75 -105 75 -105 64.5 -102 c 128,-1,15
 54 -99 54 -99 49 -92.5 c 128,-1,16
 44 -86 44 -86 45.5 -78 c 128,-1,17
 47 -70 47 -70 57 -65 c 0,18,19
 78 -56 78 -56 94.5 -44 c 128,-1,20
 111 -32 111 -32 122 -6 c 1,21,22
 120 -6 120 -6 117 -6.5 c 128,-1,23
 114 -7 114 -7 112 -7 c 0,24,25
 86 -7 86 -7 69.5 10.5 c 128,-1,26
 53 28 53 28 53 52 c 2,27,-1
 53 54 l 2,0,1
53 291 m 256,28,29
 53 317 53 317 70.5 334.5 c 128,-1,30
 88 352 88 352 114 352 c 256,31,32
 140 352 140 352 157.5 334.5 c 128,-1,33
 175 317 175 317 175 291 c 256,34,35
 175 265 175 265 157.5 247.5 c 128,-1,36
 140 230 140 230 114 230 c 256,37,38
 88 230 88 230 70.5 247.5 c 128,-1,39
 53 265 53 265 53 291 c 256,28,29
EndSplineSet
EndChar
StartChar: less
Encoding: 60 60 29
Width: 460
Flags: W
Fore
398 22 m 256,0,1
 390 8 390 8 374 4 c 128,-1,2
 358 0 358 0 344 8 c 2,3,-1
 82 149 l 2,4,5
 72 155 72 155 68.5 162.5 c 128,-1,6
 65 170 65 170 64 177 c 0,7,8
 61 203 61 203 84 216 c 2,9,-1
 344 356 l 2,10,11
 358 364 358 364 374 359.5 c 128,-1,12
 390 355 390 355 398 341 c 256,13,14
 406 327 406 327 401.5 311.5 c 128,-1,15
 397 296 397 296 383 288 c 0,16,17
 339 266 339 266 299 246 c 0,18,19
 264 229 264 229 229 211 c 128,-1,20
 194 193 194 193 172 182 c 1,21,-1
 383 76 l 2,22,23
 398 68 398 68 402 52 c 128,-1,24
 406 36 406 36 398 22 c 256,0,1
EndSplineSet
EndChar
StartChar: equal
Encoding: 61 61 30
Width: 470
Flags: W
Fore
409 245 m 0,0,1
 409 231 409 231 399.5 219 c 128,-1,2
 390 207 390 207 365 207 c 2,3,-1
 101 207 l 2,4,5
 82 207 82 207 69.5 216 c 128,-1,6
 57 225 57 225 57 245 c 0,7,8
 57 264 57 264 69.5 273 c 128,-1,9
 82 282 82 282 101 282 c 2,10,-1
 365 282 l 2,11,12
 384 282 384 282 396.5 272.5 c 128,-1,13
 409 263 409 263 409 245 c 0,0,1
409 103 m 0,14,15
 409 89 409 89 399.5 77.5 c 128,-1,16
 390 66 390 66 365 66 c 2,17,-1
 101 66 l 2,18,19
 82 66 82 66 69.5 74.5 c 128,-1,20
 57 83 57 83 57 103 c 256,21,22
 57 123 57 123 69.5 131.5 c 128,-1,23
 82 140 82 140 101 140 c 2,24,-1
 365 140 l 2,25,26
 384 140 384 140 396.5 131 c 128,-1,27
 409 122 409 122 409 103 c 0,14,15
EndSplineSet
EndChar
StartChar: greater
Encoding: 62 62 31
Width: 460
Flags: W
Fore
404 177 m 0,0,1
 403 170 403 170 399.5 162.5 c 128,-1,2
 396 155 396 155 386 149 c 2,3,-1
 124 8 l 2,4,5
 110 0 110 0 94 4 c 128,-1,6
 78 8 78 8 70 22 c 256,7,8
 62 36 62 36 66 52 c 128,-1,9
 70 68 70 68 85 76 c 2,10,-1
 296 182 l 1,11,12
 274 193 274 193 238.5 211 c 128,-1,13
 203 229 203 229 169 246 c 2,14,-1
 85 288 l 2,15,16
 71 296 71 296 66.5 311.5 c 128,-1,17
 62 327 62 327 70 341 c 256,18,19
 78 355 78 355 94 359.5 c 128,-1,20
 110 364 110 364 124 356 c 2,21,-1
 384 216 l 2,22,23
 407 203 407 203 404 177 c 0,0,1
EndSplineSet
EndChar
StartChar: question
Encoding: 63 63 32
Width: 460
Flags: W
Fore
407 354 m 256,0,1
 407 322 407 322 396.5 297.5 c 128,-1,2
 386 273 386 273 367.5 256 c 128,-1,3
 349 239 349 239 325 228 c 128,-1,4
 301 217 301 217 274 211 c 0,5,6
 263 209 263 209 253 206.5 c 128,-1,7
 243 204 243 204 235 198 c 0,8,9
 226 192 226 192 220.5 184.5 c 128,-1,10
 215 177 215 177 215 160 c 0,11,12
 215 135 215 135 203.5 127.5 c 128,-1,13
 192 120 192 120 178 120 c 0,14,15
 157 120 157 120 149.5 132.5 c 128,-1,16
 142 145 142 145 141 164 c 0,17,18
 141 195 141 195 152 216 c 128,-1,19
 163 237 163 237 200 260 c 0,20,21
 213 268 213 268 227.5 272.5 c 128,-1,22
 242 277 242 277 256 280 c 0,23,24
 300 290 300 290 317.5 316 c 128,-1,25
 335 342 335 342 329.5 369 c 128,-1,26
 324 396 324 396 299 416.5 c 128,-1,27
 274 437 274 437 232 437 c 0,28,29
 200 437 200 437 170 422.5 c 128,-1,30
 140 408 140 408 117 383 c 0,31,32
 106 372 106 372 90 371.5 c 128,-1,33
 74 371 74 371 63 382 c 256,34,35
 52 393 52 393 51.5 408.5 c 128,-1,36
 51 424 51 424 62 435 c 0,37,38
 97 471 97 471 139 490.5 c 128,-1,39
 181 510 181 510 230 510 c 0,40,41
 275 510 275 510 308 497.5 c 128,-1,42
 341 485 341 485 363 464 c 128,-1,43
 385 443 385 443 396 414.5 c 128,-1,44
 407 386 407 386 407 354 c 256,0,1
229 38 m 256,45,46
 229 18 229 18 214 3.5 c 128,-1,47
 199 -11 199 -11 178 -11 c 256,48,49
 157 -11 157 -11 142 3.5 c 128,-1,50
 127 18 127 18 127 38 c 256,51,52
 127 58 127 58 142 72.5 c 128,-1,53
 157 87 157 87 178 87 c 256,54,55
 199 87 199 87 214 72.5 c 128,-1,56
 229 58 229 58 229 38 c 256,45,46
EndSplineSet
EndChar
StartChar: at
Encoding: 64 64 33
Width: 694
Flags: W
Fore
612 235 m 0,0,1
 602 188 602 188 577.5 155.5 c 128,-1,2
 553 123 553 123 517 102 c 0,3,4
 507 96 507 96 494.5 92.5 c 128,-1,5
 482 89 482 89 469.5 88 c 128,-1,6
 457 87 457 87 446.5 90 c 128,-1,7
 436 93 436 93 429 99 c 0,8,9
 425 102 425 102 421.5 108.5 c 128,-1,10
 418 115 418 115 417 125 c 1,11,12
 395 106 395 106 367 97.5 c 128,-1,13
 339 89 339 89 310 89 c 256,14,15
 281 89 281 89 258.5 98 c 128,-1,16
 236 107 236 107 220.5 123 c 128,-1,17
 205 139 205 139 197.5 160.5 c 128,-1,18
 190 182 190 182 193 206 c 0,19,20
 199 258 199 258 239.5 287 c 128,-1,21
 280 316 280 316 348 316 c 0,22,23
 382 316 382 316 406 304.5 c 128,-1,24
 430 293 430 293 443 277 c 1,25,26
 449 314 449 314 435 332 c 0,27,28
 417 362 417 362 356 362 c 0,29,30
 333 362 333 362 313.5 356.5 c 128,-1,31
 294 351 294 351 271 338 c 0,32,33
 255 329 255 329 247 333 c 128,-1,34
 239 337 239 337 237 341 c 0,35,36
 230 352 230 352 235 362.5 c 128,-1,37
 240 373 240 373 251 380 c 0,38,39
 303 413 303 413 364 413 c 0,40,41
 445 413 445 413 477 365 c 0,42,43
 493 341 493 341 493.5 314 c 128,-1,44
 494 287 494 287 489 265 c 2,45,-1
 485 250 l 2,46,47
 482 239 482 239 476.5 213.5 c 128,-1,48
 471 188 471 188 460 142 c 0,49,50
 458 134 458 134 462.5 132 c 128,-1,51
 467 130 467 130 473 131 c 0,52,53
 480 132 480 132 489 136 c 0,54,55
 514 148 514 148 536 175 c 128,-1,56
 558 202 558 202 566 244 c 1,57,58
 565 240 565 240 568 255.5 c 128,-1,59
 571 271 571 271 569 297.5 c 128,-1,60
 567 324 567 324 556.5 356 c 128,-1,61
 546 388 546 388 518 418 c 0,62,63
 491 447 491 447 454.5 463 c 128,-1,64
 418 479 418 479 378 481.5 c 128,-1,65
 338 484 338 484 298 473.5 c 128,-1,66
 258 463 258 463 223.5 441 c 128,-1,67
 189 419 189 419 163.5 384.5 c 128,-1,68
 138 350 138 350 128 305 c 0,69,70
 111 231 111 231 122.5 181 c 128,-1,71
 134 131 134 131 157.5 98.5 c 128,-1,72
 181 66 181 66 207.5 49.5 c 128,-1,73
 234 33 234 33 248 27 c 0,74,75
 277 13 277 13 319.5 9 c 128,-1,76
 362 5 362 5 404.5 10.5 c 128,-1,77
 447 16 447 16 484.5 32 c 128,-1,78
 522 48 522 48 541 75 c 0,79,80
 546 83 546 83 557.5 88.5 c 128,-1,81
 569 94 569 94 580 88 c 0,82,83
 589 82 589 82 592.5 71.5 c 128,-1,84
 596 61 596 61 589 51 c 0,85,86
 566 14 566 14 521 -8.5 c 128,-1,87
 476 -31 476 -31 423 -39.5 c 128,-1,88
 370 -48 370 -48 316.5 -43.5 c 128,-1,89
 263 -39 263 -39 225 -21 c 0,90,91
 182 -1 182 -1 148 31.5 c 128,-1,92
 114 64 114 64 93 106.5 c 128,-1,93
 72 149 72 149 67 202 c 128,-1,94
 62 255 62 255 76 317 c 0,95,96
 89 373 89 373 120 415 c 128,-1,97
 151 457 151 457 193 484.5 c 128,-1,98
 235 512 235 512 284 524.5 c 128,-1,99
 333 537 333 537 382 533.5 c 128,-1,100
 431 530 431 530 476.5 510.5 c 128,-1,101
 522 491 522 491 557 455 c 0,102,103
 583 427 583 427 596.5 396.5 c 128,-1,104
 610 366 610 366 615 336.5 c 128,-1,105
 620 307 620 307 618 280.5 c 128,-1,106
 616 254 616 254 612 235 c 0,0,1
425 204 m 0,107,108
 431 229 431 229 419 244 c 0,109,110
 400 266 400 266 346 266 c 0,111,112
 327 266 327 266 309 262 c 128,-1,113
 291 258 291 258 276 250.5 c 128,-1,114
 261 243 261 243 251 231 c 128,-1,115
 241 219 241 219 240 204 c 0,116,117
 236 170 236 170 258.5 154 c 128,-1,118
 281 138 281 138 314 138 c 256,119,120
 347 138 347 138 368 146 c 128,-1,121
 389 154 389 154 401 165 c 128,-1,122
 413 176 413 176 418 187 c 128,-1,123
 423 198 423 198 425 204 c 0,107,108
EndSplineSet
EndChar
StartChar: A
Encoding: 65 65 34
Width: 496
Flags: W
Fore
457 45 m 2,0,1
 457 20 457 20 446 10 c 128,-1,2
 435 0 435 0 421 0 c 0,3,4
 411 0 411 0 397 8 c 128,-1,5
 383 16 383 16 383 45 c 2,6,-1
 383 205 l 1,7,-1
 115 205 l 1,8,-1
 115 45 l 2,9,10
 115 20 115 20 103.5 10 c 128,-1,11
 92 0 92 0 78 0 c 0,12,13
 68 0 68 0 54.5 8 c 128,-1,14
 41 16 41 16 41 45 c 2,15,-1
 41 294 l 2,16,17
 41 333 41 333 52 368 c 128,-1,18
 63 403 63 403 87.5 430 c 128,-1,19
 112 457 112 457 152 473 c 128,-1,20
 192 489 192 489 250 489 c 0,21,22
 307 489 307 489 346.5 473.5 c 128,-1,23
 386 458 386 458 410.5 431.5 c 128,-1,24
 435 405 435 405 446 370 c 128,-1,25
 457 335 457 335 457 297 c 2,26,-1
 457 45 l 2,0,1
384 300 m 2,27,28
 384 322 384 322 378 343 c 128,-1,29
 372 364 372 364 357 381 c 128,-1,30
 342 398 342 398 316 408.5 c 128,-1,31
 290 419 290 419 250 419 c 0,32,33
 209 419 209 419 182.5 408.5 c 128,-1,34
 156 398 156 398 141 381 c 128,-1,35
 126 364 126 364 120.5 343 c 128,-1,36
 115 322 115 322 115 300 c 2,37,-1
 115 279 l 1,38,-1
 384 279 l 1,39,-1
 384 300 l 2,27,28
EndSplineSet
EndChar
StartChar: B
Encoding: 66 66 35
Width: 496
Flags: W
Fore
216 0 m 2,0,1
 183 0 183 0 151.5 9 c 128,-1,2
 120 18 120 18 95.5 37.5 c 128,-1,3
 71 57 71 57 56 86.5 c 128,-1,4
 41 116 41 116 41 157 c 2,5,-1
 41 329 l 2,6,7
 41 375 41 375 59.5 406 c 128,-1,8
 78 437 78 437 108 456 c 128,-1,9
 138 475 138 475 175.5 483 c 128,-1,10
 213 491 213 491 251 491 c 0,11,12
 291 491 291 491 328.5 481 c 128,-1,13
 366 471 366 471 395 451.5 c 128,-1,14
 424 432 424 432 441.5 404 c 128,-1,15
 459 376 459 376 459 339 c 0,16,17
 459 274 459 274 404 243 c 1,18,19
 433 227 433 227 446 199.5 c 128,-1,20
 459 172 459 172 459 140 c 0,21,22
 459 82 459 82 415 40 c 0,23,24
 405 30 405 30 390.5 22.5 c 128,-1,25
 376 15 376 15 359.5 10 c 128,-1,26
 343 5 343 5 326 2.5 c 128,-1,27
 309 0 309 0 295 0 c 2,28,-1
 216 0 l 2,0,1
290 279 m 2,29,30
 328 277 328 277 356 293 c 128,-1,31
 384 309 384 309 384 343 c 0,32,33
 384 363 384 363 372 377 c 128,-1,34
 360 391 360 391 341 399.5 c 128,-1,35
 322 408 322 408 298 412 c 128,-1,36
 274 416 274 416 251 416 c 0,37,38
 229 416 229 416 205 413 c 128,-1,39
 181 410 181 410 161 400.5 c 128,-1,40
 141 391 141 391 128 373.5 c 128,-1,41
 115 356 115 356 115 327 c 2,42,-1
 115 160 l 2,43,44
 115 136 115 136 123 120 c 128,-1,45
 131 104 131 104 144.5 93.5 c 128,-1,46
 158 83 158 83 175 78 c 128,-1,47
 192 73 192 73 210 71 c 2,48,-1
 295 71 l 2,49,50
 312 71 312 71 328 75.5 c 128,-1,51
 344 80 344 80 356.5 88.5 c 128,-1,52
 369 97 369 97 376.5 110 c 128,-1,53
 384 123 384 123 384 140 c 0,54,55
 384 205 384 205 290 205 c 2,56,-1
 199 205 l 2,57,58
 174 205 174 205 164 217 c 128,-1,59
 154 229 154 229 154 243 c 0,60,61
 154 263 154 263 167 271 c 128,-1,62
 180 279 180 279 199 279 c 2,63,-1
 290 279 l 2,29,30
EndSplineSet
EndChar
StartChar: C
Encoding: 67 67 36
Width: 467
Flags: W
Fore
440 416 m 0,0,1
 451 405 451 405 450.5 389 c 128,-1,2
 450 373 450 373 439 362 c 256,3,4
 428 351 428 351 412 351.5 c 128,-1,5
 396 352 396 352 385 363 c 0,6,7
 337 414 337 414 269 414 c 0,8,9
 196 414 196 414 150.5 371 c 128,-1,10
 105 328 105 328 105 243 c 0,11,12
 105 201 105 201 117 171.5 c 128,-1,13
 129 142 129 142 146.5 122 c 128,-1,14
 164 102 164 102 184 90.5 c 128,-1,15
 204 79 204 79 221 75 c 0,16,17
 246 68 246 68 270.5 69.5 c 128,-1,18
 295 71 295 71 316 78.5 c 128,-1,19
 337 86 337 86 354.5 97.5 c 128,-1,20
 372 109 372 109 385 122 c 0,21,22
 393 131 393 131 410 133 c 128,-1,23
 427 135 427 135 438 123 c 0,24,25
 453 108 453 108 449 91.5 c 128,-1,26
 445 75 445 75 439 69 c 0,27,28
 412 41 412 41 381.5 24.5 c 128,-1,29
 351 8 351 8 320.5 1 c 128,-1,30
 290 -6 290 -6 259.5 -5 c 128,-1,31
 229 -4 229 -4 202 2 c 0,32,33
 173 9 173 9 142.5 28 c 128,-1,34
 112 47 112 47 86.5 78 c 128,-1,35
 61 109 61 109 45 150.5 c 128,-1,36
 29 192 29 192 29 243 c 0,37,38
 29 296 29 296 46 341 c 128,-1,39
 63 386 63 386 94.5 419 c 128,-1,40
 126 452 126 452 170.5 470.5 c 128,-1,41
 215 489 215 489 269 489 c 0,42,43
 318 489 318 489 362 470 c 128,-1,44
 406 451 406 451 440 416 c 0,0,1
EndSplineSet
EndChar
StartChar: D
Encoding: 68 68 37
Width: 491
Flags: W
Fore
461 243 m 256,0,1
 461 135 461 135 394 70 c 0,2,3
 365 42 365 42 331 27.5 c 128,-1,4
 297 13 297 13 267.5 6.5 c 128,-1,5
 238 0 238 0 217.5 -0.5 c 128,-1,6
 197 -1 197 -1 195 -1 c 2,7,-1
 163 -1 l 2,8,9
 141 -1 141 -1 118.5 7 c 128,-1,10
 96 15 96 15 78.5 29 c 128,-1,11
 61 43 61 43 50.5 62.5 c 128,-1,12
 40 82 40 82 42 105 c 2,13,-1
 42 378 l 2,14,15
 42 402 42 402 51.5 422 c 128,-1,16
 61 442 61 442 77.5 456.5 c 128,-1,17
 94 471 94 471 116 479 c 128,-1,18
 138 487 138 487 164 487 c 2,19,-1
 195 487 l 2,20,21
 197 487 197 487 217.5 486.5 c 128,-1,22
 238 486 238 486 267.5 479.5 c 128,-1,23
 297 473 297 473 331 458.5 c 128,-1,24
 365 444 365 444 394 416 c 0,25,26
 461 351 461 351 461 243 c 256,0,1
387 243 m 256,27,28
 387 321 387 321 343 363 c 0,29,30
 322 382 322 382 297 392.5 c 128,-1,31
 272 403 272 403 249.5 407.5 c 128,-1,32
 227 412 227 412 211.5 412.5 c 128,-1,33
 197 413 197 413 196 413 c 2,34,-1
 165 413 l 2,35,36
 139 413 139 413 127.5 400.5 c 128,-1,37
 116 388 116 388 116 377 c 2,38,-1
 116 105 l 2,39,40
 116 88 116 88 131.5 80 c 128,-1,41
 147 72 147 72 164 72 c 0,42,43
 186 72 186 72 194 72.5 c 128,-1,44
 202 73 202 73 202.5 73 c 128,-1,45
 203 73 203 73 200 73 c 130,-1,46
 197 73 l 1,47,48
 212.5 73.5 l 130,-1,49
 228 74 228 74 250 78.5 c 128,-1,50
 272 83 272 83 297 93 c 128,-1,51
 322 103 322 103 343 123 c 0,52,53
 387 165 387 165 387 243 c 256,27,28
EndSplineSet
EndChar
StartChar: E
Encoding: 69 69 38
Width: 472
Flags: W
Fore
27 329 m 2,0,1
 27 375 27 375 46.5 406 c 128,-1,2
 66 437 66 437 97.5 456 c 128,-1,3
 129 475 129 475 168 483 c 128,-1,4
 207 491 207 491 245 491 c 0,5,6
 277 491 277 491 307 485.5 c 128,-1,7
 337 480 337 480 362.5 469 c 128,-1,8
 388 458 388 458 408 442.5 c 128,-1,9
 428 427 428 427 440 407 c 0,10,11
 448 393 448 393 446 379 c 128,-1,12
 444 365 444 365 430 357 c 256,13,14
 416 349 416 349 401.5 353.5 c 128,-1,15
 387 358 387 358 377 370 c 0,16,17
 362 390 362 390 329 403 c 128,-1,18
 296 416 296 416 245 416 c 0,19,20
 223 416 223 416 197.5 413 c 128,-1,21
 172 410 172 410 150.5 400.5 c 128,-1,22
 129 391 129 391 115 373.5 c 128,-1,23
 101 356 101 356 101 327 c 2,24,-1
 101 280 l 1,25,-1
 280 279 l 2,26,27
 299 279 299 279 312 271 c 128,-1,28
 325 263 325 263 325 243 c 0,29,30
 325 229 325 229 315 217 c 128,-1,31
 305 205 305 205 280 205 c 2,32,-1
 101 205 l 1,33,-1
 101 160 l 2,34,35
 101 129 101 129 115 111 c 128,-1,36
 129 93 129 93 150.5 84 c 128,-1,37
 172 75 172 75 197.5 72.5 c 128,-1,38
 223 70 223 70 245 70 c 0,39,40
 296 70 296 70 329 83 c 128,-1,41
 362 96 362 96 377 116 c 0,42,43
 387 128 387 128 401.5 132.5 c 128,-1,44
 416 137 416 137 430 129 c 256,45,46
 444 121 444 121 446 107 c 128,-1,47
 448 93 448 93 440 79 c 0,48,49
 428 59 428 59 408 43.5 c 128,-1,50
 388 28 388 28 362.5 17 c 128,-1,51
 337 6 337 6 307 0.5 c 128,-1,52
 277 -5 277 -5 245 -5 c 0,53,54
 207 -5 207 -5 168 3 c 128,-1,55
 129 11 129 11 97.5 30 c 128,-1,56
 66 49 66 49 46.5 80 c 128,-1,57
 27 111 27 111 27 157 c 2,58,-1
 27 329 l 2,0,1
EndSplineSet
EndChar
StartChar: F
Encoding: 70 70 39
Width: 476
Flags: W
Fore
42 329 m 0,0,1
 42 375 42 375 61.5 406 c 128,-1,2
 81 437 81 437 112.5 456 c 128,-1,3
 144 475 144 475 183 483 c 128,-1,4
 222 491 222 491 260 491 c 0,5,6
 292 491 292 491 322 485.5 c 128,-1,7
 352 480 352 480 377.5 469 c 128,-1,8
 403 458 403 458 423 442.5 c 128,-1,9
 443 427 443 427 455 407 c 0,10,11
 463 393 463 393 461 379 c 128,-1,12
 459 365 459 365 445 357 c 256,13,14
 431 349 431 349 416.5 353.5 c 128,-1,15
 402 358 402 358 392 370 c 0,16,17
 377 390 377 390 344 403 c 128,-1,18
 311 416 311 416 260 416 c 0,19,20
 238 416 238 416 212.5 413 c 128,-1,21
 187 410 187 410 165.5 400.5 c 128,-1,22
 144 391 144 391 130 373.5 c 128,-1,23
 116 356 116 356 116 327 c 2,24,-1
 116 279 l 1,25,-1
 295 279 l 2,26,27
 314 279 314 279 327 271 c 128,-1,28
 340 263 340 263 340 243 c 0,29,30
 340 229 340 229 330 217 c 128,-1,31
 320 205 320 205 295 205 c 2,32,-1
 115 205 l 1,33,-1
 115 44 l 2,34,35
 115 19 115 19 104 9 c 128,-1,36
 93 -1 93 -1 79 -1 c 0,37,38
 58 -1 58 -1 50.5 12 c 128,-1,39
 43 25 43 25 42 44 c 2,40,-1
 42 79 l 2,41,42
 42 105 42 105 41.5 163.5 c 128,-1,43
 41 222 41 222 42 329 c 0,0,1
EndSplineSet
EndChar
StartChar: G
Encoding: 71 71 40
Width: 519
Flags: W
Fore
275 491 m 0,0,1
 347 491 347 491 394 467.5 c 128,-1,2
 441 444 441 444 467 406 c 0,3,4
 476 392 476 392 473.5 377.5 c 128,-1,5
 471 363 471 363 457 355 c 256,6,7
 443 347 443 347 429 352 c 128,-1,8
 415 357 415 357 404 368 c 0,9,10
 384 387 384 387 355.5 401.5 c 128,-1,11
 327 416 327 416 276 416 c 0,12,13
 191 416 191 416 150.5 369.5 c 128,-1,14
 110 323 110 323 110 242 c 0,15,16
 110 160 110 160 154 115.5 c 128,-1,17
 198 71 198 71 276 71 c 0,18,19
 300 71 300 71 324.5 76.5 c 128,-1,20
 349 82 349 82 368.5 92.5 c 128,-1,21
 388 103 388 103 400 117.5 c 128,-1,22
 412 132 412 132 412 150 c 2,23,-1
 412 175 l 2,24,25
 412 186 412 186 410 195 c 128,-1,26
 408 204 408 204 393 204 c 2,27,-1
 215 204 l 2,28,29
 194 204 194 204 178.5 212.5 c 128,-1,30
 163 221 163 221 163 242 c 0,31,32
 163 262 163 262 178.5 270.5 c 128,-1,33
 194 279 194 279 215 279 c 2,34,-1
 393 279 l 2,35,36
 441 279 441 279 464 252 c 128,-1,37
 487 225 487 225 487 187 c 2,38,-1
 487 150 l 2,39,40
 487 116 487 116 474 93 c 128,-1,41
 461 70 461 70 442 51 c 0,42,43
 438 47 438 47 425.5 38 c 128,-1,44
 413 29 413 29 392 19.5 c 128,-1,45
 371 10 371 10 342 3 c 128,-1,46
 313 -4 313 -4 276 -4 c 0,47,48
 220 -4 220 -4 175.5 14 c 128,-1,49
 131 32 131 32 99.5 64.5 c 128,-1,50
 68 97 68 97 51 142 c 128,-1,51
 34 187 34 187 34 242 c 256,52,53
 34 297 34 297 50 343 c 128,-1,54
 66 389 66 389 97 422 c 128,-1,55
 128 455 128 455 173 473 c 128,-1,56
 218 491 218 491 275 491 c 0,0,1
EndSplineSet
EndChar
StartChar: H
Encoding: 72 72 41
Width: 507
Flags: W
Fore
463 44 m 1,0,1
 463 19 463 19 451.5 9.5 c 128,-1,2
 440 0 440 0 426 0 c 0,3,4
 406 0 406 0 397.5 12.5 c 128,-1,5
 389 25 389 25 389 44 c 2,6,-1
 389 205 l 1,7,-1
 120 205 l 1,8,-1
 120 44 l 2,9,10
 120 19 120 19 108.5 9.5 c 128,-1,11
 97 0 97 0 83 0 c 0,12,13
 63 0 63 0 54.5 13 c 128,-1,14
 46 26 46 26 46 44 c 2,15,-1
 46 443 l 2,16,17
 46 461 46 461 54.5 474 c 128,-1,18
 63 487 63 487 83 487 c 0,19,20
 102 487 102 487 111 474 c 128,-1,21
 120 461 120 461 120 443 c 2,22,-1
 120 279 l 1,23,-1
 389 279 l 1,24,-1
 389 443 l 2,25,26
 389 462 389 462 397.5 474.5 c 128,-1,27
 406 487 406 487 426 487 c 0,28,29
 445 487 445 487 454 474 c 128,-1,30
 463 461 463 461 463 443 c 2,31,-1
 463 44 l 1,32,-1
 463 44 l 1,0,1
EndSplineSet
EndChar
StartChar: I
Encoding: 73 73 42
Width: 166
Flags: W
Fore
121 44 m 1,0,1
 121 19 121 19 109 9.5 c 128,-1,2
 97 0 97 0 84 0 c 0,3,4
 64 0 64 0 55.5 12.5 c 128,-1,5
 47 25 47 25 47 44 c 2,6,-1
 47 443 l 2,7,8
 47 462 47 462 55.5 474.5 c 128,-1,9
 64 487 64 487 84 487 c 0,10,11
 102 487 102 487 111.5 474 c 128,-1,12
 121 461 121 461 121 443 c 2,13,-1
 121 44 l 1,14,-1
 121 44 l 1,0,1
EndSplineSet
EndChar
StartChar: J
Encoding: 74 74 43
Width: 406
Flags: W
Fore
359 162 m 1,0,1
 359 111 359 111 340 78 c 128,-1,2
 321 45 321 45 295.5 26.5 c 128,-1,3
 270 8 270 8 243 1 c 128,-1,4
 216 -6 216 -6 201 -6 c 2,5,-1
 184 -6 l 2,6,7
 151 -6 151 -6 121 5 c 128,-1,8
 91 16 91 16 68.5 37 c 128,-1,9
 46 58 46 58 33 88 c 128,-1,10
 20 118 20 118 20 155 c 2,11,-1
 20 211 l 2,12,13
 20 229 20 229 28.5 242.5 c 128,-1,14
 37 256 37 256 57 256 c 0,15,16
 76 256 76 256 85 242.5 c 128,-1,17
 94 229 94 229 94 211 c 2,18,-1
 94 155 l 2,19,20
 94 117 94 117 121 92 c 128,-1,21
 148 67 148 67 193 67 c 0,22,23
 229 67 229 67 257 91.5 c 128,-1,24
 285 116 285 116 285 162 c 2,25,-1
 285 438 l 2,26,27
 285 457 285 457 294 469.5 c 128,-1,28
 303 482 303 482 321 482 c 0,29,30
 341 482 341 482 350 469.5 c 128,-1,31
 359 457 359 457 359 438 c 2,32,-1
 359 162 l 1,33,-1
 359 162 l 1,0,1
EndSplineSet
EndChar
StartChar: K
Encoding: 75 75 44
Width: 466
Flags: W
Fore
450 35 m 0,0,1
 453 20 453 20 444 7 c 128,-1,2
 435 -6 435 -6 420 -9 c 0,3,4
 404 -12 404 -12 391 -2.5 c 128,-1,5
 378 7 378 7 375 22 c 0,6,7
 365 77 365 77 341 119.5 c 128,-1,8
 317 162 317 162 289 192 c 128,-1,9
 261 222 261 222 235.5 240 c 128,-1,10
 210 258 210 258 197 265 c 1,11,-1
 120 214 l 1,12,-1
 120 45 l 2,13,14
 120 20 120 20 108.5 10 c 128,-1,15
 97 0 97 0 84 0 c 0,16,17
 64 0 64 0 55 13 c 128,-1,18
 46 26 46 26 46 44 c 2,19,-1
 46 443 l 2,20,21
 46 462 46 462 55 475 c 128,-1,22
 64 488 64 488 84 488 c 0,23,24
 102 488 102 488 111 474.5 c 128,-1,25
 120 461 120 461 120 443 c 2,26,-1
 120 301 l 1,27,28
 124 303 124 303 154 323 c 0,29,30
 167 332 167 332 186.5 345 c 128,-1,31
 206 358 206 358 235.5 377.5 c 128,-1,32
 265 397 265 397 304.5 423 c 128,-1,33
 344 449 344 449 396 484 c 1,34,35
 407 489 407 489 416.5 486 c 128,-1,36
 426 483 426 483 431 478 c 0,37,38
 445 461 445 461 441 446.5 c 128,-1,39
 437 432 437 432 431 428 c 2,40,-1
 259 308 l 1,41,42
 283 293 283 293 311.5 269.5 c 128,-1,43
 340 246 340 246 367.5 212 c 128,-1,44
 395 178 395 178 417 134 c 128,-1,45
 439 90 439 90 450 35 c 0,0,1
EndSplineSet
EndChar
StartChar: L
Encoding: 76 76 45
Width: 451
Flags: W
Fore
436 37 m 0,0,1
 436 23 436 23 426 11 c 128,-1,2
 416 -1 416 -1 391 -1 c 2,3,-1
 144 -1 l 2,4,5
 102 -1 102 -1 75.5 26.5 c 128,-1,6
 49 54 49 54 49 95 c 2,7,-1
 49 442 l 2,8,9
 49 461 49 461 58 473.5 c 128,-1,10
 67 486 67 486 87 486 c 0,11,12
 105 486 105 486 114 473 c 128,-1,13
 123 460 123 460 123 442 c 2,14,-1
 123 93 l 2,15,16
 123 84 123 84 128.5 77.5 c 128,-1,17
 134 71 134 71 144 73 c 1,18,-1
 391 73 l 2,19,20
 409 73 409 73 422.5 64 c 128,-1,21
 436 55 436 55 436 37 c 0,0,1
EndSplineSet
EndChar
StartChar: M
Encoding: 77 77 46
Width: 696
Flags: W
Fore
650 40 m 1,0,1
 650 15 650 15 638.5 5 c 128,-1,2
 627 -5 627 -5 614 -5 c 0,3,4
 593 -5 593 -5 584.5 8 c 128,-1,5
 576 21 576 21 576 40 c 2,6,-1
 576 332 l 2,7,8
 576 419 576 419 479 419 c 2,9,10
 464 417.5 l 130,-1,11
 449 416 449 416 432 407.5 c 128,-1,12
 415 399 415 399 400.5 381.5 c 128,-1,13
 386 364 386 364 386 332 c 2,14,-1
 386 40 l 2,15,16
 386 15 386 15 374 5 c 128,-1,17
 362 -5 362 -5 348 -5 c 0,18,19
 329 -5 329 -5 320 8.5 c 128,-1,20
 311 22 311 22 311 40 c 2,21,-1
 311 332 l 2,22,23
 311 371 311 371 283.5 395 c 128,-1,24
 256 419 256 419 218 419 c 0,25,26
 186 419 186 419 166.5 410.5 c 128,-1,27
 147 402 147 402 137 389.5 c 128,-1,28
 127 377 127 377 124 361.5 c 128,-1,29
 121 346 121 346 121 332 c 2,30,-1
 121 40 l 2,31,32
 121 15 121 15 109 5 c 128,-1,33
 97 -5 97 -5 83 -5 c 0,34,35
 64 -5 64 -5 55 8 c 128,-1,36
 46 21 46 21 46 40 c 2,37,-1
 46 332 l 2,38,39
 46 373 46 373 59.5 403.5 c 128,-1,40
 73 434 73 434 96.5 454 c 128,-1,41
 120 474 120 474 151 483.5 c 128,-1,42
 182 493 182 493 218 493 c 0,43,44
 235 493 235 493 254.5 488.5 c 128,-1,45
 274 484 274 484 292 475.5 c 128,-1,46
 310 467 310 467 325.5 454.5 c 128,-1,47
 341 442 341 442 349 427 c 1,48,49
 357 442 357 442 371.5 454.5 c 128,-1,50
 386 467 386 467 404 475.5 c 128,-1,51
 422 484 422 484 441.5 488.5 c 128,-1,52
 461 493 461 493 479 493 c 0,53,54
 516 493 516 493 547.5 482.5 c 128,-1,55
 579 472 579 472 601.5 452 c 128,-1,56
 624 432 624 432 637 402 c 128,-1,57
 650 372 650 372 650 332 c 2,58,-1
 650 40 l 1,59,-1
 650 40 l 1,0,1
EndSplineSet
EndChar
StartChar: N
Encoding: 78 78 47
Width: 487
Flags: W
Fore
442 44 m 1,0,1
 442 20 442 20 430.5 10 c 128,-1,2
 419 0 419 0 405 0 c 0,3,4
 385 0 385 0 376.5 12.5 c 128,-1,5
 368 25 368 25 368 44 c 2,6,-1
 368 187 l 1,7,8
 357 210 357 210 336 246.5 c 128,-1,9
 315 283 315 283 289 318.5 c 128,-1,10
 263 354 263 354 234 382 c 128,-1,11
 205 410 205 410 177 416 c 0,12,13
 159 420 159 420 148 415.5 c 128,-1,14
 137 411 137 411 130.5 400.5 c 128,-1,15
 124 390 124 390 122 376 c 128,-1,16
 120 362 120 362 120 348 c 2,17,-1
 120 44 l 2,18,19
 120 20 120 20 108.5 10 c 128,-1,20
 97 0 97 0 83 0 c 0,21,22
 63 0 63 0 54 12.5 c 128,-1,23
 45 25 45 25 45 44 c 2,24,-1
 45 358 l 2,25,26
 45 386 45 386 55 412.5 c 128,-1,27
 65 439 65 439 84.5 458 c 128,-1,28
 104 477 104 477 131.5 485.5 c 128,-1,29
 159 494 159 494 195 485 c 0,30,31
 222 479 222 479 247.5 461.5 c 128,-1,32
 273 444 273 444 295 421 c 128,-1,33
 317 398 317 398 335.5 372.5 c 128,-1,34
 354 347 354 347 368 324 c 1,35,-1
 368 443 l 2,36,37
 368 462 368 462 376.5 475 c 128,-1,38
 385 488 385 488 405 488 c 0,39,40
 424 488 424 488 433 474.5 c 128,-1,41
 442 461 442 461 442 443 c 2,42,-1
 442 44 l 1,43,-1
 442 44 l 1,0,1
EndSplineSet
EndChar
StartChar: O
Encoding: 79 79 48
Width: 535
Flags: W
Fore
510 242 m 0,0,1
 510 192 510 192 491 147.5 c 128,-1,2
 472 103 472 103 439.5 69 c 128,-1,3
 407 35 407 35 363 15 c 128,-1,4
 319 -5 319 -5 269 -5 c 256,5,6
 219 -5 219 -5 175 15 c 128,-1,7
 131 35 131 35 98.5 69 c 128,-1,8
 66 103 66 103 47 147.5 c 128,-1,9
 28 192 28 192 28 242 c 0,10,11
 28 291 28 291 47 336 c 128,-1,12
 66 381 66 381 98.5 415 c 128,-1,13
 131 449 131 449 175 469 c 128,-1,14
 219 489 219 489 269 489 c 256,15,16
 319 489 319 489 363 469 c 128,-1,17
 407 449 407 449 439.5 415 c 128,-1,18
 472 381 472 381 491 336 c 128,-1,19
 510 291 510 291 510 242 c 0,0,1
434 242 m 256,20,21
 434 276 434 276 421 307 c 128,-1,22
 408 338 408 338 386 361.5 c 128,-1,23
 364 385 364 385 333.5 399 c 128,-1,24
 303 413 303 413 269 413 c 0,25,26
 234 413 234 413 204 399 c 128,-1,27
 174 385 174 385 151.5 362 c 128,-1,28
 129 339 129 339 116.5 307.5 c 128,-1,29
 104 276 104 276 104 242 c 0,30,31
 104 207 104 207 116.5 176 c 128,-1,32
 129 145 129 145 151.5 122 c 128,-1,33
 174 99 174 99 204 85 c 128,-1,34
 234 71 234 71 269 71 c 0,35,36
 303 71 303 71 333.5 85 c 128,-1,37
 364 99 364 99 386 122.5 c 128,-1,38
 408 146 408 146 421 177 c 128,-1,39
 434 208 434 208 434 242 c 256,20,21
EndSplineSet
EndChar
StartChar: P
Encoding: 80 80 49
Width: 491
Flags: W
Fore
168 203 m 0,0,1
 155 211 155 211 146.5 222.5 c 128,-1,2
 138 234 138 234 146 251 c 0,3,4
 154 269 154 269 169 271.5 c 128,-1,5
 184 274 184 274 199 266 c 0,6,7
 223 254 223 254 254 248.5 c 128,-1,8
 285 243 285 243 313 247 c 128,-1,9
 341 251 341 251 361.5 267 c 128,-1,10
 382 283 382 283 385 315 c 0,11,12
 387 333 387 333 381 351.5 c 128,-1,13
 375 370 375 370 359.5 385 c 128,-1,14
 344 400 344 400 316.5 409.5 c 128,-1,15
 289 419 289 419 248 419 c 0,16,17
 179 419 179 419 144.5 392.5 c 128,-1,18
 110 366 110 366 110 304 c 2,19,-1
 110 44 l 2,20,21
 110 26 110 26 102.5 12.5 c 128,-1,22
 95 -1 95 -1 75 -1 c 0,23,24
 54 -1 54 -1 45.5 12.5 c 128,-1,25
 37 26 37 26 37 44 c 2,26,-1
 37 329 l 2,27,28
 37 372 37 372 56 403 c 128,-1,29
 75 434 75 434 105 453 c 128,-1,30
 135 472 135 472 172.5 481 c 128,-1,31
 210 490 210 490 248 490 c 0,32,33
 288 490 288 490 326.5 481 c 128,-1,34
 365 472 365 472 395 451.5 c 128,-1,35
 425 431 425 431 443.5 399.5 c 128,-1,36
 462 368 462 368 461 323 c 0,37,38
 460 280 460 280 443.5 251.5 c 128,-1,39
 427 223 427 223 401 206 c 128,-1,40
 375 189 375 189 343 182 c 128,-1,41
 311 175 311 175 278.5 175.5 c 128,-1,42
 246 176 246 176 217 183.5 c 128,-1,43
 188 191 188 191 168 203 c 0,0,1
EndSplineSet
EndChar
StartChar: Q
Encoding: 81 81 50
Width: 545
Flags: W
Fore
514 243 m 0,0,1
 514 202 514 202 501.5 164.5 c 128,-1,2
 489 127 489 127 465 95 c 1,3,4
 476 79 476 79 488 57.5 c 128,-1,5
 500 36 500 36 506 16 c 0,6,7
 515 -14 515 -14 487 -26 c 0,8,9
 470 -33 470 -33 458 -24.5 c 128,-1,10
 446 -16 446 -16 441 -1 c 0,11,12
 438 10 438 10 430 23.5 c 128,-1,13
 422 37 422 37 417 45 c 1,14,15
 387 23 387 23 348.5 9.5 c 128,-1,16
 310 -4 310 -4 273 -4 c 0,17,18
 223 -4 223 -4 179 16 c 128,-1,19
 135 36 135 36 102.5 70 c 128,-1,20
 70 104 70 104 51 148.5 c 128,-1,21
 32 193 32 193 32 243 c 0,22,23
 32 294 32 294 49 338.5 c 128,-1,24
 66 383 66 383 97.5 417 c 128,-1,25
 129 451 129 451 173.5 470.5 c 128,-1,26
 218 490 218 490 273 490 c 0,27,28
 323 490 323 490 367 470 c 128,-1,29
 411 450 411 450 443.5 416 c 128,-1,30
 476 382 476 382 495 337 c 128,-1,31
 514 292 514 292 514 243 c 0,0,1
438 243 m 0,32,33
 438 277 438 277 425.5 308.5 c 128,-1,34
 413 340 413 340 390.5 363 c 128,-1,35
 368 386 368 386 338 400 c 128,-1,36
 308 414 308 414 273 414 c 0,37,38
 233 414 233 414 202 400 c 128,-1,39
 171 386 171 386 150 362 c 128,-1,40
 129 338 129 338 118.5 307 c 128,-1,41
 108 276 108 276 108 243 c 0,42,43
 108 180 108 180 148 134 c 1,44,45
 168 160 168 160 206.5 180 c 128,-1,46
 245 200 245 200 302 197 c 0,47,48
 309 197 309 197 321.5 195.5 c 128,-1,49
 334 194 334 194 349 189.5 c 128,-1,50
 364 185 364 185 381 177.5 c 128,-1,51
 398 170 398 170 415 158 c 1,52,53
 438 197 438 197 438 243 c 0,32,33
381 106 m 1,54,55
 360 122 360 122 337 128 c 128,-1,56
 314 134 314 134 292 134 c 0,57,58
 250 134 250 134 226.5 120 c 128,-1,59
 203 106 203 106 191 91 c 1,60,61
 199 85 199 85 218 77 c 128,-1,62
 237 69 237 69 272 67 c 0,63,64
 310 65 310 65 332.5 75.5 c 128,-1,65
 355 86 355 86 381 106 c 1,54,55
EndSplineSet
EndChar
StartChar: R
Encoding: 82 82 51
Width: 507
Flags: W
Fore
173 203 m 0,0,1
 160 211 160 211 151.5 222.5 c 128,-1,2
 143 234 143 234 151 251 c 0,3,4
 159 269 159 269 174 271.5 c 128,-1,5
 189 274 189 274 204 266 c 0,6,7
 225 255 225 255 255.5 249 c 128,-1,8
 286 243 286 243 314.5 246.5 c 128,-1,9
 343 250 343 250 364.5 266 c 128,-1,10
 386 282 386 282 390 317 c 0,11,12
 392 336 392 336 385 355 c 128,-1,13
 378 374 378 374 361 388.5 c 128,-1,14
 344 403 344 403 317 411.5 c 128,-1,15
 290 420 290 420 253 419 c 0,16,17
 184 417 184 417 149.5 391.5 c 128,-1,18
 115 366 115 366 115 304 c 2,19,-1
 115 44 l 2,20,21
 115 26 115 26 107.5 12.5 c 128,-1,22
 100 -1 100 -1 80 -1 c 0,23,24
 59 -1 59 -1 50.5 12.5 c 128,-1,25
 42 26 42 26 42 44 c 2,26,-1
 42 329 l 2,27,28
 42 372 42 372 61 403 c 128,-1,29
 80 434 80 434 110 453 c 128,-1,30
 140 472 140 472 177.5 481 c 128,-1,31
 215 490 215 490 253 490 c 0,32,33
 286 490 286 490 323.5 482.5 c 128,-1,34
 361 475 361 475 392.5 456.5 c 128,-1,35
 424 438 424 438 445 406 c 128,-1,36
 466 374 466 374 466 325 c 0,37,38
 466 289 466 289 453 261.5 c 128,-1,39
 440 234 440 234 419.5 216 c 128,-1,40
 399 198 399 198 373.5 189 c 128,-1,41
 348 180 348 180 323 180 c 1,42,43
 352 159 352 159 384 125.5 c 128,-1,44
 416 92 416 92 440 49 c 0,45,46
 448 35 448 35 447.5 19.5 c 128,-1,47
 447 4 447 4 425 -4 c 0,48,49
 417 -8 417 -8 408 -6 c 0,50,51
 400 -5 400 -5 391.5 0.5 c 128,-1,52
 383 6 383 6 375 20 c 0,53,54
 357 51 357 51 331 78 c 128,-1,55
 305 105 305 105 276.5 128.5 c 128,-1,56
 248 152 248 152 220.5 170.5 c 128,-1,57
 193 189 193 189 173 203 c 0,0,1
EndSplineSet
EndChar
StartChar: S
Encoding: 83 83 52
Width: 465
Flags: W
Fore
436 143 m 0,0,1
 436 104 436 104 418.5 76 c 128,-1,2
 401 48 401 48 372.5 30 c 128,-1,3
 344 12 344 12 307.5 3 c 128,-1,4
 271 -6 271 -6 233 -6 c 0,5,6
 201 -6 201 -6 170.5 0 c 128,-1,7
 140 6 140 6 113 17 c 128,-1,8
 86 28 86 28 65.5 44 c 128,-1,9
 45 60 45 60 33 80 c 0,10,11
 25 93 25 93 29 108 c 128,-1,12
 33 123 33 123 47 131 c 256,13,14
 61 139 61 139 75.5 135.5 c 128,-1,15
 90 132 90 132 98 118 c 0,16,17
 105 107 105 107 119 98 c 128,-1,18
 133 89 133 89 151.5 83 c 128,-1,19
 170 77 170 77 191 73.5 c 128,-1,20
 212 70 212 70 233 70 c 0,21,22
 255 70 255 70 278 73.5 c 128,-1,23
 301 77 301 77 319.5 85 c 128,-1,24
 338 93 338 93 349.5 107.5 c 128,-1,25
 361 122 361 122 361 143 c 0,26,27
 361 162 361 162 349 174.5 c 128,-1,28
 337 187 337 187 318 194 c 128,-1,29
 299 201 299 201 276.5 203.5 c 128,-1,30
 254 206 254 206 233 206 c 0,31,32
 197 206 197 206 160.5 213.5 c 128,-1,33
 124 221 124 221 94.5 237.5 c 128,-1,34
 65 254 65 254 46.5 280 c 128,-1,35
 28 306 28 306 28 342 c 0,36,37
 28 381 28 381 45.5 409 c 128,-1,38
 63 437 63 437 92 455 c 128,-1,39
 121 473 121 473 158 481.5 c 128,-1,40
 195 490 195 490 233 490 c 0,41,42
 265 490 265 490 295.5 484 c 128,-1,43
 326 478 326 478 352 467 c 128,-1,44
 378 456 378 456 398.5 440.5 c 128,-1,45
 419 425 419 425 431 405 c 0,46,47
 439 391 439 391 435.5 376 c 128,-1,48
 432 361 432 361 418 353 c 256,49,50
 404 345 404 345 389 349 c 128,-1,51
 374 353 374 353 366 367 c 0,52,53
 360 378 360 378 346 387 c 128,-1,54
 332 396 332 396 314 402 c 128,-1,55
 296 408 296 408 275 411.5 c 128,-1,56
 254 415 254 415 233 415 c 0,57,58
 211 415 211 415 187.5 412 c 128,-1,59
 164 409 164 409 144.5 401 c 128,-1,60
 125 393 125 393 112.5 379 c 128,-1,61
 100 365 100 365 100 343 c 0,62,63
 100 323 100 323 113 311 c 128,-1,64
 126 299 126 299 146 292.5 c 128,-1,65
 166 286 166 286 189.5 284 c 128,-1,66
 213 282 213 282 233 282 c 0,67,68
 270 282 270 282 306.5 274.5 c 128,-1,69
 343 267 343 267 372 250.5 c 128,-1,70
 401 234 401 234 418.5 207.5 c 128,-1,71
 436 181 436 181 436 143 c 0,0,1
EndSplineSet
EndChar
StartChar: T
Encoding: 84 84 53
Width: 442
Flags: W
Fore
258 44 m 2,0,1
 258 19 258 19 246.5 9.5 c 128,-1,2
 235 0 235 0 222 0 c 0,3,4
 202 0 202 0 193 12 c 128,-1,5
 184 24 184 24 184 44 c 2,6,-1
 184 413 l 1,7,8
 148 408 148 408 118.5 397 c 128,-1,9
 89 386 89 386 75 370 c 0,10,11
 67 360 67 360 53.5 356 c 128,-1,12
 40 352 40 352 26 360 c 256,13,14
 12 368 12 368 8.5 383 c 128,-1,15
 5 398 5 398 13 412 c 0,16,17
 25 432 25 432 47 446.5 c 128,-1,18
 69 461 69 461 97 471 c 128,-1,19
 125 481 125 481 157.5 485.5 c 128,-1,20
 190 490 190 490 222 490 c 256,21,22
 254 490 254 490 286 485.5 c 128,-1,23
 318 481 318 481 346 471 c 128,-1,24
 374 461 374 461 396 446.5 c 128,-1,25
 418 432 418 432 430 412 c 0,26,27
 438 398 438 398 434.5 383 c 128,-1,28
 431 368 431 368 417 360 c 256,29,30
 403 352 403 352 389.5 356 c 128,-1,31
 376 360 376 360 368 370 c 0,32,33
 354 386 354 386 324 397 c 128,-1,34
 294 408 294 408 258 413 c 1,35,-1
 258 44 l 2,0,1
EndSplineSet
EndChar
StartChar: U
Encoding: 85 85 54
Width: 509
Flags: W
Fore
462 188 m 2,0,1
 465 100 465 100 410.5 47.5 c 128,-1,2
 356 -5 356 -5 255 -5 c 0,3,4
 152 -5 152 -5 99 49 c 128,-1,5
 46 103 46 103 46 191 c 2,6,-1
 46 440 l 2,7,8
 46 459 46 459 55 471.5 c 128,-1,9
 64 484 64 484 84 484 c 0,10,11
 101 484 101 484 110.5 471 c 128,-1,12
 120 458 120 458 120 440 c 2,13,-1
 120 404 l 2,14,15
 120 378 120 378 119.5 326 c 128,-1,16
 119 274 119 274 120 179 c 0,17,18
 120 61 120 61 254 61 c 0,19,20
 322 61 322 61 355 91.5 c 128,-1,21
 388 122 388 122 388 176 c 2,22,-1
 388 440 l 2,23,24
 388 459 388 459 397 471.5 c 128,-1,25
 406 484 406 484 426 484 c 0,26,27
 443 484 443 484 452.5 471 c 128,-1,28
 462 458 462 458 462 440 c 2,29,-1
 462 188 l 2,0,1
EndSplineSet
EndChar
StartChar: V
Encoding: 86 86 55
Width: 445
Flags: W
Fore
422 399 m 2,0,1
 417 372 417 372 404.5 312.5 c 128,-1,2
 392 253 392 253 368 144 c 0,3,4
 357 95 357 95 340 66 c 128,-1,5
 323 37 323 37 303.5 22 c 128,-1,6
 284 7 284 7 262.5 2.5 c 128,-1,7
 241 -2 241 -2 222 -2 c 256,8,9
 203 -2 203 -2 181.5 2.5 c 128,-1,10
 160 7 160 7 140.5 22 c 128,-1,11
 121 37 121 37 104 66 c 128,-1,12
 87 95 87 95 77 144 c 2,13,-1
 15 437 l 2,14,15
 7 473 7 473 40 484 c 0,16,17
 59 490 59 490 72 477 c 128,-1,18
 85 464 85 464 88 444 c 1,19,20
 88 439 88 439 95 407 c 0,21,22
 98 393 98 393 102 372 c 128,-1,23
 106 351 106 351 113 320.5 c 128,-1,24
 120 290 120 290 129 248.5 c 128,-1,25
 138 207 138 207 150 152 c 0,26,27
 157 121 157 121 166 103 c 128,-1,28
 175 85 175 85 184.5 75.5 c 128,-1,29
 194 66 194 66 204 63.5 c 128,-1,30
 214 61 214 61 222 61 c 256,31,32
 230 61 230 61 240 63.5 c 128,-1,33
 250 66 250 66 260 75.5 c 128,-1,34
 270 85 270 85 279 103 c 128,-1,35
 288 121 288 121 295 153 c 2,36,-1
 303 189 l 2,37,38
 309 216 309 216 321 275.5 c 128,-1,39
 333 335 333 335 356 445 c 0,40,41
 360 464 360 464 372.5 477.5 c 128,-1,42
 385 491 385 491 405 484 c 0,43,44
 437 473 437 473 429 435 c 2,45,-1
 422 399 l 2,0,1
EndSplineSet
EndChar
StartChar: W
Encoding: 87 87 56
Width: 677
Flags: W
Fore
638 445 m 2,0,-1
 638 153 l 2,1,2
 638 113 638 113 625 83 c 128,-1,3
 612 53 612 53 589.5 32.5 c 128,-1,4
 567 12 567 12 535.5 2 c 128,-1,5
 504 -8 504 -8 467 -8 c 0,6,7
 449 -8 449 -8 429.5 -3.5 c 128,-1,8
 410 1 410 1 392 9.5 c 128,-1,9
 374 18 374 18 359.5 30.5 c 128,-1,10
 345 43 345 43 337 58 c 1,11,12
 329 43 329 43 313.5 30.5 c 128,-1,13
 298 18 298 18 280 9.5 c 128,-1,14
 262 1 262 1 242.5 -3.5 c 128,-1,15
 223 -8 223 -8 206 -8 c 0,16,17
 170 -8 170 -8 139 1.5 c 128,-1,18
 108 11 108 11 84.5 31 c 128,-1,19
 61 51 61 51 47.5 81.5 c 128,-1,20
 34 112 34 112 34 153 c 2,21,-1
 34 445 l 2,22,23
 34 464 34 464 43 477 c 128,-1,24
 52 490 52 490 71 490 c 0,25,26
 85 490 85 490 97 480 c 128,-1,27
 109 470 109 470 109 445 c 2,28,-1
 109 153 l 2,29,30
 109 139 109 139 112 123.5 c 128,-1,31
 115 108 115 108 125 95.5 c 128,-1,32
 135 83 135 83 154.5 74.5 c 128,-1,33
 174 66 174 66 206 66 c 0,34,35
 244 66 244 66 271.5 90 c 128,-1,36
 299 114 299 114 299 153 c 2,37,-1
 299 445 l 2,38,39
 299 463 299 463 308 476.5 c 128,-1,40
 317 490 317 490 336 490 c 0,41,42
 350 490 350 490 362 480 c 128,-1,43
 374 470 374 470 374 445 c 2,44,-1
 374 153 l 2,45,46
 374 121 374 121 388.5 103 c 128,-1,47
 403 85 403 85 420 77 c 128,-1,48
 437 69 437 69 452 67.5 c 128,-1,49
 466 66 466 66 467 66 c 0,50,51
 564 66 564 66 564 153 c 2,52,-1
 564 445 l 2,53,54
 564 464 564 464 572.5 477 c 128,-1,55
 581 490 581 490 602 490 c 0,56,57
 615 490 615 490 626.5 480 c 128,-1,58
 638 470 638 470 638 445 c 2,0,-1
EndSplineSet
EndChar
StartChar: X
Encoding: 88 88 57
Width: 467
Flags: W
Fore
439 462 m 0,0,1
 444 446 444 446 437 433 c 2,2,-1
 428 416 l 2,3,4
 421 403 421 403 406.5 376.5 c 128,-1,5
 392 350 392 350 365 301 c 0,6,7
 353 281 353 281 340.5 269.5 c 128,-1,8
 328 258 328 258 315 250 c 1,9,10
 328 241 328 241 340 229.5 c 128,-1,11
 352 218 352 218 364 197 c 2,12,13
 370 186 l 130,-1,14
 376 175 376 175 384 159 c 128,-1,15
 392 143 392 143 401 124 c 128,-1,16
 410 105 410 105 418 88.5 c 128,-1,17
 426 72 426 72 431.5 61 c 128,-1,18
 437 51 437 51 437 50 c 2,19,20
 445 36 445 36 439.5 21.5 c 128,-1,21
 434 7 434 7 420 0 c 256,22,23
 406 -7 406 -7 391.5 -2 c 128,-1,24
 377 3 377 3 370 17 c 0,25,26
 351 54 351 54 336 84 c 0,27,28
 323 110 323 110 312 132.5 c 128,-1,29
 301 155 301 155 299 160 c 1,30,31
 288 178 288 178 279 188 c 128,-1,32
 270 198 270 198 262.5 203.5 c 128,-1,33
 255 209 255 209 248 210 c 128,-1,34
 241 211 241 211 233 211 c 256,35,36
 225 211 225 211 218 210 c 128,-1,37
 211 209 211 209 203.5 203.5 c 128,-1,38
 196 198 196 198 187 188 c 128,-1,39
 178 178 178 178 167 160 c 2,40,-1
 96 17 l 2,41,42
 89 3 89 3 74.5 -2 c 128,-1,43
 60 -7 60 -7 46 0 c 256,44,45
 32 7 32 7 26.5 21.5 c 128,-1,46
 21 36 21 36 29 50 c 2,47,-1
 38 68 l 2,48,49
 45 82 45 82 59 111.5 c 128,-1,50
 73 141 73 141 101 196 c 0,51,52
 112 216 112 216 125 228.5 c 128,-1,53
 138 241 138 241 151 250 c 1,54,55
 138 258 138 258 125 270 c 128,-1,56
 112 282 112 282 101 302 c 2,57,-1
 92 318 l 2,58,59
 85 330 85 330 70 356.5 c 128,-1,60
 55 383 55 383 29 432 c 0,61,62
 21 446 21 446 26.5 461 c 128,-1,63
 32 476 32 476 46 484 c 0,64,65
 60 491 60 491 74.5 486 c 128,-1,66
 89 481 89 481 96 467 c 1,67,68
 96 465 96 465 104 450 c 0,69,70
 111 437 111 437 125.5 410 c 128,-1,71
 140 383 140 383 168 333 c 0,72,73
 178 315 178 315 186.5 305.5 c 128,-1,74
 195 296 195 296 202.5 291.5 c 128,-1,75
 210 287 210 287 217.5 286 c 128,-1,76
 225 285 225 285 233 285 c 256,77,78
 241 285 241 285 248.5 286 c 128,-1,79
 256 287 256 287 264 291.5 c 128,-1,80
 272 296 272 296 280.5 306 c 128,-1,81
 289 316 289 316 299 334 c 0,82,83
 300 335 300 335 308 350 c 0,84,85
 315 362 315 362 329 389 c 128,-1,86
 343 416 343 416 370 467 c 0,87,88
 377 481 377 481 391.5 486 c 128,-1,89
 406 491 406 491 420 484 c 0,90,91
 435 476 435 476 439 462 c 0,0,1
EndSplineSet
EndChar
StartChar: Y
Encoding: 89 89 58
Width: 471
Flags: W
Fore
432 138 m 1,0,1
 432 103 432 103 419 77 c 128,-1,2
 406 51 406 51 385.5 33.5 c 128,-1,3
 365 16 365 16 339 7 c 128,-1,4
 313 -2 313 -2 285 -2 c 2,5,-1
 148 -2 l 2,6,7
 129 -2 129 -2 116.5 6.5 c 128,-1,8
 104 15 104 15 104 35 c 256,9,10
 104 55 104 55 116.5 63.5 c 128,-1,11
 129 72 129 72 148 72 c 2,12,-1
 285 72 l 2,13,14
 314 72 314 72 336 90 c 128,-1,15
 358 108 358 108 358 138 c 2,16,-1
 358 182 l 1,17,18
 335 160 335 160 302.5 151 c 128,-1,19
 270 142 270 142 235 142 c 0,20,21
 185 142 185 142 148 156.5 c 128,-1,22
 111 171 111 171 86.5 197 c 128,-1,23
 62 223 62 223 49.5 258.5 c 128,-1,24
 37 294 37 294 37 337 c 2,25,-1
 37 442 l 2,26,27
 37 461 37 461 45.5 473.5 c 128,-1,28
 54 486 54 486 74 486 c 0,29,30
 93 486 93 486 102 473.5 c 128,-1,31
 111 461 111 461 111 442 c 2,32,-1
 110 334 l 2,33,34
 110 312 110 312 117.5 291 c 128,-1,35
 125 270 125 270 141 253.5 c 128,-1,36
 157 237 157 237 180 226.5 c 128,-1,37
 203 216 203 216 235 216 c 0,38,39
 285 216 285 216 319 237.5 c 128,-1,40
 353 259 353 259 358 307 c 2,41,-1
 358 442 l 2,42,43
 358 461 358 461 367 473.5 c 128,-1,44
 376 486 376 486 396 486 c 0,45,46
 414 486 414 486 423 473.5 c 128,-1,47
 432 461 432 461 432 442 c 2,48,-1
 432 138 l 1,49,-1
 432 138 l 1,0,1
EndSplineSet
EndChar
StartChar: Z
Encoding: 90 90 59
Width: 462
Flags: W
Fore
353 361 m 2,0,1
 361 366 361 366 365 375.5 c 128,-1,2
 369 385 369 385 367 393 c 0,3,4
 365 402 365 402 359 407.5 c 128,-1,5
 353 413 353 413 341 413 c 2,6,-1
 71 413 l 2,7,8
 53 413 53 413 39.5 422 c 128,-1,9
 26 431 26 431 26 449 c 0,10,11
 26 463 26 463 36 475 c 128,-1,12
 46 487 46 487 71 487 c 2,13,-1
 342 487 l 2,14,15
 384 487 384 487 408.5 463 c 128,-1,16
 433 439 433 439 439 409 c 0,17,18
 441 399 441 399 441 386 c 128,-1,19
 441 373 441 373 436.5 359 c 128,-1,20
 432 345 432 345 422.5 331.5 c 128,-1,21
 413 318 413 318 395 309 c 2,22,-1
 114 125 l 2,23,24
 106 120 106 120 102 110.5 c 128,-1,25
 98 101 98 101 100 93 c 0,26,27
 102 84 102 84 108 78.5 c 128,-1,28
 114 73 114 73 126 73 c 2,29,-1
 396 73 l 2,30,31
 414 73 414 73 427.5 64 c 128,-1,32
 441 55 441 55 441 37 c 0,33,34
 441 23 441 23 431 11 c 128,-1,35
 421 -1 421 -1 396 -1 c 2,36,-1
 125 -1 l 2,37,38
 83 -1 83 -1 58.5 23 c 128,-1,39
 34 47 34 47 28 77 c 0,40,41
 26 87 26 87 26 100 c 128,-1,42
 26 113 26 113 30.5 127 c 128,-1,43
 35 141 35 141 44.5 154.5 c 128,-1,44
 54 168 54 168 72 177 c 2,45,-1
 353 361 l 2,0,1
EndSplineSet
EndChar
StartChar: bracketleft
Encoding: 91 91 60
Width: 300
Flags: W
Fore
257 -83 m 0,0,1
 257 -100 257 -100 247.5 -111 c 128,-1,2
 238 -122 238 -122 221 -122 c 2,3,-1
 93 -122 l 2,4,5
 73 -122 73 -122 66 -110.5 c 128,-1,6
 59 -99 59 -99 60 -84 c 2,7,-1
 60 479 l 2,8,9
 60 493 60 493 66.5 505 c 128,-1,10
 73 517 73 517 93 517 c 2,11,-1
 221 517 l 2,12,13
 238 517 238 517 247.5 506 c 128,-1,14
 257 495 257 495 257 478 c 0,15,16
 257 460 257 460 245.5 451.5 c 128,-1,17
 234 443 234 443 221 443 c 2,18,-1
 134 443 l 1,19,-1
 134 -48 l 1,20,-1
 221 -48 l 2,21,22
 234 -48 234 -48 245.5 -56.5 c 128,-1,23
 257 -65 257 -65 257 -83 c 0,0,1
EndSplineSet
EndChar
StartChar: backslash
Encoding: 92 92 61
Width: 249
Flags: W
Fore
255 47 m 1,0,1
 261 33 261 33 257.5 19.5 c 128,-1,2
 254 6 254 6 240 0 c 0,3,4
 227 -6 227 -6 212 -1 c 128,-1,5
 197 4 197 4 191 18 c 2,6,-1
 -8 454 l 2,7,8
 -14 468 -14 468 -11 481.5 c 128,-1,9
 -8 495 -8 495 6 501 c 0,10,11
 19 508 19 508 34.5 502 c 128,-1,12
 50 496 50 496 56 484 c 2,13,-1
 255 47 l 1,14,-1
 255 47 l 1,0,1
EndSplineSet
EndChar
StartChar: bracketright
Encoding: 93 93 62
Width: 300
Flags: W
Fore
237 -84 m 1,0,1
 238 -99 238 -99 231 -110.5 c 128,-1,2
 224 -122 224 -122 204 -122 c 2,3,-1
 76 -122 l 2,4,5
 59 -122 59 -122 49.5 -111 c 128,-1,6
 40 -100 40 -100 40 -83 c 0,7,8
 40 -65 40 -65 51.5 -56.5 c 128,-1,9
 63 -48 63 -48 76 -48 c 2,10,-1
 163 -48 l 1,11,-1
 163 443 l 1,12,-1
 76 443 l 2,13,14
 63 443 63 443 51.5 451.5 c 128,-1,15
 40 460 40 460 40 478 c 0,16,17
 40 495 40 495 49.5 506 c 128,-1,18
 59 517 59 517 76 517 c 2,19,-1
 204 517 l 2,20,21
 224 517 224 517 230.5 505 c 128,-1,22
 237 493 237 493 237 479 c 2,23,-1
 237 -84 l 1,24,-1
 237 -84 l 1,0,1
EndSplineSet
EndChar
StartChar: asciicircum
Encoding: 94 94 63
Width: 488
Flags: W
Fore
389 176 m 0,0,1
 376 168 376 168 359.5 171.5 c 128,-1,2
 343 175 343 175 334 194 c 2,3,-1
 247 390 l 1,4,-1
 160 194 l 2,5,6
 151 177 151 177 136 173 c 128,-1,7
 121 169 121 169 107 177 c 256,8,9
 93 185 93 185 92 200.5 c 128,-1,10
 91 216 91 216 99 233 c 2,11,-1
 220 476 l 2,12,13
 226 486 226 486 233 489.5 c 128,-1,14
 240 493 240 493 248 493 c 256,15,16
 256 493 256 493 263 488.5 c 128,-1,17
 270 484 270 484 274 476 c 2,18,-1
 395 233 l 2,19,20
 403 216 403 216 403 200 c 128,-1,21
 403 184 403 184 389 176 c 0,0,1
EndSplineSet
EndChar
StartChar: underscore
Encoding: 95 95 64
Width: 500
Flags: W
Fore
0 -115 m 1,0,-1
 0 -50 l 1,1,-1
 500 -50 l 1,2,-1
 500 -115 l 1,3,-1
 0 -115 l 1,0,-1
EndSplineSet
EndChar
StartChar: grave
Encoding: 96 96 65
Width: 233
Flags: W
Fore
158 339 m 1,0,1
 158 314 158 314 146.5 304.5 c 128,-1,2
 135 295 135 295 121 295 c 0,3,4
 101 295 101 295 92.5 307.5 c 128,-1,5
 84 320 84 320 84 339 c 2,6,-1
 84 443 l 2,7,8
 84 462 84 462 92.5 474.5 c 128,-1,9
 101 487 101 487 121 487 c 0,10,11
 140 487 140 487 149 474 c 128,-1,12
 158 461 158 461 158 443 c 2,13,-1
 158 339 l 1,14,-1
 158 339 l 1,0,1
EndSplineSet
EndChar
StartChar: a
Encoding: 97 97 66
Width: 430
Flags: W
Fore
387 31 m 2,0,1
 387 15 387 15 375.5 5 c 128,-1,2
 364 -5 364 -5 350 -5 c 256,3,4
 336 -5 336 -5 326.5 5 c 128,-1,5
 317 15 317 15 319 31 c 1,6,7
 300 13 300 13 268 4 c 128,-1,8
 236 -5 236 -5 202 -5 c 0,9,10
 124 -5 124 -5 78 27.5 c 128,-1,11
 32 60 32 60 32 121 c 0,12,13
 32 148 32 148 44.5 172 c 128,-1,14
 57 196 57 196 80 213 c 128,-1,15
 103 230 103 230 135.5 240 c 128,-1,16
 168 250 168 250 208 250 c 0,17,18
 246 250 246 250 278.5 239 c 128,-1,19
 311 228 311 228 320 213 c 1,20,21
 318 238 318 238 309 253 c 128,-1,22
 300 268 300 268 285 276.5 c 128,-1,23
 270 285 270 285 248.5 288 c 128,-1,24
 227 291 227 291 201 291 c 0,25,26
 171 291 171 291 146.5 284 c 128,-1,27
 122 277 122 277 102 266 c 0,28,29
 81 254 81 254 70 260 c 128,-1,30
 59 266 59 266 56 270 c 0,31,32
 44 284 44 284 49 299.5 c 128,-1,33
 54 315 54 315 68 324 c 0,34,35
 123 360 123 360 199 360 c 0,36,37
 251 360 251 360 287 349 c 128,-1,38
 323 338 323 338 345 317 c 128,-1,39
 367 296 367 296 377 265.5 c 128,-1,40
 387 235 387 235 387 196 c 2,41,-1
 387 31 l 2,0,1
317 120 m 0,42,43
 317 140 317 140 307.5 152.5 c 128,-1,44
 298 165 298 165 282 172.5 c 128,-1,45
 266 180 266 180 246 182.5 c 128,-1,46
 226 185 226 185 205 185 c 0,47,48
 187 185 187 185 168.5 181 c 128,-1,49
 150 177 150 177 135 169.5 c 128,-1,50
 120 162 120 162 110.5 151 c 128,-1,51
 101 140 101 140 101 125 c 0,52,53
 100 108 100 108 108 95.5 c 128,-1,54
 116 83 116 83 130.5 74.5 c 128,-1,55
 145 66 145 66 163.5 62 c 128,-1,56
 182 58 182 58 202 58 c 0,57,58
 251 58 251 58 284 75 c 128,-1,59
 317 92 317 92 317 120 c 0,42,43
EndSplineSet
Substitution: 0 65534 'L026' uni0E38
Substitution: 0 65534 'L026' uni0E38
EndChar
StartChar: b
Encoding: 98 98 67
Width: 458
Flags: W
Fore
45 30 m 2,0,-1
 45 460 l 2,1,2
 45 517 45 517 44 530 c 0,3,4
 44 545 44 545 55.5 556 c 128,-1,5
 67 567 67 567 82 567 c 256,6,7
 97 567 97 567 107.5 556 c 128,-1,8
 118 545 118 545 118 530 c 2,9,-1
 118 318 l 1,10,11
 136 334 136 334 163 345 c 128,-1,12
 190 356 190 356 235 356 c 0,13,14
 279 356 279 356 314 342.5 c 128,-1,15
 349 329 349 329 373.5 305 c 128,-1,16
 398 281 398 281 411 248 c 128,-1,17
 424 215 424 215 424 176 c 256,18,19
 424 137 424 137 411.5 104 c 128,-1,20
 399 71 399 71 375 46.5 c 128,-1,21
 351 22 351 22 315.5 8.5 c 128,-1,22
 280 -5 280 -5 235 -5 c 0,23,24
 200 -5 200 -5 169 4.5 c 128,-1,25
 138 14 138 14 117 34 c 1,26,27
 118 19 118 19 109.5 6.5 c 128,-1,28
 101 -6 101 -6 82 -6 c 0,29,30
 67 -6 67 -6 56 4.5 c 128,-1,31
 45 15 45 15 45 30 c 2,0,-1
118 176 m 2,32,33
 118 120 118 120 150 94.5 c 128,-1,34
 182 69 182 69 235 69 c 256,35,36
 288 69 288 69 320 95.5 c 128,-1,37
 352 122 352 122 352 176 c 0,38,39
 352 226 352 226 320.5 254.5 c 128,-1,40
 289 283 289 283 235 283 c 0,41,42
 189 283 189 283 154.5 256.5 c 128,-1,43
 120 230 120 230 118 177 c 2,44,-1
 118 176 l 2,32,33
EndSplineSet
Substitution: 0 65534 'L026' uni0E39
Substitution: 0 65534 'L026' uni0E39
EndChar
StartChar: c
Encoding: 99 99 68
Width: 404
Flags: W
Fore
369 56 m 0,0,1
 360 41 360 41 343 28 c 128,-1,2
 326 15 326 15 303 6 c 128,-1,3
 280 -3 280 -3 252 -7 c 128,-1,4
 224 -11 224 -11 193 -6 c 0,5,6
 116 5 116 5 74.5 51 c 128,-1,7
 33 97 33 97 33 172 c 0,8,9
 33 217 33 217 47.5 249.5 c 128,-1,10
 62 282 62 282 85 304.5 c 128,-1,11
 108 327 108 327 136.5 339.5 c 128,-1,12
 165 352 165 352 193 356 c 0,13,14
 224 360 224 360 252 356 c 128,-1,15
 280 352 280 352 303 343 c 128,-1,16
 326 334 326 334 343 321 c 128,-1,17
 360 308 360 308 369 293 c 0,18,19
 377 280 377 280 374 265.5 c 128,-1,20
 371 251 371 251 358 243 c 256,21,22
 345 235 345 235 330.5 238.5 c 128,-1,23
 316 242 316 242 308 255 c 0,24,25
 305 259 305 259 296.5 266 c 128,-1,26
 288 273 288 273 274.5 278 c 128,-1,27
 261 283 261 283 242.5 286 c 128,-1,28
 224 289 224 289 203 286 c 0,29,30
 194 285 194 285 178 280 c 128,-1,31
 162 275 162 275 145.5 262 c 128,-1,32
 129 249 129 249 117 227.5 c 128,-1,33
 105 206 105 206 105 172 c 0,34,35
 105 126 105 126 129.5 98 c 128,-1,36
 154 70 154 70 203 62 c 0,37,38
 224 59 224 59 242.5 62 c 128,-1,39
 261 65 261 65 274.5 71 c 128,-1,40
 288 77 288 77 296.5 83.5 c 128,-1,41
 305 90 305 90 308 95 c 0,42,43
 316 107 316 107 330.5 110.5 c 128,-1,44
 345 114 345 114 358 106 c 256,45,46
 371 98 371 98 374 83.5 c 128,-1,47
 377 69 377 69 369 56 c 0,0,1
EndSplineSet
Substitution: 0 65534 'L026' uni0E3A
Substitution: 0 65534 'L026' uni0E3A
EndChar
StartChar: d
Encoding: 100 100 69
Width: 458
Flags: W
Fore
412 30 m 0,0,1
 412 15 412 15 401 4.5 c 128,-1,2
 390 -6 390 -6 375 -6 c 0,3,4
 356 -6 356 -6 347.5 6.5 c 128,-1,5
 339 19 339 19 340 34 c 1,6,7
 319 14 319 14 288 4.5 c 128,-1,8
 257 -5 257 -5 222 -5 c 0,9,10
 177 -5 177 -5 141.5 8.5 c 128,-1,11
 106 22 106 22 82 46.5 c 128,-1,12
 58 71 58 71 45.5 104 c 128,-1,13
 33 137 33 137 33 176 c 256,14,15
 33 215 33 215 46 248 c 128,-1,16
 59 281 59 281 83.5 305 c 128,-1,17
 108 329 108 329 143 342.5 c 128,-1,18
 178 356 178 356 222 356 c 0,19,20
 267 356 267 356 294 345 c 128,-1,21
 321 334 321 334 339 318 c 1,22,-1
 339 530 l 2,23,24
 339 545 339 545 349.5 556 c 128,-1,25
 360 567 360 567 375 567 c 256,26,27
 390 567 390 567 401 556 c 128,-1,28
 412 545 412 545 412 530 c 2,29,-1
 412 460 l 2,30,31
 412 436 412 436 412 399.5 c 128,-1,32
 412 363 412 363 412 311 c 128,-1,33
 412 259 412 259 412 189.5 c 128,-1,34
 412 120 412 120 412 30 c 0,0,1
339 177 m 2,35,36
 337 230 337 230 302.5 256.5 c 128,-1,37
 268 283 268 283 222 283 c 0,38,39
 168 283 168 283 136.5 254.5 c 128,-1,40
 105 226 105 226 105 176 c 0,41,42
 105 122 105 122 137 95.5 c 128,-1,43
 169 69 169 69 222 69 c 256,44,45
 275 69 275 69 307 94.5 c 128,-1,46
 339 120 339 120 339 176 c 2,47,-1
 339 177 l 2,35,36
EndSplineSet
EndChar
StartChar: e
Encoding: 101 101 70
Width: 438
Flags: W
Fore
396 184 m 0,0,1
 387 164 387 164 367.5 157.5 c 128,-1,2
 348 151 348 151 328 151 c 2,3,-1
 107 151 l 1,4,5
 112 107 112 107 145 84 c 128,-1,6
 178 61 178 61 223 61 c 0,7,8
 256 61 256 61 278.5 69.5 c 128,-1,9
 301 78 301 78 315 92 c 0,10,11
 330 107 330 107 343.5 107.5 c 128,-1,12
 357 108 357 108 366 100 c 0,13,14
 379 90 379 90 378.5 73.5 c 128,-1,15
 378 57 378 57 365 46 c 0,16,17
 339 23 339 23 306.5 9 c 128,-1,18
 274 -5 274 -5 224 -5 c 0,19,20
 138 -5 138 -5 86 41.5 c 128,-1,21
 34 88 34 88 34 180 c 0,22,23
 34 221 34 221 48.5 254.5 c 128,-1,24
 63 288 63 288 88.5 311.5 c 128,-1,25
 114 335 114 335 149 348 c 128,-1,26
 184 361 184 361 224 361 c 0,27,28
 275 361 275 361 307.5 345 c 128,-1,29
 340 329 340 329 357 312 c 0,30,31
 376 292 376 292 385.5 272.5 c 128,-1,32
 395 253 395 253 398 235.5 c 128,-1,33
 401 218 401 218 400 204.5 c 128,-1,34
 399 191 399 191 396 184 c 0,0,1
332 217 m 1,35,36
 325 249 325 249 301 272.5 c 128,-1,37
 277 296 277 296 226 296 c 0,38,39
 198 296 198 296 177 288 c 128,-1,40
 156 280 156 280 142 268 c 128,-1,41
 128 256 128 256 120.5 242 c 128,-1,42
 113 228 113 228 112 217 c 1,43,-1
 332 217 l 1,35,36
EndSplineSet
EndChar
StartChar: f
Encoding: 102 102 71
Width: 252
Flags: W
Fore
301 537 m 0,0,1
 301 523 301 523 291 511.5 c 128,-1,2
 281 500 281 500 258 500 c 2,3,-1
 194 500 l 2,4,5
 159 500 159 500 141.5 479 c 128,-1,6
 124 458 124 458 124 424 c 2,7,-1
 124 337 l 1,8,9
 127 348 127 348 141 353 c 128,-1,10
 155 358 155 358 172 358 c 2,11,-1
 197 358 l 2,12,13
 220 358 220 358 230 346 c 128,-1,14
 240 334 240 334 240 324 c 0,15,16
 240 310 240 310 230.5 297.5 c 128,-1,17
 221 285 221 285 197 285 c 2,18,-1
 166 285 l 2,19,20
 138 285 138 285 131 271 c 128,-1,21
 124 257 124 257 124 240 c 2,22,-1
 124 41 l 2,23,24
 124 17 124 17 112.5 7 c 128,-1,25
 101 -3 101 -3 88 -3 c 0,26,27
 68 -3 68 -3 60 10.5 c 128,-1,28
 52 24 52 24 52 41 c 2,29,-1
 52 424 l 2,30,31
 52 455 52 455 61.5 482.5 c 128,-1,32
 71 510 71 510 89.5 530 c 128,-1,33
 108 550 108 550 134.5 561.5 c 128,-1,34
 161 573 161 573 194 573 c 2,35,-1
 258 573 l 2,36,37
 275 573 275 573 288 564.5 c 128,-1,38
 301 556 301 556 301 537 c 0,0,1
EndSplineSet
EndChar
StartChar: g
Encoding: 103 103 72
Width: 453
Flags: W
Fore
411 -4 m 2,0,1
 411 -66 411 -66 378 -109.5 c 128,-1,2
 345 -153 345 -153 286 -170 c 0,3,4
 257 -178 257 -178 228 -177.5 c 128,-1,5
 199 -177 199 -177 173 -170 c 128,-1,6
 147 -163 147 -163 126.5 -149.5 c 128,-1,7
 106 -136 106 -136 95 -117 c 0,8,9
 87 -104 87 -104 90 -91 c 128,-1,10
 93 -78 93 -78 104 -70 c 0,11,12
 117 -60 117 -60 133.5 -64 c 128,-1,13
 150 -68 150 -68 157 -81 c 0,14,15
 161 -87 161 -87 171.5 -93 c 128,-1,16
 182 -99 182 -99 197 -102 c 128,-1,17
 212 -105 212 -105 230.5 -105 c 128,-1,18
 249 -105 249 -105 267 -100 c 0,19,20
 279 -97 279 -97 292 -90.5 c 128,-1,21
 305 -84 305 -84 315.5 -72.5 c 128,-1,22
 326 -61 326 -61 332.5 -44.5 c 128,-1,23
 339 -28 339 -28 339 -4 c 2,24,-1
 339 44 l 1,25,26
 316 21 316 21 285 10 c 128,-1,27
 254 -1 254 -1 222 -1 c 0,28,29
 179 -1 179 -1 144 12 c 128,-1,30
 109 25 109 25 84 48.5 c 128,-1,31
 59 72 59 72 45.5 105.5 c 128,-1,32
 32 139 32 139 32 180 c 0,33,34
 32 222 32 222 46 256 c 128,-1,35
 60 290 60 290 85 313 c 128,-1,36
 110 336 110 336 145 348.5 c 128,-1,37
 180 361 180 361 222 361 c 0,38,39
 256 361 256 361 286.5 350.5 c 128,-1,40
 317 340 317 340 339 321 c 1,41,42
 338 335 338 335 346.5 348.5 c 128,-1,43
 355 362 355 362 375 362 c 256,44,45
 395 362 395 362 404 347 c 128,-1,46
 413 332 413 332 411 318 c 1,47,-1
 411 -4 l 2,0,1
339 180 m 0,48,49
 339 202 339 202 331 221.5 c 128,-1,50
 323 241 323 241 307.5 255.5 c 128,-1,51
 292 270 292 270 270.5 278.5 c 128,-1,52
 249 287 249 287 222 287 c 0,53,54
 168 287 168 287 136 260 c 128,-1,55
 104 233 104 233 104 180 c 0,56,57
 104 125 104 125 136.5 99 c 128,-1,58
 169 73 169 73 222 73 c 0,59,60
 281 73 281 73 310 103.5 c 128,-1,61
 339 134 339 134 339 180 c 0,48,49
EndSplineSet
EndChar
StartChar: h
Encoding: 104 104 73
Width: 450
Flags: W
Fore
405 32 m 1,0,1
 405 17 405 17 394.5 6 c 128,-1,2
 384 -5 384 -5 369 -5 c 256,3,4
 354 -5 354 -5 343.5 6.5 c 128,-1,5
 333 18 333 18 333 32 c 2,6,-1
 333 179 l 2,7,8
 333 232 333 232 310 259 c 128,-1,9
 287 286 287 286 225 286 c 0,10,11
 204 286 204 286 184.5 278.5 c 128,-1,12
 165 271 165 271 150 257 c 128,-1,13
 135 243 135 243 126 223 c 128,-1,14
 117 203 117 203 118 179 c 2,15,-1
 118 159 l 2,16,17
 118 145 118 145 117.5 115.5 c 128,-1,18
 117 86 117 86 117 32 c 0,19,20
 117 17 117 17 106.5 6 c 128,-1,21
 96 -5 96 -5 81 -5 c 0,22,23
 65 -5 65 -5 55 6 c 128,-1,24
 45 17 45 17 45 32 c 2,25,-1
 45 545 l 2,26,27
 45 561 45 561 55 571 c 128,-1,28
 65 581 65 581 81 581 c 0,29,30
 95 581 95 581 106 570.5 c 128,-1,31
 117 560 117 560 117 545 c 2,32,-1
 117 311 l 1,33,34
 124 321 124 321 136 330 c 128,-1,35
 148 339 148 339 162.5 345.5 c 128,-1,36
 177 352 177 352 193.5 356 c 128,-1,37
 210 360 210 360 225 360 c 0,38,39
 271 360 271 360 304.5 346.5 c 128,-1,40
 338 333 338 333 360.5 309 c 128,-1,41
 383 285 383 285 394 251.5 c 128,-1,42
 405 218 405 218 405 179 c 2,43,-1
 405 32 l 1,44,-1
 405 32 l 1,0,1
EndSplineSet
EndChar
StartChar: i
Encoding: 105 105 74
Width: 161
Flags: W
Fore
116 40 m 2,0,-1
 116 314 l 2,1,2
 116 333 116 333 108 345.5 c 128,-1,3
 100 358 100 358 81 358 c 0,4,5
 61 358 61 358 53 345 c 128,-1,6
 45 332 45 332 45 314 c 2,7,-1
 45 40 l 2,8,9
 45 22 45 22 53 9 c 128,-1,10
 61 -4 61 -4 81 -4 c 0,11,12
 94 -4 94 -4 105 6 c 128,-1,13
 116 16 116 16 116 40 c 2,0,-1
124 443 m 0,14,15
 124 422 124 422 112.5 409.5 c 128,-1,16
 101 397 101 397 80 397 c 0,17,18
 58 397 58 397 46.5 409.5 c 128,-1,19
 35 422 35 422 35 443 c 0,20,21
 35 463 35 463 46.5 475 c 128,-1,22
 58 487 58 487 80 487 c 0,23,24
 97 487 97 487 110.5 477.5 c 128,-1,25
 124 468 124 468 124 443 c 0,14,15
EndSplineSet
EndChar
StartChar: j
Encoding: 106 106 75
Width: 162
Flags: W
Fore
117 -46 m 2,0,-1
 117 316 l 2,1,2
 117 334 117 334 108 346.5 c 128,-1,3
 99 359 99 359 81 359 c 256,4,5
 63 359 63 359 54 346 c 128,-1,6
 45 333 45 333 45 316 c 2,7,-1
 45 -46 l 2,8,9
 45 -69 45 -69 43.5 -85.5 c 128,-1,10
 42 -102 42 -102 36 -113 c 128,-1,11
 30 -124 30 -124 18.5 -129 c 128,-1,12
 7 -134 7 -134 -14 -134 c 0,13,14
 -30 -134 -30 -134 -40 -144 c 128,-1,15
 -50 -154 -50 -154 -50 -170 c 0,16,17
 -50 -185 -50 -185 -39.5 -195.5 c 128,-1,18
 -29 -206 -29 -206 -14 -206 c 0,19,20
 58 -206 58 -206 88 -163.5 c 128,-1,21
 118 -121 118 -121 117 -46 c 2,0,-1
124 444 m 0,22,23
 124 423 124 423 112.5 410.5 c 128,-1,24
 101 398 101 398 80 398 c 0,25,26
 58 398 58 398 46.5 410.5 c 128,-1,27
 35 423 35 423 35 444 c 0,28,29
 35 464 35 464 46.5 476 c 128,-1,30
 58 488 58 488 80 488 c 0,31,32
 97 488 97 488 110.5 478.5 c 128,-1,33
 124 469 124 469 124 444 c 0,22,23
EndSplineSet
EndChar
StartChar: k
Encoding: 107 107 76
Width: 381
Flags: W
Fore
374 342 m 0,0,1
 389 319 389 319 368 298 c 1,2,-1
 368 299 l 1,3,4
 363 294 363 294 340.5 282 c 128,-1,5
 318 270 318 270 260 240 c 1,6,7
 278 225 278 225 295 203.5 c 128,-1,8
 312 182 312 182 327 156 c 128,-1,9
 342 130 342 130 353.5 100 c 128,-1,10
 365 70 365 70 371 37 c 0,11,12
 373 22 373 22 365 9.5 c 128,-1,13
 357 -3 357 -3 342 -5 c 0,14,15
 327 -8 327 -8 314.5 0.5 c 128,-1,16
 302 9 302 9 300 24 c 0,17,18
 288 86 288 86 258.5 135 c 128,-1,19
 229 184 229 184 196 207 c 1,20,-1
 116 161 l 1,21,-1
 116 40 l 2,22,23
 116 15 116 15 104.5 5 c 128,-1,24
 93 -5 93 -5 80 -5 c 0,25,26
 60 -5 60 -5 52 8.5 c 128,-1,27
 44 22 44 22 44 39 c 2,28,-1
 44 525 l 2,29,30
 44 543 44 543 52 556 c 128,-1,31
 60 569 60 569 80 569 c 0,32,33
 99 569 99 569 107.5 556.5 c 128,-1,34
 116 544 116 544 116 525 c 2,35,-1
 116 237 l 1,36,37
 195 277 195 277 239.5 300.5 c 128,-1,38
 284 324 284 324 306 337 c 0,39,40
 332 352 332 352 338 357 c 1,41,42
 349 360 349 360 359 355.5 c 128,-1,43
 369 351 369 351 374 342 c 0,0,1
EndSplineSet
EndChar
StartChar: l
Encoding: 108 108 77
Width: 162
Flags: W
Fore
117 43 m 1,0,1
 117 19 117 19 106 9 c 128,-1,2
 95 -1 95 -1 82 -1 c 0,3,4
 62 -1 62 -1 53.5 12 c 128,-1,5
 45 25 45 25 45 43 c 2,6,-1
 45 531 l 2,7,8
 45 549 45 549 53.5 562 c 128,-1,9
 62 575 62 575 82 575 c 0,10,11
 99 575 99 575 108 561.5 c 128,-1,12
 117 548 117 548 117 531 c 2,13,-1
 117 43 l 1,14,-1
 117 43 l 1,0,1
EndSplineSet
EndChar
StartChar: m
Encoding: 109 109 78
Width: 633
Flags: W
Fore
592 36 m 2,0,1
 592 21 592 21 581.5 10 c 128,-1,2
 571 -1 571 -1 556 -1 c 0,3,4
 542 -1 542 -1 530.5 10.5 c 128,-1,5
 519 22 519 22 520 36 c 2,6,-1
 520 193 l 2,7,8
 520 212 520 212 517 230 c 128,-1,9
 514 248 514 248 505 262 c 128,-1,10
 496 276 496 276 480 285 c 128,-1,11
 464 294 464 294 437 294 c 0,12,13
 422 294 422 294 407.5 289.5 c 128,-1,14
 393 285 393 285 381 276 c 128,-1,15
 369 267 369 267 361.5 254.5 c 128,-1,16
 354 242 354 242 354 226 c 2,17,-1
 354 36 l 2,18,19
 354 21 354 21 343 10 c 128,-1,20
 332 -1 332 -1 318 -1 c 0,21,22
 303 -1 303 -1 292 10 c 128,-1,23
 281 21 281 21 281 36 c 2,24,-1
 281 226 l 2,25,26
 281 255 281 255 258 274.5 c 128,-1,27
 235 294 235 294 203 294 c 0,28,29
 153 294 153 294 133.5 265 c 128,-1,30
 114 236 114 236 115 193 c 2,31,-1
 115 36 l 2,32,33
 115 21 115 21 104.5 10 c 128,-1,34
 94 -1 94 -1 79 -1 c 0,35,36
 65 -1 65 -1 54 10.5 c 128,-1,37
 43 22 43 22 43 36 c 2,38,-1
 43 326 l 2,39,40
 43 340 43 340 54 351.5 c 128,-1,41
 65 363 65 363 79 363 c 0,42,43
 94 363 94 363 104.5 351.5 c 128,-1,44
 115 340 115 340 115 326 c 2,45,-1
 115 319 l 1,46,47
 126 339 126 339 152.5 351 c 128,-1,48
 179 363 179 363 203 363 c 0,49,50
 238 363 238 363 268 349.5 c 128,-1,51
 298 336 298 336 319 308 c 1,52,53
 326 320 326 320 339.5 330.5 c 128,-1,54
 353 341 353 341 369 348 c 128,-1,55
 385 355 385 355 402.5 359 c 128,-1,56
 420 363 420 363 437 363 c 0,57,58
 473 363 473 363 501.5 354 c 128,-1,59
 530 345 530 345 550 325 c 128,-1,60
 570 305 570 305 581 273 c 128,-1,61
 592 241 592 241 592 194 c 2,62,-1
 592 36 l 2,0,1
EndSplineSet
EndChar
StartChar: n
Encoding: 110 110 79
Width: 450
Flags: W
Fore
405 36 m 1,0,1
 405 21 405 21 394.5 10 c 128,-1,2
 384 -1 384 -1 369 -1 c 0,3,4
 355 -1 355 -1 344 10.5 c 128,-1,5
 333 22 333 22 333 36 c 2,6,-1
 333 182 l 2,7,8
 333 230 333 230 307.5 259.5 c 128,-1,9
 282 289 282 289 226 289 c 0,10,11
 118 289 118 289 118 179 c 2,12,-1
 118 36 l 2,13,14
 118 21 118 21 107.5 10 c 128,-1,15
 97 -1 97 -1 82 -1 c 0,16,17
 68 -1 68 -1 57 10.5 c 128,-1,18
 46 22 46 22 46 36 c 2,19,-1
 45 325 l 2,20,21
 45 339 45 339 56 350.5 c 128,-1,22
 67 362 67 362 81 362 c 0,23,24
 96 362 96 362 107 351 c 128,-1,25
 118 340 118 340 118 325 c 2,26,-1
 118 314 l 1,27,28
 138 336 138 336 166 349.5 c 128,-1,29
 194 363 194 363 226 363 c 0,30,31
 270 363 270 363 303.5 350 c 128,-1,32
 337 337 337 337 359.5 313 c 128,-1,33
 382 289 382 289 393.5 255.5 c 128,-1,34
 405 222 405 222 405 182 c 2,35,-1
 405 36 l 1,36,-1
 405 36 l 1,0,1
EndSplineSet
EndChar
StartChar: o
Encoding: 111 111 80
Width: 448
Flags: W
Fore
413 182 m 0,0,1
 413 100 413 100 362 50.5 c 128,-1,2
 311 1 311 1 223 1 c 0,3,4
 138 1 138 1 86 49 c 128,-1,5
 34 97 34 97 34 182 c 0,6,7
 34 224 34 224 48 257.5 c 128,-1,8
 62 291 62 291 86.5 314.5 c 128,-1,9
 111 338 111 338 146 350.5 c 128,-1,10
 181 363 181 363 223 363 c 0,11,12
 272 363 272 363 308 347 c 128,-1,13
 344 331 344 331 367 305 c 128,-1,14
 390 279 390 279 401.5 247 c 128,-1,15
 413 215 413 215 413 182 c 0,0,1
343 182 m 0,16,17
 343 227 343 227 314 259 c 128,-1,18
 285 291 285 291 223 291 c 0,19,20
 164 291 164 291 134 262.5 c 128,-1,21
 104 234 104 234 104 182 c 0,22,23
 104 127 104 127 136 100 c 128,-1,24
 168 73 168 73 223 73 c 0,25,26
 282 73 282 73 312.5 102.5 c 128,-1,27
 343 132 343 132 343 182 c 0,16,17
EndSplineSet
EndChar
StartChar: p
Encoding: 112 112 81
Width: 458
Flags: W
Fore
423 179 m 0,0,1
 423 94 423 94 373.5 46.5 c 128,-1,2
 324 -1 324 -1 233 -1 c 0,3,4
 197 -1 197 -1 167.5 9 c 128,-1,5
 138 19 138 19 117 36 c 1,6,-1
 117 -175 l 2,7,8
 117 -191 117 -191 106 -201.5 c 128,-1,9
 95 -212 95 -212 80 -212 c 0,10,11
 66 -212 66 -212 54 -201 c 128,-1,12
 42 -190 42 -190 43 -175 c 2,13,-1
 43 324 l 2,14,15
 43 338 43 338 54 349.5 c 128,-1,16
 65 361 65 361 79 361 c 0,17,18
 94 361 94 361 104.5 350 c 128,-1,19
 115 339 115 339 115 324 c 2,20,-1
 115 312 l 1,21,22
 135 334 135 334 165.5 347 c 128,-1,23
 196 360 196 360 233 360 c 0,24,25
 321 360 321 360 372 313.5 c 128,-1,26
 423 267 423 267 423 179 c 0,0,1
350 179 m 0,27,28
 350 227 350 227 320 256.5 c 128,-1,29
 290 286 290 286 233 286 c 0,30,31
 178 286 178 286 148.5 259.5 c 128,-1,32
 119 233 119 233 116 185 c 0,33,34
 113 133 113 133 143 102.5 c 128,-1,35
 173 72 173 72 233 72 c 0,36,37
 291 72 291 72 320.5 100 c 128,-1,38
 350 128 350 128 350 179 c 0,27,28
EndSplineSet
EndChar
StartChar: q
Encoding: 113 113 82
Width: 458
Flags: W
Fore
412 -175 m 2,0,1
 412 -191 412 -191 401 -201.5 c 128,-1,2
 390 -212 390 -212 376 -212 c 0,3,4
 359 -212 359 -212 349.5 -201.5 c 128,-1,5
 340 -191 340 -191 340 -175 c 2,6,-1
 340 36 l 1,7,8
 317 18 317 18 286.5 8.5 c 128,-1,9
 256 -1 256 -1 223 -1 c 0,10,11
 182 -1 182 -1 147 12 c 128,-1,12
 112 25 112 25 86.5 49 c 128,-1,13
 61 73 61 73 47 106 c 128,-1,14
 33 139 33 139 33 179 c 0,15,16
 33 221 33 221 47 254.5 c 128,-1,17
 61 288 61 288 86.5 311.5 c 128,-1,18
 112 335 112 335 147 347.5 c 128,-1,19
 182 360 182 360 223 360 c 0,20,21
 257 360 257 360 287.5 349.5 c 128,-1,22
 318 339 318 339 341 317 c 1,23,-1
 341 324 l 2,24,25
 341 339 341 339 351.5 350 c 128,-1,26
 362 361 362 361 377 361 c 0,27,28
 391 361 391 361 402.5 349.5 c 128,-1,29
 414 338 414 338 413 324 c 2,30,-1
 412 -175 l 2,0,1
340 185 m 1,31,32
 341 232 341 232 307.5 259 c 128,-1,33
 274 286 274 286 223 286 c 0,34,35
 169 286 169 286 137.5 257.5 c 128,-1,36
 106 229 106 229 106 179 c 0,37,38
 106 131 106 131 137.5 101.5 c 128,-1,39
 169 72 169 72 223 72 c 0,40,41
 280 72 280 72 313.5 102.5 c 128,-1,42
 347 133 347 133 340 185 c 1,31,32
EndSplineSet
EndChar
StartChar: r
Encoding: 114 114 83
Width: 298
Flags: W
Fore
38 314 m 2,0,1
 38 333 38 333 46 345.5 c 128,-1,2
 54 358 54 358 74 358 c 0,3,4
 93 358 93 358 101.5 345.5 c 128,-1,5
 110 333 110 333 110 314 c 2,6,-1
 110 297 l 1,7,8
 129 322 129 322 159.5 340 c 128,-1,9
 190 358 190 358 232 358 c 2,10,-1
 247 358 l 2,11,12
 264 358 264 358 277 350 c 128,-1,13
 290 342 290 342 290 322 c 0,14,15
 290 308 290 308 280.5 296.5 c 128,-1,16
 271 285 271 285 247 285 c 2,17,-1
 223 285 l 1,18,19
 188 280 188 280 166 265 c 128,-1,20
 144 250 144 250 131.5 229 c 128,-1,21
 119 208 119 208 114.5 182.5 c 128,-1,22
 110 157 110 157 110 133 c 2,23,-1
 110 36 l 2,24,25
 110 21 110 21 99.5 10 c 128,-1,26
 89 -1 89 -1 74 -1 c 0,27,28
 60 -1 60 -1 49 10.5 c 128,-1,29
 38 22 38 22 38 36 c 2,30,-1
 38 314 l 2,0,1
EndSplineSet
EndChar
StartChar: s
Encoding: 115 115 84
Width: 361
Flags: W
Fore
319 257 m 0,0,1
 305 245 305 245 287 248.5 c 128,-1,2
 269 252 269 252 261 263 c 0,3,4
 247 283 247 283 222 292 c 128,-1,5
 197 301 197 301 173 300 c 128,-1,6
 149 299 149 299 132 288.5 c 128,-1,7
 115 278 115 278 117 260 c 0,8,9
 118 247 118 247 133 237.5 c 128,-1,10
 148 228 148 228 166 221 c 128,-1,11
 184 214 184 214 199.5 210 c 128,-1,12
 215 206 215 206 218 205 c 0,13,14
 234 200 234 200 251.5 193.5 c 128,-1,15
 269 187 269 187 284.5 177.5 c 128,-1,16
 300 168 300 168 312 155.5 c 128,-1,17
 324 143 324 143 328 127 c 0,18,19
 337 92 337 92 326.5 65.5 c 128,-1,20
 316 39 316 39 293.5 21.5 c 128,-1,21
 271 4 271 4 239 -4.5 c 128,-1,22
 207 -13 207 -13 174 -12 c 0,23,24
 148 -12 148 -12 125 -4.5 c 128,-1,25
 102 3 102 3 83.5 15 c 128,-1,26
 65 27 65 27 52 42 c 128,-1,27
 39 57 39 57 33 73 c 0,28,29
 27 87 27 87 33 102.5 c 128,-1,30
 39 118 39 118 54 123 c 0,31,32
 69 127 69 127 83 121 c 128,-1,33
 97 115 97 115 103 101 c 0,34,35
 113 78 113 78 137 65.5 c 128,-1,36
 161 53 161 53 180 52 c 0,37,38
 193 51 193 51 208.5 54 c 128,-1,39
 224 57 224 57 236 63 c 128,-1,40
 248 69 248 69 254.5 79 c 128,-1,41
 261 89 261 89 258 103 c 0,42,43
 255 116 255 116 236 126 c 128,-1,44
 217 136 217 136 193 144.5 c 128,-1,45
 169 153 169 153 146 159 c 128,-1,46
 123 165 123 165 111 170 c 0,47,48
 85 180 85 180 68.5 198 c 128,-1,49
 52 216 52 216 46 237.5 c 128,-1,50
 40 259 40 259 45.5 282 c 128,-1,51
 51 305 51 305 71 325 c 0,52,53
 93 347 93 347 129 357.5 c 128,-1,54
 165 368 165 368 203 365.5 c 128,-1,55
 241 363 241 363 274.5 347.5 c 128,-1,56
 308 332 308 332 325 304 c 0,57,58
 333 291 333 291 331 278 c 128,-1,59
 329 265 329 265 319 257 c 0,0,1
EndSplineSet
EndChar
StartChar: t
Encoding: 116 116 85
Width: 278
Flags: W
Fore
275 36 m 0,0,1
 275 23 275 23 265.5 11.5 c 128,-1,2
 256 0 256 0 232 0 c 2,3,-1
 197 0 l 2,4,5
 129 0 129 0 87 36 c 128,-1,6
 45 72 45 72 45 149 c 2,7,-1
 45 521 l 2,8,9
 45 540 45 540 53.5 552.5 c 128,-1,10
 62 565 62 565 82 565 c 0,11,12
 100 565 100 565 108.5 552.5 c 128,-1,13
 117 540 117 540 117 521 c 2,14,-1
 117 358 l 1,15,-1
 190 358 l 2,16,17
 208 358 208 358 220.5 349.5 c 128,-1,18
 233 341 233 341 233 321 c 0,19,20
 233 307 233 307 223.5 296 c 128,-1,21
 214 285 214 285 190 285 c 2,22,-1
 117 285 l 1,23,-1
 117 149 l 2,24,25
 117 110 117 110 138 91.5 c 128,-1,26
 159 73 159 73 197 73 c 2,27,-1
 232 73 l 2,28,29
 250 73 250 73 262.5 64.5 c 128,-1,30
 275 56 275 56 275 36 c 0,0,1
EndSplineSet
EndChar
StartChar: u
Encoding: 117 117 86
Width: 447
Flags: W
Fore
403 33 m 1,0,1
 403 17 403 17 392.5 6.5 c 128,-1,2
 382 -4 382 -4 367 -4 c 0,3,4
 353 -4 353 -4 341.5 5.5 c 128,-1,5
 330 15 330 15 331 30 c 2,6,-1
 331 38 l 1,7,8
 310 18 310 18 282.5 6.5 c 128,-1,9
 255 -5 255 -5 223 -5 c 0,10,11
 134 -5 134 -5 88.5 45 c 128,-1,12
 43 95 43 95 43 176 c 2,13,-1
 43 322 l 2,14,15
 43 337 43 337 54 347.5 c 128,-1,16
 65 358 65 358 79 358 c 0,17,18
 95 358 95 358 105 348 c 128,-1,19
 115 338 115 338 115 322 c 2,20,-1
 115 176 l 2,21,22
 115 127 115 127 141.5 98 c 128,-1,23
 168 69 168 69 223 69 c 0,24,25
 279 69 279 69 305 94.5 c 128,-1,26
 331 120 331 120 331 176 c 2,27,-1
 331 322 l 2,28,29
 331 337 331 337 341.5 347.5 c 128,-1,30
 352 358 352 358 367 358 c 0,31,32
 381 358 381 358 392.5 347.5 c 128,-1,33
 404 337 404 337 403 322 c 2,34,-1
 403 33 l 1,35,-1
 403 33 l 1,0,1
EndSplineSet
EndChar
StartChar: v
Encoding: 118 118 87
Width: 400
Flags: W
Fore
387 310 m 0,0,1
 386 306 386 306 377 280 c 0,2,3
 373 269 373 269 367.5 252 c 128,-1,4
 362 235 362 235 353.5 210 c 128,-1,5
 345 185 345 185 333 152 c 128,-1,6
 321 119 321 119 306 75 c 0,7,8
 303 66 303 66 296 52.5 c 128,-1,9
 289 39 289 39 276.5 26.5 c 128,-1,10
 264 14 264 14 245 4.5 c 128,-1,11
 226 -5 226 -5 199 -5 c 256,12,13
 172 -5 172 -5 153.5 4 c 128,-1,14
 135 13 135 13 122.5 26 c 128,-1,15
 110 39 110 39 103 52.5 c 128,-1,16
 96 66 96 66 92 74 c 1,17,-1
 92 75 l 1,18,-1
 11 310 l 2,19,20
 6 324 6 324 12.5 337.5 c 128,-1,21
 19 351 19 351 33 356 c 0,22,23
 47 362 47 362 61 355 c 128,-1,24
 75 348 75 348 80 334 c 1,25,26
 80 331 80 331 89 305 c 0,27,28
 96 283 96 283 112 236 c 128,-1,29
 128 189 128 189 159 102 c 0,30,31
 167 81 167 81 175.5 73 c 128,-1,32
 184 65 184 65 199 65 c 256,33,34
 214 65 214 65 223 73 c 128,-1,35
 232 81 232 81 239 102 c 2,36,-1
 318 334 l 2,37,38
 323 348 323 348 337 355 c 128,-1,39
 351 362 351 362 365 356 c 0,40,41
 379 351 379 351 385.5 337.5 c 128,-1,42
 392 324 392 324 387 310 c 0,0,1
EndSplineSet
EndChar
StartChar: w
Encoding: 119 119 88
Width: 598
Flags: W
Fore
573 173 m 2,0,1
 573 134 573 134 564 101.5 c 128,-1,2
 555 69 555 69 535.5 45.5 c 128,-1,3
 516 22 516 22 485.5 8.5 c 128,-1,4
 455 -5 455 -5 413 -5 c 0,5,6
 374 -5 374 -5 343.5 9.5 c 128,-1,7
 313 24 313 24 298 43 c 1,8,9
 279 21 279 21 247.5 8 c 128,-1,10
 216 -5 216 -5 184 -5 c 0,11,12
 141 -5 141 -5 111 8 c 128,-1,13
 81 21 81 21 61.5 44.5 c 128,-1,14
 42 68 42 68 33 101.5 c 128,-1,15
 24 135 24 135 24 176 c 2,16,-1
 24 322 l 2,17,18
 24 337 24 337 34.5 347.5 c 128,-1,19
 45 358 45 358 60 358 c 0,20,21
 74 358 74 358 85 347.5 c 128,-1,22
 96 337 96 337 96 322 c 2,23,-1
 96 173 l 2,24,25
 96 154 96 154 100 135.5 c 128,-1,26
 104 117 104 117 114 102 c 128,-1,27
 124 87 124 87 141 78 c 128,-1,28
 158 69 158 69 184 69 c 0,29,30
 216 69 216 69 239 85.5 c 128,-1,31
 262 102 262 102 262 131 c 2,32,-1
 262 322 l 2,33,34
 262 337 262 337 273 347.5 c 128,-1,35
 284 358 284 358 298 358 c 0,36,37
 314 358 314 358 324 348 c 128,-1,38
 334 338 334 338 334 322 c 2,39,-1
 334 131 l 2,40,41
 334 102 334 102 357.5 85.5 c 128,-1,42
 381 69 381 69 413 69 c 0,43,44
 465 69 465 69 483 96.5 c 128,-1,45
 501 124 501 124 501 176 c 2,46,-1
 501 322 l 2,47,48
 501 337 501 337 511.5 347.5 c 128,-1,49
 522 358 522 358 537 358 c 0,50,51
 551 358 551 358 562 347.5 c 128,-1,52
 573 337 573 337 573 322 c 2,53,-1
 573 173 l 2,0,1
EndSplineSet
EndChar
StartChar: x
Encoding: 120 120 89
Width: 389
Flags: W
Fore
367 57 m 0,0,1
 375 44 375 44 373 29 c 128,-1,2
 371 14 371 14 359 5 c 256,3,4
 347 -4 347 -4 331.5 -2 c 128,-1,5
 316 0 316 0 307 13 c 0,6,7
 295 30 295 30 283 48 c 0,8,9
 272 63 272 63 259.5 81.5 c 128,-1,10
 247 100 247 100 236 117 c 0,11,12
 227 129 227 129 219 140.5 c 128,-1,13
 211 152 211 152 194 152 c 0,14,15
 180 152 180 152 170.5 140.5 c 128,-1,16
 161 129 161 129 153 117 c 2,17,-1
 144 104 l 1,18,-1
 81 13 l 2,19,20
 72 0 72 0 57 -2 c 128,-1,21
 42 -4 42 -4 29 5 c 0,22,23
 17 14 17 14 15 29 c 128,-1,24
 13 44 13 44 21 57 c 0,25,26
 48 96 48 96 62.5 117 c 128,-1,27
 77 138 77 138 84 147 c 0,28,29
 92 158 92 158 92 159 c 1,30,31
 99 169 99 169 110 174.5 c 128,-1,32
 121 180 121 180 130 180 c 1,33,34
 119 181 119 181 108 188.5 c 128,-1,35
 97 196 97 196 93 201 c 2,36,-1
 84 214 l 2,37,38
 77 223 77 223 62.5 243 c 128,-1,39
 48 263 48 263 22 300 c 0,40,41
 13 312 13 312 15 327 c 128,-1,42
 17 342 17 342 28 352 c 0,43,44
 40 361 40 361 56 360 c 128,-1,45
 72 359 72 359 80 345 c 0,46,47
 92 329 92 329 104 311 c 0,48,49
 115 296 115 296 127.5 278.5 c 128,-1,50
 140 261 140 261 152 244 c 0,51,52
 161 233 161 233 169 221 c 128,-1,53
 177 209 177 209 194 209 c 0,54,55
 210 209 210 209 218.5 220.5 c 128,-1,56
 227 232 227 232 235 243 c 2,57,-1
 308 345 l 2,58,59
 318 358 318 358 332.5 359.5 c 128,-1,60
 347 361 347 361 360 352 c 0,61,62
 371 342 371 342 373 327 c 128,-1,63
 375 312 375 312 366 300 c 0,64,65
 339 262 339 262 324.5 242 c 128,-1,66
 310 222 310 222 303 213 c 128,-1,67
 296 204 296 204 295 202.5 c 130,-1,68
 294 201 l 2,69,70
 290 196 290 196 279.5 188.5 c 128,-1,71
 269 181 269 181 258 180 c 1,72,73
 273 178 273 178 283 170.5 c 128,-1,74
 293 163 293 163 296 159 c 2,75,-1
 305 146 l 2,76,77
 312 136 312 136 326.5 115.5 c 128,-1,78
 341 95 341 95 367 57 c 0,0,1
EndSplineSet
EndChar
StartChar: y
Encoding: 121 121 90
Width: 409
Flags: W
Fore
384 -18 m 1,0,1
 384 -81 384 -81 351 -124.5 c 128,-1,2
 318 -168 318 -168 259 -185 c 0,3,4
 230 -193 230 -193 201 -192.5 c 128,-1,5
 172 -192 172 -192 146 -185 c 128,-1,6
 120 -178 120 -178 99.5 -164.5 c 128,-1,7
 79 -151 79 -151 68 -132 c 0,8,9
 60 -119 60 -119 64 -105 c 128,-1,10
 68 -91 68 -91 81 -83 c 256,11,12
 94 -75 94 -75 108.5 -79 c 128,-1,13
 123 -83 123 -83 130 -96 c 0,14,15
 134 -102 134 -102 144.5 -108 c 128,-1,16
 155 -114 155 -114 170 -117 c 128,-1,17
 185 -120 185 -120 203.5 -120 c 128,-1,18
 222 -120 222 -120 240 -115 c 0,19,20
 252 -112 252 -112 265 -105 c 128,-1,21
 278 -98 278 -98 288.5 -87 c 128,-1,22
 299 -76 299 -76 305.5 -59 c 128,-1,23
 312 -42 312 -42 312 -18 c 2,24,-1
 312 33 l 1,25,26
 291 15 291 15 263.5 6.5 c 128,-1,27
 236 -2 236 -2 204 -2 c 0,28,29
 117 -2 117 -2 70.5 47.5 c 128,-1,30
 24 97 24 97 24 179 c 2,31,-1
 24 325 l 2,32,33
 24 340 24 340 35 350.5 c 128,-1,34
 46 361 46 361 60 361 c 0,35,36
 76 361 76 361 86 351 c 128,-1,37
 96 341 96 341 96 325 c 2,38,-1
 96 179 l 2,39,40
 96 122 96 122 122 97 c 128,-1,41
 148 72 148 72 204 72 c 0,42,43
 261 72 261 72 285.5 98 c 128,-1,44
 310 124 310 124 312 179 c 2,45,-1
 312 319 l 2,46,47
 312 333 312 333 320 347.5 c 128,-1,48
 328 362 328 362 348 362 c 256,49,50
 368 362 368 362 377 347.5 c 128,-1,51
 386 333 386 333 384 319 c 1,52,-1
 384 -18 l 1,53,-1
 384 -18 l 1,0,1
EndSplineSet
EndChar
StartChar: z
Encoding: 122 122 91
Width: 370
Flags: W
Fore
250 241 m 2,0,1
 263 246 263 246 267 253 c 128,-1,2
 271 260 271 260 269 268 c 256,3,4
 267 276 267 276 260.5 280 c 128,-1,5
 254 284 254 284 238 284 c 2,6,-1
 75 284 l 2,7,8
 57 284 57 284 43.5 293 c 128,-1,9
 30 302 30 302 30 320 c 0,10,11
 30 334 30 334 40 346 c 128,-1,12
 50 358 50 358 75 358 c 2,13,-1
 239 358 l 2,14,15
 281 358 281 358 305.5 336 c 128,-1,16
 330 314 330 314 336 284 c 0,17,18
 338 274 338 274 338 261.5 c 128,-1,19
 338 249 338 249 333.5 236 c 128,-1,20
 329 223 329 223 319.5 210.5 c 128,-1,21
 310 198 310 198 292 189 c 2,22,-1
 118 118 l 2,23,24
 104 113 104 113 101 104 c 128,-1,25
 98 95 98 95 100 87 c 0,26,27
 102 78 102 78 110 75.5 c 128,-1,28
 118 73 118 73 130 73 c 2,29,-1
 293 73 l 2,30,31
 311 73 311 73 324.5 64 c 128,-1,32
 338 55 338 55 338 37 c 0,33,34
 338 23 338 23 328 11 c 128,-1,35
 318 -1 318 -1 293 -1 c 2,36,-1
 129 -1 l 2,37,38
 87 -1 87 -1 62.5 21.5 c 128,-1,39
 38 44 38 44 32 74 c 0,40,41
 30 84 30 84 30 96.5 c 128,-1,42
 30 109 30 109 34.5 122.5 c 128,-1,43
 39 136 39 136 48.5 148.5 c 128,-1,44
 58 161 58 161 76 170 c 2,45,-1
 250 241 l 2,0,1
EndSplineSet
EndChar
StartChar: braceleft
Encoding: 123 123 92
Width: 300
Flags: W
Fore
240 465 m 0,0,1
 238 454 238 454 231 448 c 128,-1,2
 224 442 224 442 216 437 c 0,3,4
 196 424 196 424 185.5 406.5 c 128,-1,5
 175 389 175 389 175 360 c 2,6,-1
 175 299 l 2,7,8
 175 266 175 266 161 240 c 128,-1,9
 147 214 147 214 121 197 c 1,10,11
 147 180 147 180 161 154 c 128,-1,12
 175 128 175 128 175 95 c 2,13,-1
 175 35 l 2,14,15
 175 6 175 6 185 -12 c 128,-1,16
 195 -30 195 -30 216 -43 c 0,17,18
 232 -53 232 -53 238 -66 c 128,-1,19
 244 -79 244 -79 233 -98 c 0,20,21
 223 -112 223 -112 206 -114 c 0,22,23
 176 -116 176 -116 137 -72 c 0,24,25
 101 -33 101 -33 101 35 c 2,26,-1
 101 95 l 2,27,28
 101 129 101 129 89 143 c 128,-1,29
 77 157 77 157 65 165 c 0,30,31
 57 170 57 170 49 178 c 128,-1,32
 41 186 41 186 43 200 c 0,33,34
 45 211 45 211 51.5 217.5 c 128,-1,35
 58 224 58 224 66 229 c 0,36,37
 72 233 72 233 78 238 c 128,-1,38
 84 243 84 243 89.5 251 c 128,-1,39
 95 259 95 259 98 270.5 c 128,-1,40
 101 282 101 282 101 299 c 2,41,-1
 101 360 l 2,42,43
 101 428 101 428 137 467 c 0,44,45
 178 511 178 511 206 508 c 0,46,47
 221 506 221 506 232 493 c 128,-1,48
 243 480 243 480 240 465 c 0,0,1
EndSplineSet
EndChar
StartChar: bar
Encoding: 124 124 93
Width: 200
Flags: W
Fore
137 -99 m 1,0,1
 137 -124 137 -124 125.5 -133.5 c 128,-1,2
 114 -143 114 -143 101 -143 c 0,3,4
 81 -143 81 -143 72 -130.5 c 128,-1,5
 63 -118 63 -118 63 -99 c 2,6,-1
 63 496 l 2,7,8
 63 515 63 515 71.5 528 c 128,-1,9
 80 541 80 541 101 541 c 0,10,11
 119 541 119 541 128 527.5 c 128,-1,12
 137 514 137 514 137 496 c 2,13,-1
 137 -99 l 1,14,-1
 137 -99 l 1,0,1
EndSplineSet
EndChar
StartChar: braceright
Encoding: 125 125 94
Width: 300
Flags: W
Fore
257 199 m 0,0,1
 259 185 259 185 251 177 c 128,-1,2
 243 169 243 169 235 164 c 0,3,4
 223 156 223 156 211 142 c 128,-1,5
 199 128 199 128 199 94 c 2,6,-1
 199 34 l 2,7,8
 199 -1 199 -1 190 -27 c 128,-1,9
 181 -53 181 -53 164 -73 c 0,10,11
 152 -86 152 -86 138.5 -97 c 128,-1,12
 125 -108 125 -108 112 -113 c 128,-1,13
 99 -118 99 -118 87.5 -115.5 c 128,-1,14
 76 -113 76 -113 67 -99 c 0,15,16
 57 -83 57 -83 59.5 -73 c 128,-1,17
 62 -63 62 -63 70.5 -55 c 128,-1,18
 79 -47 79 -47 90 -40 c 128,-1,19
 101 -33 101 -33 109 -23 c 0,20,21
 125 -1 125 -1 125 34 c 2,22,-1
 125 94 l 2,23,24
 125 127 125 127 139 153 c 128,-1,25
 153 179 153 179 179 196 c 1,26,27
 153 213 153 213 139 239 c 128,-1,28
 125 265 125 265 125 298 c 2,29,-1
 125 359 l 2,30,31
 125 394 125 394 109 415 c 0,32,33
 101 424 101 424 90 431.5 c 128,-1,34
 79 439 79 439 70.5 447.5 c 128,-1,35
 62 456 62 456 59.5 466 c 128,-1,36
 57 476 57 476 67 491 c 0,37,38
 76 505 76 505 87.5 507.5 c 128,-1,39
 99 510 99 510 112 505 c 128,-1,40
 125 500 125 500 138.5 489 c 128,-1,41
 152 478 152 478 164 466 c 0,42,43
 199 426 199 426 199 359 c 2,44,-1
 199 298 l 2,45,46
 199 281 199 281 202 269.5 c 128,-1,47
 205 258 205 258 210.5 250 c 128,-1,48
 216 242 216 242 222 237 c 128,-1,49
 228 232 228 232 234 228 c 0,50,51
 242 223 242 223 248.5 216.5 c 128,-1,52
 255 210 255 210 257 199 c 0,0,1
EndSplineSet
EndChar
StartChar: asciitilde
Encoding: 126 126 95
Width: 432
Flags: W
Fore
400 219 m 0,0,1
 400 183 400 183 388.5 158 c 128,-1,2
 377 133 377 133 357.5 120 c 128,-1,3
 338 107 338 107 312 107 c 128,-1,4
 286 107 286 107 257 121 c 2,5,-1
 170 168 l 2,6,7
 165 171 165 171 154.5 176 c 128,-1,8
 144 181 144 181 133 182.5 c 128,-1,9
 122 184 122 184 113.5 178.5 c 128,-1,10
 105 173 105 173 104 155 c 0,11,12
 104 151 104 151 102.5 145 c 128,-1,13
 101 139 101 139 96.5 133 c 128,-1,14
 92 127 92 127 85 123 c 128,-1,15
 78 119 78 119 68 119 c 0,16,17
 55 119 55 119 47.5 123.5 c 128,-1,18
 40 128 40 128 36 133.5 c 128,-1,19
 32 139 32 139 31 145 c 128,-1,20
 30 151 30 151 30 154 c 0,21,22
 30 173 30 173 33 191.5 c 128,-1,23
 36 210 36 210 43.5 224.5 c 128,-1,24
 51 239 51 239 63.5 249 c 128,-1,25
 76 259 76 259 95 262 c 0,26,27
 112 265 112 265 132 259.5 c 128,-1,28
 152 254 152 254 163 248 c 2,29,-1
 254 201 l 2,30,31
 267 194 267 194 280 188.5 c 128,-1,32
 293 183 293 183 303.5 183 c 128,-1,33
 314 183 314 183 320.5 191 c 128,-1,34
 327 199 327 199 327 219 c 0,35,36
 327 223 327 223 327.5 229 c 128,-1,37
 328 235 328 235 331 241 c 128,-1,38
 334 247 334 247 341 251 c 128,-1,39
 348 255 348 255 362 255 c 0,40,41
 385 255 385 255 392 242.5 c 128,-1,42
 399 230 399 230 400 219 c 0,0,1
EndSplineSet
EndChar
StartChar: uni0E33.alt1
Encoding: 65539 -1 96
Width: 423
Flags: W
Fore
378 30 m 2,0,1
 378 15 378 15 367.5 7.5 c 128,-1,2
 357 0 357 0 342 0 c 256,3,4
 327 0 327 0 316 7 c 128,-1,5
 305 14 305 14 305 29 c 2,6,-1
 305 260 l 2,7,8
 305 293 305 293 282.5 315 c 128,-1,9
 260 337 260 337 209 337 c 0,10,11
 168 337 168 337 137.5 317.5 c 128,-1,12
 107 298 107 298 96 279 c 0,13,14
 88 266 88 266 73.5 265.5 c 128,-1,15
 59 265 59 265 46 273 c 0,16,17
 17 289 17 289 33 316 c 0,18,19
 56 355 56 355 104 382.5 c 128,-1,20
 152 410 152 410 209 410 c 0,21,22
 245 410 245 410 276 399 c 128,-1,23
 307 388 307 388 329.5 368 c 128,-1,24
 352 348 352 348 365 320.5 c 128,-1,25
 378 293 378 293 378 260 c 2,26,-1
 378 30 l 2,0,1
-125 567 m 0,27,28
 -125 525 -125 525 -156 499.5 c 128,-1,29
 -187 474 -187 474 -231 474 c 0,30,31
 -277 474 -277 474 -307 500.5 c 128,-1,32
 -337 527 -337 527 -337 567 c 0,33,34
 -337 586 -337 586 -328.5 603 c 128,-1,35
 -320 620 -320 620 -305.5 632.5 c 128,-1,36
 -291 645 -291 645 -272 652.5 c 128,-1,37
 -253 660 -253 660 -231 660 c 0,38,39
 -210 660 -210 660 -191 653.5 c 128,-1,40
 -172 647 -172 647 -157.5 634.5 c 128,-1,41
 -143 622 -143 622 -134 605 c 128,-1,42
 -125 588 -125 588 -125 567 c 0,27,28
-182 567 m 0,43,44
 -182 583 -182 583 -193.5 593 c 128,-1,45
 -205 603 -205 603 -231 603 c 0,46,47
 -256 603 -256 603 -268 592.5 c 128,-1,48
 -280 582 -280 582 -280 567 c 0,49,50
 -280 548 -280 548 -265 539.5 c 128,-1,51
 -250 531 -250 531 -231 531 c 0,52,53
 -211 531 -211 531 -196.5 539.5 c 128,-1,54
 -182 548 -182 548 -182 567 c 0,43,44
EndSplineSet
EndChar
StartChar: quotedbl
Encoding: 34 34 97
Width: 258
Flags: W
Fore
225 339 m 2,0,1
 225 314 225 314 213.5 304.5 c 128,-1,2
 202 295 202 295 188 295 c 0,3,4
 168 295 168 295 159.5 307.5 c 128,-1,5
 151 320 151 320 151 339 c 2,6,-1
 151 443 l 2,7,8
 151 462 151 462 159.5 474.5 c 128,-1,9
 168 487 168 487 188 487 c 0,10,11
 207 487 207 487 216 474 c 128,-1,12
 225 461 225 461 225 443 c 2,13,-1
 225 339 l 2,0,1
106 339 m 2,14,15
 106 314 106 314 94.5 304.5 c 128,-1,16
 83 295 83 295 70 295 c 0,17,18
 50 295 50 295 41 307.5 c 128,-1,19
 32 320 32 320 32 339 c 2,20,-1
 32 443 l 2,21,22
 32 462 32 462 41 474.5 c 128,-1,23
 50 487 50 487 70 487 c 0,24,25
 88 487 88 487 97 474 c 128,-1,26
 106 461 106 461 106 443 c 2,27,-1
 106 339 l 2,14,15
EndSplineSet
EndChar
StartChar: exclam
Encoding: 33 33 98
Width: 209
Flags: W
Fore
134 152 m 2,0,1
 133 138 133 138 127 127.5 c 128,-1,2
 121 117 121 117 107 117 c 0,3,4
 90 117 90 117 85 128.5 c 128,-1,5
 80 140 80 140 79 152 c 2,6,-1
 69 467 l 2,7,8
 69 478 69 478 75 489.5 c 128,-1,9
 81 501 81 501 107 501 c 0,10,11
 132 501 132 501 138 489.5 c 128,-1,12
 144 478 144 478 144 467 c 2,13,-1
 134 152 l 2,0,1
152 39 m 0,14,15
 152 14 152 14 138.5 4.5 c 128,-1,16
 125 -5 125 -5 108 -5 c 0,17,18
 86 -5 86 -5 74.5 7 c 128,-1,19
 63 19 63 19 63 39 c 0,20,21
 63 60 63 60 74.5 72.5 c 128,-1,22
 86 85 86 85 108 85 c 0,23,24
 129 85 129 85 140.5 72.5 c 128,-1,25
 152 60 152 60 152 39 c 0,14,15
EndSplineSet
EndChar
StartChar: uni0E4E.alt1
Encoding: 65540 -1 99
Width: 0
Flags: W
Fore
-128 697 m 0,0,1
 -119 695 -119 695 -113.5 690 c 128,-1,2
 -108 685 -108 685 -107.5 680.5 c 128,-1,3
 -107 676 -107 676 -111 673 c 128,-1,4
 -115 670 -115 670 -125 670 c 1,5,6
 -152 674 -152 674 -175.5 660 c 128,-1,7
 -199 646 -199 646 -197 623 c 128,-1,8
 -195 600 -195 600 -167 597 c 0,9,10
 -157 595 -157 595 -155 587.5 c 128,-1,11
 -153 580 -153 580 -154 577 c 256,12,13
 -155 574 -155 574 -157.5 569.5 c 128,-1,14
 -160 565 -160 565 -172 564 c 0,15,16
 -251 563 -251 563 -253 519 c 1,17,18
 -248 492 -248 492 -217 492 c 128,-1,19
 -186 492 -186 492 -177 499 c 1,20,-1
 -185 462 l 1,21,22
 -229 443 -229 443 -269 455.5 c 128,-1,23
 -309 468 -309 468 -316 513 c 1,24,25
 -312 586 -312 586 -231 588 c 1,26,27
 -256 614 -256 614 -250.5 644.5 c 128,-1,28
 -245 675 -245 675 -212 692 c 128,-1,29
 -179 709 -179 709 -128 697 c 0,0,1
EndSplineSet
EndChar
StartChar: exclamdown
Encoding: 161 161 100
Width: 209
Flags: W
Fore
144 -111 m 2,0,1
 144 -122 144 -122 138 -133.5 c 128,-1,2
 132 -145 132 -145 107 -145 c 0,3,4
 81 -145 81 -145 75 -133.5 c 128,-1,5
 69 -122 69 -122 69 -111 c 2,6,-1
 79 204 l 2,7,8
 80 216 80 216 85 227.5 c 128,-1,9
 90 239 90 239 107 239 c 0,10,11
 121 239 121 239 127 228.5 c 128,-1,12
 133 218 133 218 134 204 c 2,13,-1
 144 -111 l 2,0,1
152 317 m 0,14,15
 152 296 152 296 140.5 283.5 c 128,-1,16
 129 271 129 271 108 271 c 0,17,18
 86 271 86 271 74.5 283.5 c 128,-1,19
 63 296 63 296 63 317 c 0,20,21
 63 337 63 337 74.5 349 c 128,-1,22
 86 361 86 361 108 361 c 0,23,24
 125 361 125 361 138.5 351.5 c 128,-1,25
 152 342 152 342 152 317 c 0,14,15
EndSplineSet
EndChar
StartChar: cent
Encoding: 162 162 101
Width: 432
Flags: W
Fore
375 164 m 0,0,1
 388 156 388 156 391 141.5 c 128,-1,2
 394 127 394 127 386 114 c 0,3,4
 377 98 377 98 357.5 83.5 c 128,-1,5
 338 69 338 69 312.5 59 c 128,-1,6
 287 49 287 49 256.5 46 c 128,-1,7
 226 43 226 43 194 51 c 1,8,-1
 172 -21 l 2,9,10
 170 -29 170 -29 162 -33 c 128,-1,11
 154 -37 154 -37 146 -34 c 0,12,13
 138 -32 138 -32 133.5 -25.5 c 128,-1,14
 129 -19 129 -19 131 -12 c 2,15,-1
 154 62 l 1,16,17
 42 104 42 104 42 232 c 0,18,19
 42 286 42 286 61.5 324.5 c 128,-1,20
 81 363 81 363 111.5 386.5 c 128,-1,21
 142 410 142 410 179.5 419 c 128,-1,22
 217 428 217 428 253 422 c 1,23,-1
 273 490 l 2,24,25
 275 497 275 497 282.5 500.5 c 128,-1,26
 290 504 290 504 298 502 c 0,27,28
 317 497 317 497 312 481 c 2,29,-1
 295 417 l 1,30,31
 328 409 328 409 351.5 392.5 c 128,-1,32
 375 376 375 376 386 355 c 0,33,34
 394 343 394 343 391 328.5 c 128,-1,35
 388 314 388 314 375 306 c 0,36,37
 361 298 361 298 346 301 c 128,-1,38
 331 304 331 304 323 317 c 0,39,40
 319 323 319 323 307 331 c 128,-1,41
 295 339 295 339 275 344 c 1,42,-1
 213 124 l 1,43,44
 234 120 234 120 253 122 c 128,-1,45
 272 124 272 124 286.5 129 c 128,-1,46
 301 134 301 134 310.5 140.5 c 128,-1,47
 320 147 320 147 323 152 c 0,48,49
 331 166 331 166 346 170 c 128,-1,50
 361 174 361 174 375 164 c 0,0,1
114 232 m 0,51,52
 114 197 114 197 128 171.5 c 128,-1,53
 142 146 142 146 173 133 c 1,54,-1
 233 348 l 1,55,56
 221 350 221 350 201 347 c 128,-1,57
 181 344 181 344 161.5 331.5 c 128,-1,58
 142 319 142 319 128 295 c 128,-1,59
 114 271 114 271 114 232 c 0,51,52
EndSplineSet
EndChar
StartChar: sterling
Encoding: 163 163 102
Width: 398
Flags: W
Fore
33 263 m 1,0,-1
 88 263 l 1,1,2
 86 268 86 268 78 279 c 128,-1,3
 70 290 70 290 62 305 c 128,-1,4
 54 320 54 320 48 338.5 c 128,-1,5
 42 357 42 357 44 378 c 0,6,7
 48 421 48 421 78 450 c 128,-1,8
 108 479 108 479 149.5 491 c 128,-1,9
 191 503 191 503 235.5 496 c 128,-1,10
 280 489 280 489 312 459 c 0,11,12
 333 439 333 439 348 406.5 c 128,-1,13
 363 374 363 374 364 337 c 1,14,-1
 293 337 l 1,15,16
 292 350 292 350 286 368.5 c 128,-1,17
 280 387 280 387 268 403 c 128,-1,18
 256 419 256 419 236.5 429 c 128,-1,19
 217 439 217 439 189 437 c 0,20,21
 169 435 169 435 152 426 c 128,-1,22
 135 417 135 417 125.5 402 c 128,-1,23
 116 387 116 387 115 367 c 128,-1,24
 114 347 114 347 126 324 c 0,25,26
 133 312 133 312 143 296 c 128,-1,27
 153 280 153 280 159 263 c 1,28,-1
 222 263 l 1,29,-1
 236 224 l 1,30,-1
 169 224 l 1,31,32
 176 202 176 202 176 184 c 128,-1,33
 176 166 176 166 171 152 c 0,34,35
 166 136 166 136 158.5 123.5 c 128,-1,36
 151 111 151 111 142.5 101 c 128,-1,37
 134 91 134 91 126 83.5 c 128,-1,38
 118 76 118 76 112 70 c 1,39,40
 132 78 132 78 161 81.5 c 128,-1,41
 190 85 190 85 227 77 c 0,42,43
 237 74 237 74 248 71 c 128,-1,44
 259 68 259 68 272.5 68 c 128,-1,45
 286 68 286 68 303.5 72 c 128,-1,46
 321 76 321 76 345 88 c 1,47,-1
 373 28 l 1,48,49
 364 24 364 24 351 17.5 c 128,-1,50
 338 11 338 11 320 5.5 c 128,-1,51
 302 0 302 0 279.5 -1.5 c 128,-1,52
 257 -3 257 -3 230 4 c 0,53,54
 204 11 204 11 183.5 15 c 128,-1,55
 163 19 163 19 145 19.5 c 128,-1,56
 127 20 127 20 109 15 c 128,-1,57
 91 10 91 10 70 -1 c 1,58,-1
 34 66 l 1,59,60
 45 76 45 76 58.5 86 c 128,-1,61
 72 96 72 96 87 116 c 0,62,63
 100 134 100 134 106 150 c 128,-1,64
 112 166 112 166 113.5 180 c 128,-1,65
 115 194 115 194 113 205 c 128,-1,66
 111 216 111 216 108 224 c 1,67,-1
 47 224 l 1,68,-1
 33 263 l 1,0,-1
EndSplineSet
EndChar
StartChar: currency
Encoding: 164 164 103
Width: 486
Flags: W
Fore
416 229 m 0,0,1
 416 200 416 200 406.5 176 c 128,-1,2
 397 152 397 152 382 132 c 1,3,-1
 405 109 l 2,4,5
 416 98 416 98 415 87 c 128,-1,6
 414 76 414 76 407 68 c 0,7,8
 399 60 399 60 385 58 c 128,-1,9
 371 56 371 56 360 67 c 2,10,-1
 336 90 l 1,11,12
 312 72 312 72 291 65 c 128,-1,13
 270 58 270 58 243 58 c 0,14,15
 211 58 211 58 190 66 c 128,-1,16
 169 74 169 74 148 91 c 1,17,-1
 124 67 l 2,18,19
 113 56 113 56 101 58 c 128,-1,20
 89 60 89 60 81 68 c 0,21,22
 74 76 74 76 70.5 88.5 c 128,-1,23
 67 101 67 101 77 112 c 2,24,-1
 101 137 l 1,25,26
 86 158 86 158 79.5 176.5 c 128,-1,27
 73 195 73 195 73 225 c 0,28,29
 73 262 73 262 83 284.5 c 128,-1,30
 93 307 93 307 104 324 c 1,31,-1
 77 351 l 2,32,33
 66 361 66 361 69.5 373.5 c 128,-1,34
 73 386 73 386 80 394 c 0,35,36
 88 401 88 401 101 405 c 128,-1,37
 114 409 114 409 125 399 c 2,38,-1
 152 370 l 1,39,40
 174 386 174 386 195 391.5 c 128,-1,41
 216 397 216 397 243 397 c 0,42,43
 275 397 275 397 295 390 c 128,-1,44
 315 383 315 383 335 368 c 1,45,-1
 361 395 l 2,46,47
 371 405 371 405 385.5 402.5 c 128,-1,48
 400 400 400 400 407 393 c 0,49,50
 415 385 415 385 417.5 371.5 c 128,-1,51
 420 358 420 358 409 348 c 2,52,-1
 384 323 l 1,53,54
 395 307 395 307 405.5 286 c 128,-1,55
 416 265 416 265 416 229 c 0,0,1
140 226 m 256,56,57
 140 181 140 181 169.5 151.5 c 128,-1,58
 199 122 199 122 244 122 c 256,59,60
 289 122 289 122 319 151.5 c 128,-1,61
 349 181 349 181 349 226 c 256,62,63
 349 271 349 271 319 301 c 128,-1,64
 289 331 289 331 244 331 c 256,65,66
 199 331 199 331 169.5 301 c 128,-1,67
 140 271 140 271 140 226 c 256,56,57
EndSplineSet
EndChar
StartChar: yen
Encoding: 165 165 104
Width: 382
Flags: W
Fore
352 486 m 0,0,1
 367 475 367 475 370.5 458.5 c 128,-1,2
 374 442 374 442 364 428 c 2,3,-1
 235 234 l 1,4,-1
 334 234 l 1,5,-1
 334 187 l 1,6,-1
 233 187 l 1,7,-1
 233 152 l 1,8,-1
 334 152 l 1,9,-1
 334 106 l 1,10,-1
 233 106 l 1,11,-1
 233 36 l 2,12,13
 233 19 233 19 221 8 c 128,-1,14
 209 -3 209 -3 192 -3 c 0,15,16
 176 -3 176 -3 163.5 8.5 c 128,-1,17
 151 20 151 20 151 36 c 2,18,-1
 151 106 l 1,19,-1
 48 106 l 1,20,-1
 48 152 l 1,21,-1
 151 152 l 1,22,-1
 151 187 l 1,23,-1
 48 187 l 1,24,-1
 48 234 l 1,25,-1
 149 234 l 1,26,-1
 21 429 l 2,27,28
 13 444 13 444 16.5 460 c 128,-1,29
 20 476 20 476 34 486 c 0,30,31
 49 494 49 494 66 489.5 c 128,-1,32
 83 485 83 485 91 469 c 2,33,34
 102 450.5 l 130,-1,35
 113 432 113 432 129 406.5 c 128,-1,36
 145 381 145 381 163 353.5 c 128,-1,37
 181 326 181 326 193 307 c 1,38,-1
 296 470 l 2,39,40
 304 486 304 486 321 490 c 128,-1,41
 338 494 338 494 352 486 c 0,0,1
EndSplineSet
EndChar
StartChar: brokenbar
Encoding: 166 166 105
Width: 164
Flags: W
Fore
81 519 m 0,0,1
 97 519 97 519 102.5 509 c 128,-1,2
 108 499 108 499 108 477 c 2,3,-1
 108 279 l 2,4,5
 108 258 108 258 102.5 247 c 128,-1,6
 97 236 97 236 81 236 c 0,7,8
 66 236 66 236 60 247 c 128,-1,9
 54 258 54 258 54 279 c 2,10,-1
 54 477 l 2,11,12
 54 499 54 499 60 509 c 128,-1,13
 66 519 66 519 81 519 c 0,0,1
81 129 m 0,14,15
 97 129 97 129 102.5 119 c 128,-1,16
 108 109 108 109 108 87 c 2,17,-1
 108 -112 l 2,18,19
 108 -133 108 -133 102.5 -144 c 128,-1,20
 97 -155 97 -155 81 -155 c 0,21,22
 66 -155 66 -155 60 -144 c 128,-1,23
 54 -133 54 -133 54 -112 c 2,24,-1
 54 87 l 2,25,26
 54 109 54 109 60 119 c 128,-1,27
 66 129 66 129 81 129 c 0,14,15
EndSplineSet
EndChar
StartChar: section
Encoding: 167 167 106
Width: 472
Flags: W
Fore
399 131 m 0,0,1
 389 115 389 115 375.5 102.5 c 128,-1,2
 362 90 362 90 352 88 c 1,3,4
 377 56 377 56 376.5 22 c 128,-1,5
 376 -12 376 -12 357 -40 c 128,-1,6
 338 -68 338 -68 305.5 -85.5 c 128,-1,7
 273 -103 273 -103 235 -101 c 0,8,9
 165 -97 165 -97 128.5 -62.5 c 128,-1,10
 92 -28 92 -28 92 42 c 0,11,12
 92 60 92 60 103 70.5 c 128,-1,13
 114 81 114 81 131 81 c 256,14,15
 148 81 148 81 159 70.5 c 128,-1,16
 170 60 170 60 168 40 c 0,17,18
 167 16 167 16 176.5 -1 c 128,-1,19
 186 -18 186 -18 201 -27 c 128,-1,20
 216 -36 216 -36 234 -37.5 c 128,-1,21
 252 -39 252 -39 268 -32 c 256,22,23
 284 -25 284 -25 292 -11 c 128,-1,24
 300 3 300 3 299.5 18.5 c 128,-1,25
 299 34 299 34 291.5 47.5 c 128,-1,26
 284 61 284 61 271 67 c 2,27,-1
 197 109 l 2,28,29
 169 125 169 125 145.5 138 c 128,-1,30
 122 151 122 151 121 152 c 2,31,32
 95 164 95 164 80.5 190.5 c 128,-1,33
 66 217 66 217 65 247 c 128,-1,34
 64 277 64 277 77 306.5 c 128,-1,35
 90 336 90 336 120 355 c 1,36,37
 100 381 100 381 99.5 414.5 c 128,-1,38
 99 448 99 448 116 476 c 256,39,40
 133 504 133 504 166 520.5 c 128,-1,41
 199 537 199 537 239 537 c 0,42,43
 269 537 269 537 295.5 526.5 c 128,-1,44
 322 516 322 516 341.5 497.5 c 128,-1,45
 361 479 361 479 372.5 453.5 c 128,-1,46
 384 428 384 428 384 398 c 0,47,48
 384 381 384 381 373 370 c 128,-1,49
 362 359 362 359 346 359 c 0,50,51
 329 359 329 359 318.5 371 c 128,-1,52
 308 383 308 383 310 399 c 0,53,54
 310 409 310 409 307 421.5 c 128,-1,55
 304 434 304 434 296 444.5 c 128,-1,56
 288 455 288 455 275 462 c 128,-1,57
 262 469 262 469 242 469 c 0,58,59
 224 469 224 469 209.5 459.5 c 128,-1,60
 195 450 195 450 188 436 c 128,-1,61
 181 422 181 422 182.5 406 c 128,-1,62
 184 390 184 390 196 377 c 0,63,64
 204 369 204 369 227.5 355.5 c 128,-1,65
 251 342 251 342 278 327 c 128,-1,66
 305 312 305 312 330.5 298 c 128,-1,67
 356 284 356 284 369 275 c 0,68,69
 386 263 386 263 397 246 c 128,-1,70
 408 229 408 229 412 210 c 128,-1,71
 416 191 416 191 413 170.5 c 128,-1,72
 410 150 410 150 399 131 c 0,0,1
304 137 m 1,73,74
 315 140 315 140 324 150.5 c 128,-1,75
 333 161 333 161 336.5 174.5 c 128,-1,76
 340 188 340 188 335.5 201.5 c 128,-1,77
 331 215 331 215 315 223 c 2,78,79
 297.5 233 l 130,-1,80
 280 243 280 243 256 256.5 c 128,-1,81
 232 270 232 270 207.5 283 c 128,-1,82
 183 296 183 296 169 303 c 1,83,84
 152 297 152 297 144.5 284.5 c 128,-1,85
 137 272 137 272 136 258.5 c 128,-1,86
 135 245 135 245 140.5 234 c 128,-1,87
 146 223 146 223 154 219 c 2,88,89
 172.5 208.5 l 130,-1,90
 191 198 191 198 216 184.5 c 128,-1,91
 266 157.5 l 128,-1,92
 291 144 291 144 304 137 c 1,73,74
EndSplineSet
EndChar
StartChar: dieresis
Encoding: 168 168 107
Width: 273
Flags: W
Fore
65 390 m 0,0,1
 43 390 43 390 29 403.5 c 128,-1,2
 15 417 15 417 15 436 c 0,3,4
 15 456 15 456 29 470 c 128,-1,5
 43 484 43 484 65 484 c 0,6,7
 84 484 84 484 97.5 470 c 128,-1,8
 111 456 111 456 111 436 c 0,9,10
 111 417 111 417 97.5 403.5 c 128,-1,11
 84 390 84 390 65 390 c 0,0,1
212 390 m 0,12,13
 190 390 190 390 176 403.5 c 128,-1,14
 162 417 162 417 162 436 c 0,15,16
 162 456 162 456 176 470 c 128,-1,17
 190 484 190 484 212 484 c 0,18,19
 231 484 231 484 244.5 470 c 128,-1,20
 258 456 258 456 258 436 c 0,21,22
 258 417 258 417 244.5 403.5 c 128,-1,23
 231 390 231 390 212 390 c 0,12,13
EndSplineSet
EndChar
StartChar: copyright
Encoding: 169 169 108
Width: 575
Flags: W
Fore
287 498 m 0,0,1
 340 498 340 498 386.5 478 c 128,-1,2
 433 458 433 458 467.5 423.5 c 128,-1,3
 502 389 502 389 522 342.5 c 128,-1,4
 542 296 542 296 542 244 c 0,5,6
 542 190 542 190 522 143 c 128,-1,7
 502 96 502 96 467.5 61 c 128,-1,8
 433 26 433 26 386.5 6 c 128,-1,9
 340 -14 340 -14 287 -14 c 0,10,11
 233 -14 233 -14 186 6 c 128,-1,12
 139 26 139 26 104 61 c 128,-1,13
 69 96 69 96 49 143 c 128,-1,14
 29 190 29 190 29 244 c 0,15,16
 29 296 29 296 49 342.5 c 128,-1,17
 69 389 69 389 104 423.5 c 128,-1,18
 139 458 139 458 186 478 c 128,-1,19
 233 498 233 498 287 498 c 0,0,1
287 35 m 0,20,21
 330 35 330 35 367.5 51 c 128,-1,22
 405 67 405 67 433.5 95.5 c 128,-1,23
 462 124 462 124 478.5 162 c 128,-1,24
 495 200 495 200 495 244 c 0,25,26
 495 287 495 287 478.5 324.5 c 128,-1,27
 462 362 462 362 433.5 390.5 c 128,-1,28
 405 419 405 419 367.5 435.5 c 128,-1,29
 330 452 330 452 287 452 c 0,30,31
 243 452 243 452 205.5 435.5 c 128,-1,32
 168 419 168 419 139.5 390.5 c 128,-1,33
 111 362 111 362 95 324.5 c 128,-1,34
 79 287 79 287 79 244 c 0,35,36
 79 200 79 200 95 162 c 128,-1,37
 111 124 111 124 139.5 95.5 c 128,-1,38
 168 67 168 67 205.5 51 c 128,-1,39
 243 35 243 35 287 35 c 0,20,21
403 349 m 0,40,41
 382 371 382 371 353.5 382.5 c 128,-1,42
 325 394 325 394 296 394 c 0,43,44
 266 394 266 394 238 383 c 128,-1,45
 210 372 210 372 189 352 c 128,-1,46
 168 332 168 332 155.5 303.5 c 128,-1,47
 143 275 143 275 143 241 c 0,48,49
 143 208 143 208 153.5 182.5 c 128,-1,50
 164 157 164 157 180.5 138 c 128,-1,51
 197 119 197 119 216 107 c 128,-1,52
 235 95 235 95 253 91 c 0,53,54
 287 80 287 80 327 87.5 c 128,-1,55
 367 95 367 95 402 130 c 0,56,57
 406 134 406 134 408.5 144 c 128,-1,58
 411 154 411 154 402 164 c 0,59,60
 394 172 394 172 384 170.5 c 128,-1,61
 374 169 374 169 369 163 c 0,62,63
 352 147 352 147 324.5 136.5 c 128,-1,64
 297 126 297 126 265 138 c 0,65,66
 256 141 256 141 243 147 c 128,-1,67
 230 153 230 153 219 165 c 128,-1,68
 208 177 208 177 200 195.5 c 128,-1,69
 192 214 192 214 192 241 c 0,70,71
 192 289 192 289 221.5 318.5 c 128,-1,72
 251 348 251 348 296 348 c 0,73,74
 337 348 337 348 369 314 c 0,75,76
 376 306 376 306 385.5 306 c 128,-1,77
 395 306 395 306 402 313 c 256,78,79
 409 320 409 320 409.5 331 c 128,-1,80
 410 342 410 342 403 349 c 0,40,41
EndSplineSet
EndChar
StartChar: ordfeminine
Encoding: 170 170 109
Width: 293
Flags: W
Fore
257 315 m 2,0,-1
 257 207 l 2,1,2
 257 196 257 196 250 190 c 128,-1,3
 243 184 243 184 233 184 c 0,4,5
 225 184 225 184 218.5 189.5 c 128,-1,6
 212 195 212 195 213 205 c 1,7,8
 199 196 199 196 178.5 190 c 128,-1,9
 158 184 158 184 136 184 c 0,10,11
 83 184 83 184 53.5 204 c 128,-1,12
 24 224 24 224 24 266 c 0,13,14
 24 301 24 301 55 325.5 c 128,-1,15
 86 350 86 350 140 350 c 0,16,17
 164 350 164 350 185.5 343 c 128,-1,18
 207 336 207 336 214 326 c 1,19,20
 215 351 215 351 199 365 c 128,-1,21
 183 379 183 379 136 379 c 0,22,23
 116 379 116 379 99.5 374.5 c 128,-1,24
 83 370 83 370 69 362 c 256,25,26
 55 354 55 354 48 358.5 c 128,-1,27
 41 363 41 363 39 365 c 0,28,29
 32 373 32 373 34 384 c 128,-1,30
 36 395 36 395 47 401 c 0,31,32
 65 413 65 413 87 418.5 c 128,-1,33
 109 424 109 424 134 424 c 0,34,35
 192 424 192 424 226.5 398.5 c 128,-1,36
 261 373 261 373 257 315 c 2,0,-1
136 224 m 0,37,38
 167 224 167 224 189.5 234.5 c 128,-1,39
 212 245 212 245 212 265 c 0,40,41
 212 290 212 290 188.5 299 c 128,-1,42
 165 308 165 308 138 308 c 0,43,44
 113 308 113 308 91 298 c 128,-1,45
 69 288 69 288 68 268 c 0,46,47
 68 245 68 245 88.5 234.5 c 128,-1,48
 109 224 109 224 136 224 c 0,37,38
EndSplineSet
EndChar
StartChar: guillemotleft
Encoding: 171 171 110
Width: 393
Flags: W
Fore
107 182 m 1,0,1
 113 171 113 171 124 154 c 128,-1,2
 146 120 l 0,3,4
 158 101 158 101 172 80 c 0,5,6
 179 69 179 69 176 53.5 c 128,-1,7
 173 38 173 38 161 32 c 0,8,9
 149 24 149 24 134 27 c 128,-1,10
 119 30 119 30 113 44 c 1,11,12
 107.5 53 l 130,-1,13
 102 62 102 62 93.5 76 c 128,-1,14
 85 90 85 90 75 106 c 128,-1,15
 65 122 65 122 56.5 135.5 c 128,-1,16
 48 149 48 149 42 158.5 c 128,-1,17
 37 167 37 167 36 168 c 0,18,19
 29 179 29 179 31 186 c 128,-1,20
 33 193 33 193 38 201 c 2,21,-1
 113 321 l 2,22,23
 120 333 120 333 134 336.5 c 128,-1,24
 148 340 148 340 161 332 c 0,25,26
 173 324 173 324 176.5 310 c 128,-1,27
 180 296 180 296 172 284 c 0,28,29
 158 263 158 263 146 244 c 0,30,31
 124 210 l 128,-1,32
 113 193 113 193 107 182 c 1,0,1
267 182 m 1,33,34
 273 171 273 171 284 154 c 128,-1,35
 306 120 l 0,36,37
 318 101 318 101 332 80 c 0,38,39
 339 69 339 69 336 53.5 c 128,-1,40
 333 38 333 38 321 32 c 0,41,42
 309 24 309 24 294 27 c 128,-1,43
 279 30 279 30 273 44 c 1,44,45
 267.5 53 l 130,-1,46
 262 62 262 62 253.5 76 c 128,-1,47
 245 90 245 90 235 106 c 128,-1,48
 225 122 225 122 216.5 135.5 c 128,-1,49
 208 149 208 149 202 158.5 c 128,-1,50
 197 167 197 167 196 168 c 0,51,52
 189 179 189 179 191 186 c 128,-1,53
 193 193 193 193 198 201 c 2,54,-1
 273 321 l 2,55,56
 280 333 280 333 294 336.5 c 128,-1,57
 308 340 308 340 321 332 c 0,58,59
 333 324 333 324 336.5 310 c 128,-1,60
 340 296 340 296 332 284 c 0,61,62
 318 263 318 263 306 244 c 0,63,64
 284 210 l 128,-1,65
 273 193 273 193 267 182 c 1,33,34
EndSplineSet
EndChar
StartChar: logicalnot
Encoding: 172 172 111
Width: 581
Flags: W
Fore
524 296 m 1,0,-1
 524 93 l 2,1,2
 524 78 524 78 513 67 c 128,-1,3
 502 56 502 56 487 56 c 0,4,5
 471 56 471 56 459 66.5 c 128,-1,6
 447 77 447 77 447 93 c 2,7,-1
 447 222 l 1,8,-1
 64 222 l 2,9,10
 48 222 48 222 37 233 c 128,-1,11
 26 244 26 244 26 260 c 0,12,13
 26 277 26 277 36.5 286.5 c 128,-1,14
 47 296 47 296 64 296 c 2,15,-1
 524 296 l 1,0,-1
EndSplineSet
EndChar
StartChar: registered
Encoding: 174 174 112
Width: 531
Flags: W
Fore
522 244 m 256,0,1
 522 191 522 191 501.5 144 c 128,-1,2
 481 97 481 97 446 62 c 128,-1,3
 411 27 411 27 364.5 7 c 128,-1,4
 318 -13 318 -13 265 -13 c 256,5,6
 212 -13 212 -13 165 7 c 128,-1,7
 118 27 118 27 83 62 c 128,-1,8
 48 97 48 97 28 144 c 128,-1,9
 8 191 8 191 8 244 c 256,10,11
 8 297 8 297 28 343.5 c 128,-1,12
 48 390 48 390 83 425 c 128,-1,13
 118 460 118 460 165 480.5 c 128,-1,14
 212 501 212 501 265 501 c 256,15,16
 318 501 318 501 364.5 480.5 c 128,-1,17
 411 460 411 460 446 425 c 128,-1,18
 481 390 481 390 501.5 343.5 c 128,-1,19
 522 297 522 297 522 244 c 256,0,1
473 244 m 0,20,21
 473 287 473 287 457 325 c 128,-1,22
 441 363 441 363 412.5 391.5 c 128,-1,23
 384 420 384 420 346 436 c 128,-1,24
 308 452 308 452 265 452 c 0,25,26
 221 452 221 452 183 436 c 128,-1,27
 145 420 145 420 117 391.5 c 128,-1,28
 89 363 89 363 72.5 325 c 128,-1,29
 56 287 56 287 56 244 c 0,30,31
 56 200 56 200 72.5 162 c 128,-1,32
 89 124 89 124 117 96 c 128,-1,33
 145 68 145 68 183 51.5 c 128,-1,34
 221 35 221 35 265 35 c 0,35,36
 308 35 308 35 346 51.5 c 128,-1,37
 384 68 384 68 412.5 96 c 128,-1,38
 441 124 441 124 457 162 c 128,-1,39
 473 200 473 200 473 244 c 0,20,21
223 223 m 1,40,41
 212 228 212 228 206.5 235 c 128,-1,42
 201 242 201 242 206 253 c 0,43,44
 211 263 211 263 222 264 c 128,-1,45
 233 265 233 265 241 261 c 0,46,47
 254 255 254 255 272.5 251.5 c 128,-1,48
 291 248 291 248 308.5 250 c 128,-1,49
 326 252 326 252 339.5 261.5 c 128,-1,50
 353 271 353 271 355 291 c 0,51,52
 358 316 358 316 337.5 336.5 c 128,-1,53
 317 357 317 357 270 356 c 0,54,55
 226 354 226 354 205 338.5 c 128,-1,56
 184 323 184 323 184 284 c 2,57,-1
 184 126 l 2,58,59
 184 115 184 115 180 107 c 128,-1,60
 176 99 176 99 164 99 c 0,61,62
 151 99 151 99 146 107 c 128,-1,63
 141 115 141 115 141 126 c 2,64,-1
 141 302 l 2,65,66
 141 327 141 327 152 345.5 c 128,-1,67
 163 364 163 364 181.5 376 c 128,-1,68
 200 388 200 388 223 394 c 128,-1,69
 246 400 246 400 270 400 c 0,70,71
 291 400 291 400 314 395 c 128,-1,72
 337 390 337 390 356 378.5 c 128,-1,73
 375 367 375 367 387.5 348 c 128,-1,74
 400 329 400 329 400 300 c 0,75,76
 400 277 400 277 392.5 260 c 128,-1,77
 385 243 385 243 372 232 c 128,-1,78
 359 221 359 221 343 216 c 128,-1,79
 327 211 327 211 311 211 c 1,80,81
 331 198 331 198 350.5 176.5 c 128,-1,82
 370 155 370 155 384 129 c 0,83,84
 389 121 389 121 389 112 c 128,-1,85
 389 103 389 103 376 98 c 0,86,87
 371 96 371 96 366 96 c 256,88,89
 361 96 361 96 356 99 c 128,-1,90
 351 102 351 102 346 112 c 0,91,92
 334 130 334 130 318 147 c 128,-1,93
 302 164 302 164 284.5 178 c 128,-1,94
 267 192 267 192 251 203.5 c 128,-1,95
 235 215 235 215 223 223 c 1,40,41
EndSplineSet
EndChar
StartChar: macron
Encoding: 175 175 113
Width: 328
Flags: W
Fore
60 422 m 1,0,1
 47 421 47 421 36 431.5 c 128,-1,2
 25 442 25 442 25 456 c 256,3,4
 25 470 25 470 35.5 480.5 c 128,-1,5
 46 491 46 491 60 491 c 2,6,-1
 265 491 l 2,7,8
 279 491 279 491 289.5 481 c 128,-1,9
 300 471 300 471 300 456 c 0,10,11
 300 442 300 442 289.5 432 c 128,-1,12
 279 422 279 422 265 422 c 2,13,-1
 60 422 l 1,14,-1
 60 422 l 1,0,1
EndSplineSet
EndChar
StartChar: degree
Encoding: 176 176 114
Width: 216
Flags: W
Fore
19 404 m 256,0,1
 19 441 19 441 44.5 466.5 c 128,-1,2
 70 492 70 492 107 492 c 256,3,4
 144 492 144 492 169.5 466.5 c 128,-1,5
 195 441 195 441 195 404 c 256,6,7
 195 367 195 367 169.5 341.5 c 128,-1,8
 144 316 144 316 107 316 c 256,9,10
 70 316 70 316 44.5 341.5 c 128,-1,11
 19 367 19 367 19 404 c 256,0,1
62 404 m 256,12,13
 62 385 62 385 75 372 c 128,-1,14
 88 359 88 359 107 359 c 256,15,16
 126 359 126 359 139 372 c 128,-1,17
 152 385 152 385 152 404 c 256,18,19
 152 423 152 423 139 436 c 128,-1,20
 126 449 126 449 107 449 c 256,21,22
 88 449 88 449 75 436 c 128,-1,23
 62 423 62 423 62 404 c 256,12,13
EndSplineSet
EndChar
StartChar: plusminus
Encoding: 177 177 115
Width: 429
Flags: W
Fore
389 241 m 0,0,1
 389 227 389 227 379 215 c 128,-1,2
 369 203 369 203 344 203 c 2,3,-1
 251 203 l 1,4,-1
 251 145 l 2,5,6
 251 120 251 120 239.5 110 c 128,-1,7
 228 100 228 100 214 100 c 0,8,9
 194 100 194 100 185 113 c 128,-1,10
 176 126 176 126 176 145 c 2,11,-1
 176 203 l 1,12,-1
 83 203 l 2,13,14
 64 203 64 203 51 212 c 128,-1,15
 38 221 38 221 38 241 c 0,16,17
 38 260 38 260 51 268.5 c 128,-1,18
 64 277 64 277 83 277 c 2,19,-1
 176 277 l 1,20,-1
 176 338 l 2,21,22
 176 357 176 357 185 369.5 c 128,-1,23
 194 382 194 382 214 382 c 0,24,25
 232 382 232 382 241.5 369 c 128,-1,26
 251 356 251 356 251 338 c 2,27,-1
 251 277 l 1,28,-1
 344 277 l 2,29,30
 363 277 363 277 376 268.5 c 128,-1,31
 389 260 389 260 389 241 c 0,0,1
385 38 m 0,32,33
 385 24 385 24 375.5 12 c 128,-1,34
 366 0 366 0 341 0 c 2,35,-1
 83 0 l 2,36,37
 64 0 64 0 51.5 9 c 128,-1,38
 39 18 39 18 39 38 c 0,39,40
 39 57 39 57 52 65.5 c 128,-1,41
 65 74 65 74 83 74 c 2,42,-1
 341 74 l 2,43,44
 359 74 359 74 372 65.5 c 128,-1,45
 385 57 385 57 385 38 c 0,32,33
EndSplineSet
EndChar
StartChar: twosuperior
Encoding: 178 178 116
Width: 309
Flags: W
Fore
262 239 m 1,0,1
 270 231 270 231 270 218 c 0,2,3
 270 207 270 207 262 198.5 c 128,-1,4
 254 190 254 190 243 190 c 2,5,-1
 70 190 l 2,6,7
 59 190 59 190 52 196 c 128,-1,8
 45 202 45 202 42 210.5 c 128,-1,9
 39 219 39 219 41 228.5 c 128,-1,10
 43 238 43 238 50 244 c 2,11,-1
 68 258 l 2,12,13
 82 269 82 269 109.5 291.5 c 128,-1,14
 137 314 137 314 190 357 c 0,15,16
 205 367 205 367 207.5 379.5 c 128,-1,17
 210 392 210 392 204 402.5 c 128,-1,18
 198 413 198 413 186 420.5 c 128,-1,19
 174 428 174 428 160 428 c 0,20,21
 131 428 131 428 116.5 413 c 128,-1,22
 102 398 102 398 100 378 c 0,23,24
 99 367 99 367 90 359 c 128,-1,25
 81 351 81 351 69 352 c 0,26,27
 58 354 58 354 50.5 362.5 c 128,-1,28
 43 371 43 371 44 383 c 0,29,30
 48 431 48 431 78 458 c 128,-1,31
 108 485 108 485 160 485 c 0,32,33
 195 485 195 485 220.5 467.5 c 128,-1,34
 246 450 246 450 257 423.5 c 128,-1,35
 268 397 268 397 262.5 367 c 128,-1,36
 257 337 257 337 230 313 c 0,37,38
 214 301 214 301 199 289 c 0,39,40
 186 278 186 278 172 266.5 c 128,-1,41
 158 255 158 255 147 247 c 1,42,-1
 243 247 l 2,43,44
 256 247 256 247 262 239 c 1,0,1
EndSplineSet
EndChar
StartChar: threesuperior
Encoding: 179 179 117
Width: 280
Flags: W
Fore
207 350 m 1,0,1
 223 345 223 345 235 324.5 c 128,-1,2
 247 304 247 304 247 278 c 0,3,4
 247 257 247 257 238.5 240 c 128,-1,5
 230 223 230 223 216 211 c 128,-1,6
 202 199 202 199 183.5 192.5 c 128,-1,7
 165 186 165 186 145 186 c 0,8,9
 124 186 124 186 104.5 190.5 c 128,-1,10
 85 195 85 195 70 206 c 128,-1,11
 55 217 55 217 46 235 c 128,-1,12
 37 253 37 253 37 279 c 0,13,14
 37 292 37 292 45 300 c 128,-1,15
 53 308 53 308 66 308 c 0,16,17
 80 308 80 308 88.5 300 c 128,-1,18
 97 292 97 292 97 279 c 0,19,20
 97 259 97 259 110.5 248.5 c 128,-1,21
 124 238 124 238 146 238 c 0,22,23
 163 238 163 238 177.5 246 c 128,-1,24
 192 254 192 254 196 275 c 0,25,26
 197 281 197 281 196 288.5 c 128,-1,27
 195 296 195 296 191 303 c 128,-1,28
 187 310 187 310 181 315 c 128,-1,29
 175 320 175 320 166 320 c 2,30,-1
 124 320 l 2,31,32
 112 320 112 320 104 329 c 128,-1,33
 96 338 96 338 96 349 c 0,34,35
 96 359 96 359 105 366.5 c 128,-1,36
 114 374 114 374 124 374 c 2,37,-1
 164 374 l 2,38,39
 169 374 169 374 177 381.5 c 128,-1,40
 185 389 185 389 183 404 c 0,41,42
 182 413 182 413 171 422.5 c 128,-1,43
 160 432 160 432 144 432 c 0,44,45
 116 432 116 432 108 423 c 128,-1,46
 100 414 100 414 99 406 c 0,47,48
 94 377 94 377 68 377 c 0,49,50
 55 377 55 377 47 385 c 128,-1,51
 39 393 39 393 39 406 c 0,52,53
 39 422 39 422 47.5 436.5 c 128,-1,54
 56 451 56 451 70 462 c 128,-1,55
 84 473 84 473 103.5 479 c 128,-1,56
 123 485 123 485 145 485 c 0,57,58
 186 485 186 485 209.5 463 c 128,-1,59
 233 441 233 441 238 414 c 0,60,61
 242 397 242 397 233 377.5 c 128,-1,62
 224 358 224 358 207 350 c 1,0,1
EndSplineSet
EndChar
StartChar: acute
Encoding: 180 180 118
Width: 253
Flags: W
Fore
140 500 m 1,0,-1
 225 500 l 1,1,-1
 130 399 l 1,2,-1
 85 399 l 1,3,-1
 140 500 l 1,0,-1
EndSplineSet
EndChar
StartChar: mu
Encoding: 181 181 119
Width: 480
Flags: W
Fore
113 31 m 2,0,1
 114 14 114 14 115 4 c 128,-1,2
 116 -6 116 -6 117 -13 c 128,-1,3
 118 -20 118 -20 119.5 -26 c 128,-1,4
 121 -32 121 -32 124 -40 c 0,5,6
 129 -56 129 -56 131.5 -77 c 128,-1,7
 134 -98 134 -98 131.5 -116.5 c 128,-1,8
 129 -135 129 -135 119.5 -147.5 c 128,-1,9
 110 -160 110 -160 91 -160 c 0,10,11
 68 -160 68 -160 57 -147.5 c 128,-1,12
 46 -135 46 -135 42.5 -117 c 128,-1,13
 39 -99 39 -99 41.5 -78.5 c 128,-1,14
 44 -58 44 -58 47 -42 c 0,15,16
 50 -33 50 -33 53 -19 c 0,17,18
 57 3 57 3 59 50 c 2,19,-1
 59 322 l 2,20,21
 59 337 59 337 70 347.5 c 128,-1,22
 81 358 81 358 95 358 c 0,23,24
 111 358 111 358 121 348 c 128,-1,25
 131 338 131 338 131 322 c 2,26,-1
 131 176 l 2,27,28
 131 127 131 127 157.5 98 c 128,-1,29
 184 69 184 69 239 69 c 0,30,31
 295 69 295 69 321 94.5 c 128,-1,32
 347 120 347 120 347 176 c 2,33,-1
 347 322 l 2,34,35
 347 337 347 337 357.5 347.5 c 128,-1,36
 368 358 368 358 383 358 c 0,37,38
 397 358 397 358 408.5 347.5 c 128,-1,39
 420 337 420 337 419 322 c 2,40,-1
 419 33 l 2,41,42
 419 17 419 17 408.5 6.5 c 128,-1,43
 398 -4 398 -4 383 -4 c 0,44,45
 369 -4 369 -4 357.5 5.5 c 128,-1,46
 346 15 346 15 347 30 c 2,47,-1
 347 38 l 1,48,49
 326 18 326 18 298.5 6.5 c 128,-1,50
 271 -5 271 -5 239 -5 c 0,51,52
 197 -5 197 -5 163.5 10.5 c 128,-1,53
 130 26 130 26 112 49 c 1,54,-1
 113 31 l 2,0,1
EndSplineSet
EndChar
StartChar: paragraph
Encoding: 182 182 120
Width: 403
Flags: W
Fore
324 457 m 0,0,1
 333 447 333 447 339 431.5 c 128,-1,2
 345 416 345 416 345 400 c 2,3,-1
 345 -119 l 2,4,5
 345 -135 345 -135 337 -147 c 128,-1,6
 329 -159 329 -159 312 -159 c 0,7,8
 293 -159 293 -159 287 -147 c 128,-1,9
 281 -135 281 -135 281 -119 c 2,10,-1
 281 400 l 1,11,-1
 214 400 l 1,12,-1
 214 -115 l 2,13,14
 214 -130 214 -130 206.5 -141.5 c 128,-1,15
 199 -153 199 -153 183 -153 c 256,16,17
 167 -153 167 -153 160 -141 c 128,-1,18
 153 -129 153 -129 153 -115 c 2,19,-1
 153 188 l 1,20,21
 129 188 129 188 106 197.5 c 128,-1,22
 83 207 83 207 65.5 224.5 c 128,-1,23
 48 242 48 242 37 268 c 128,-1,24
 26 294 26 294 25 327 c 0,25,26
 24 359 24 359 35.5 386 c 128,-1,27
 47 413 47 413 66.5 433 c 128,-1,28
 86 453 86 453 113 464.5 c 128,-1,29
 140 476 140 476 170 476 c 2,30,-1
 205 476 l 2,31,32
 220 476 220 476 237 475.5 c 128,-1,33
 254 475 254 475 270 476 c 0,34,35
 271 476 271 476 277 476 c 128,-1,36
 283 476 283 476 291 474 c 128,-1,37
 299 472 299 472 307.5 468 c 128,-1,38
 316 464 316 464 324 457 c 0,0,1
EndSplineSet
EndChar
StartChar: periodcentered
Encoding: 183 183 121
Width: 230
Flags: W
Fore
180 236 m 256,0,1
 180 209 180 209 161 190.5 c 128,-1,2
 142 172 142 172 115 172 c 0,3,4
 89 172 89 172 69.5 190.5 c 128,-1,5
 50 209 50 209 50 236 c 256,6,7
 50 263 50 263 69.5 282 c 128,-1,8
 89 301 89 301 115 301 c 0,9,10
 142 301 142 301 161 282 c 128,-1,11
 180 263 180 263 180 236 c 256,0,1
EndSplineSet
EndChar
StartChar: cedilla
Encoding: 184 184 122
Width: 216
Flags: W
Fore
189 -89 m 0,0,1
 184 -112 184 -112 168.5 -127 c 128,-1,2
 153 -142 153 -142 130.5 -148 c 128,-1,3
 108 -154 108 -154 81 -151 c 128,-1,4
 54 -148 54 -148 26 -134 c 1,5,-1
 48 -92 l 1,6,7
 55 -98 55 -98 67.5 -102 c 128,-1,8
 80 -106 80 -106 92 -106.5 c 128,-1,9
 104 -107 104 -107 113 -102 c 128,-1,10
 122 -97 122 -97 122 -85 c 0,11,12
 122 -68 122 -68 104 -63.5 c 128,-1,13
 86 -59 86 -59 60 -57 c 1,14,-1
 100 4 l 1,15,-1
 159 4 l 1,16,-1
 120 -32 l 1,17,18
 154 -27 154 -27 173.5 -45.5 c 128,-1,19
 193 -64 193 -64 189 -89 c 0,0,1
EndSplineSet
EndChar
StartChar: onesuperior
Encoding: 185 185 123
Width: 241
Flags: W
Fore
156 476 m 0,0,1
 163 471 163 471 165.5 464.5 c 128,-1,2
 168 458 168 458 168 452 c 2,3,-1
 168 214 l 2,4,5
 168 202 168 202 159.5 193 c 128,-1,6
 151 184 151 184 137 184 c 0,7,8
 126 184 126 184 117 193.5 c 128,-1,9
 108 203 108 203 108 214 c 2,10,-1
 108 411 l 1,11,-1
 77 399 l 2,12,13
 66 394 66 394 54 399 c 128,-1,14
 42 404 42 404 38 415 c 0,15,16
 33 426 33 426 38.5 437 c 128,-1,17
 44 448 44 448 57 453 c 2,18,-1
 127 479 l 2,19,20
 144 483 144 483 156 476 c 0,0,1
EndSplineSet
EndChar
StartChar: ordmasculine
Encoding: 186 186 124
Width: 294
Flags: W
Fore
269 308 m 0,0,1
 269 276 269 276 257.5 253 c 128,-1,2
 246 230 246 230 228 215.5 c 128,-1,3
 210 201 210 201 188.5 194 c 128,-1,4
 167 187 167 187 147 187 c 0,5,6
 121 187 121 187 99 196 c 128,-1,7
 77 205 77 205 61 220.5 c 128,-1,8
 45 236 45 236 36 257.5 c 128,-1,9
 27 279 27 279 27 304 c 0,10,11
 27 332 27 332 37.5 355 c 128,-1,12
 48 378 48 378 64.5 393.5 c 128,-1,13
 81 409 81 409 102.5 417.5 c 128,-1,14
 124 426 124 426 147 426 c 0,15,16
 175 426 175 426 198 416.5 c 128,-1,17
 221 407 221 407 236.5 391 c 128,-1,18
 252 375 252 375 260.5 353.5 c 128,-1,19
 269 332 269 332 269 308 c 0,0,1
212 306 m 0,20,21
 212 317 212 317 208.5 328.5 c 128,-1,22
 205 340 205 340 197.5 350 c 128,-1,23
 190 360 190 360 177.5 366 c 128,-1,24
 165 372 165 372 148 372 c 0,25,26
 116 372 116 372 100.5 351 c 128,-1,27
 85 330 85 330 85 305 c 0,28,29
 85 272 85 272 105.5 256.5 c 128,-1,30
 126 241 126 241 148 241 c 0,31,32
 172 241 172 241 192 256.5 c 128,-1,33
 212 272 212 272 212 306 c 0,20,21
EndSplineSet
EndChar
StartChar: guillemotright
Encoding: 187 187 125
Width: 391
Flags: W
Fore
280 182 m 1,0,1
 273 193 273 193 262.5 210 c 128,-1,2
 252 227 252 227 241 244 c 0,3,4
 229 263 229 263 215 284 c 0,5,6
 207 296 207 296 210.5 310 c 128,-1,7
 214 324 214 324 226 332 c 0,8,9
 239 340 239 340 253 336.5 c 128,-1,10
 267 333 267 333 274 321 c 2,11,-1
 349 201 l 2,12,13
 354 193 354 193 356 186 c 128,-1,14
 358 179 358 179 351 168 c 2,15,16
 345 158.5 l 130,-1,17
 339 149 339 149 330.5 135.5 c 128,-1,18
 322 122 322 122 312 106 c 128,-1,19
 302 90 302 90 293.5 76 c 128,-1,20
 285 62 285 62 279.5 53 c 128,-1,21
 275 45 275 45 274 44 c 2,22,23
 268 30 268 30 253 27 c 128,-1,24
 238 24 238 24 226 32 c 0,25,26
 214 38 214 38 211 53.5 c 128,-1,27
 208 69 208 69 215 80 c 0,28,29
 229 101 229 101 241 120 c 0,30,31
 252 137 252 137 262.5 154 c 128,-1,32
 273 171 273 171 280 182 c 1,0,1
120 182 m 1,33,34
 113 193 113 193 102.5 210 c 128,-1,35
 92 227 92 227 81 244 c 0,36,37
 69 263 69 263 55 284 c 0,38,39
 47 296 47 296 50.5 310 c 128,-1,40
 54 324 54 324 66 332 c 0,41,42
 79 340 79 340 93 336.5 c 128,-1,43
 107 333 107 333 114 321 c 2,44,-1
 189 201 l 2,45,46
 194 193 194 193 196 186 c 128,-1,47
 198 179 198 179 191 168 c 2,48,49
 185 158.5 l 130,-1,50
 179 149 179 149 170.5 135.5 c 128,-1,51
 162 122 162 122 152 106 c 128,-1,52
 142 90 142 90 133.5 76 c 128,-1,53
 125 62 125 62 119.5 53 c 128,-1,54
 115 45 115 45 114 44 c 2,55,56
 108 30 108 30 93 27 c 128,-1,57
 78 24 78 24 66 32 c 0,58,59
 54 38 54 38 51 53.5 c 128,-1,60
 48 69 48 69 55 80 c 0,61,62
 69 101 69 101 81 120 c 0,63,64
 92 137 92 137 102.5 154 c 128,-1,65
 113 171 113 171 120 182 c 1,33,34
EndSplineSet
EndChar
StartChar: onequarter
Encoding: 188 188 126
Width: 607
Flags: W
Fore
121 -10 m 1,0,-1
 405 483 l 1,1,-1
 464 483 l 1,2,-1
 180 -10 l 1,3,-1
 121 -10 l 1,0,-1
574 101 m 0,4,5
 581 93 581 93 582.5 84.5 c 128,-1,6
 584 76 584 76 579.5 68.5 c 128,-1,7
 575 61 575 61 566 56 c 128,-1,8
 557 51 557 51 544 52 c 1,9,-1
 544 30 l 2,10,11
 544 19 544 19 535.5 10 c 128,-1,12
 527 1 527 1 516 1 c 0,13,14
 504 1 504 1 496 10 c 128,-1,15
 488 19 488 19 488 30 c 2,16,-1
 488 52 l 1,17,-1
 351 52 l 2,18,19
 342 51 342 51 335.5 55.5 c 128,-1,20
 329 60 329 60 325.5 67.5 c 128,-1,21
 322 75 322 75 322.5 84 c 128,-1,22
 323 93 323 93 329 99 c 2,23,-1
 490 286 l 1,24,25
 491 288 491 288 498.5 293.5 c 128,-1,26
 506 299 506 299 517 298 c 0,27,28
 529 296 529 296 536.5 287.5 c 128,-1,29
 544 279 544 279 544 268 c 2,30,-1
 544 109 l 1,31,32
 566 109 566 109 574 101 c 0,4,5
406 108 m 1,33,-1
 486 108 l 1,34,-1
 486 202 l 1,35,-1
 406 108 l 1,33,-1
156 476 m 0,36,37
 163 471 163 471 165.5 464.5 c 128,-1,38
 168 458 168 458 168 452 c 2,39,-1
 168 214 l 2,40,41
 168 202 168 202 159.5 193 c 128,-1,42
 151 184 151 184 137 184 c 0,43,44
 126 184 126 184 117 193.5 c 128,-1,45
 108 203 108 203 108 214 c 2,46,-1
 108 411 l 1,47,-1
 77 399 l 2,48,49
 66 394 66 394 54 399 c 128,-1,50
 42 404 42 404 38 415 c 0,51,52
 33 426 33 426 38.5 437 c 128,-1,53
 44 448 44 448 57 453 c 2,54,-1
 127 479 l 2,55,56
 144 483 144 483 156 476 c 0,36,37
EndSplineSet
Ligature: 0 0 'frac' one fraction four
Ligature: 0 0 'frac' one slash four
EndChar
StartChar: onehalf
Encoding: 189 189 127
Width: 594
Flags: W
Fore
89 -7 m 1,0,-1
 373 486 l 1,1,-1
 433 486 l 1,2,-1
 148 -7 l 1,3,-1
 89 -7 l 1,0,-1
145 472 m 0,4,5
 151 467 151 467 153 460.5 c 128,-1,6
 155 454 155 454 155 448 c 2,7,-1
 155 210 l 2,8,9
 155 198 155 198 147 189 c 128,-1,10
 139 180 139 180 128 180 c 256,11,12
 117 180 117 180 107.5 189.5 c 128,-1,13
 98 199 98 199 98 210 c 2,14,-1
 98 407 l 1,15,-1
 65 395 l 2,16,17
 54 390 54 390 43.5 395 c 128,-1,18
 33 400 33 400 29 411 c 0,19,20
 24 422 24 422 29 433 c 128,-1,21
 34 444 34 444 45 449 c 2,22,-1
 118 475 l 2,23,24
 136 479 136 479 145 472 c 0,4,5
555 49 m 1,25,26
 561 43 561 43 562.5 34.5 c 128,-1,27
 564 26 564 26 561 18.5 c 128,-1,28
 558 11 558 11 551.5 5.5 c 128,-1,29
 545 0 545 0 536 0 c 2,30,-1
 363 0 l 2,31,32
 352 0 352 0 345 6 c 128,-1,33
 338 12 338 12 335 20.5 c 128,-1,34
 332 29 332 29 334 38.5 c 128,-1,35
 336 48 336 48 343 54 c 2,36,-1
 361 68 l 2,37,38
 375 79 375 79 402.5 101.5 c 128,-1,39
 430 124 430 124 483 167 c 0,40,41
 498 177 498 177 500.5 189.5 c 128,-1,42
 503 202 503 202 497 212.5 c 128,-1,43
 491 223 491 223 479 230.5 c 128,-1,44
 467 238 467 238 453 238 c 0,45,46
 424 238 424 238 409.5 223 c 128,-1,47
 395 208 395 208 393 188 c 0,48,49
 392 177 392 177 383 169 c 128,-1,50
 374 161 374 161 362 162 c 0,51,52
 351 164 351 164 343.5 172.5 c 128,-1,53
 336 181 336 181 337 193 c 0,54,55
 341 241 341 241 371 268 c 128,-1,56
 401 295 401 295 453 295 c 0,57,58
 488 295 488 295 513.5 277.5 c 128,-1,59
 539 260 539 260 550 233.5 c 128,-1,60
 561 207 561 207 555.5 177 c 128,-1,61
 550 147 550 147 523 123 c 0,62,63
 507 111 507 111 492 99 c 0,64,65
 479 88 479 88 465 76.5 c 128,-1,66
 451 65 451 65 440 57 c 1,67,-1
 536 57 l 2,68,69
 549 57 549 57 555 49 c 1,25,26
EndSplineSet
Ligature: 0 0 'frac' one fraction two
Ligature: 0 0 'frac' one slash two
EndChar
StartChar: threequarters
Encoding: 190 190 128
Width: 611
Flags: W
Fore
206 -9 m 1,0,-1
 492 484 l 1,1,-1
 432 484 l 1,2,-1
 147 -9 l 1,3,-1
 206 -9 l 1,0,-1
574 101 m 256,4,5
 582 93 582 93 582 80 c 0,6,7
 582 69 582 69 572.5 60.5 c 128,-1,8
 563 52 563 52 544 52 c 1,9,-1
 544 30 l 2,10,11
 544 19 544 19 535.5 10 c 128,-1,12
 527 1 527 1 516 1 c 0,13,14
 504 1 504 1 496 10 c 128,-1,15
 488 19 488 19 488 30 c 2,16,-1
 488 52 l 1,17,-1
 351 52 l 2,18,19
 342 51 342 51 335.5 55.5 c 128,-1,20
 329 60 329 60 325.5 67.5 c 128,-1,21
 322 75 322 75 322.5 84 c 128,-1,22
 323 93 323 93 329 99 c 2,23,-1
 490 286 l 1,24,25
 491 288 491 288 498.5 293.5 c 128,-1,26
 506 299 506 299 517 298 c 0,27,28
 529 296 529 296 536.5 287.5 c 128,-1,29
 544 279 544 279 544 268 c 2,30,-1
 544 109 l 1,31,32
 566 109 566 109 574 101 c 256,4,5
406 108 m 1,33,-1
 486 108 l 1,34,-1
 486 202 l 1,35,-1
 406 108 l 1,33,-1
202 343 m 1,36,37
 218 338 218 338 230 321 c 128,-1,38
 242 304 242 304 242 278 c 0,39,40
 242 257 242 257 233.5 240 c 128,-1,41
 225 223 225 223 211 211 c 128,-1,42
 197 199 197 199 178.5 192.5 c 128,-1,43
 160 186 160 186 140 186 c 0,44,45
 119 186 119 186 99.5 190.5 c 128,-1,46
 80 195 80 195 65 206 c 128,-1,47
 50 217 50 217 41 235 c 128,-1,48
 32 253 32 253 32 279 c 0,49,50
 32 292 32 292 40 300 c 128,-1,51
 48 308 48 308 61 308 c 0,52,53
 75 308 75 308 83.5 300 c 128,-1,54
 92 292 92 292 92 279 c 0,55,56
 92 259 92 259 105.5 248.5 c 128,-1,57
 119 238 119 238 141 238 c 0,58,59
 158 238 158 238 172.5 246 c 128,-1,60
 187 254 187 254 191 275 c 0,61,62
 193 286 193 286 186 299.5 c 128,-1,63
 179 313 179 313 161 313 c 2,64,-1
 119 313 l 2,65,66
 107 313 107 313 99 322 c 128,-1,67
 91 331 91 331 91 342 c 0,68,69
 91 352 91 352 100 359.5 c 128,-1,70
 109 367 109 367 119 367 c 2,71,-1
 159 367 l 2,72,73
 164 367 164 367 172 378 c 128,-1,74
 180 389 180 389 178 404 c 0,75,76
 177 413 177 413 166 423 c 128,-1,77
 155 433 155 433 139 433 c 0,78,79
 111 433 111 433 103 423.5 c 128,-1,80
 95 414 95 414 94 406 c 0,81,82
 89 377 89 377 63 377 c 0,83,84
 50 377 50 377 42 385 c 128,-1,85
 34 393 34 393 34 406 c 0,86,87
 34 422 34 422 42.5 436.5 c 128,-1,88
 51 451 51 451 65 462 c 128,-1,89
 79 473 79 473 98.5 479 c 128,-1,90
 118 485 118 485 140 485 c 0,91,92
 181 485 181 485 204.5 463 c 128,-1,93
 228 441 228 441 233 414 c 0,94,95
 235 405 235 405 233.5 394.5 c 128,-1,96
 232 384 232 384 228 374 c 128,-1,97
 224 364 224 364 217.5 355.5 c 128,-1,98
 211 347 211 347 202 343 c 1,36,37
EndSplineSet
Ligature: 0 0 'frac' three fraction four
Ligature: 0 0 'frac' three slash four
EndChar
StartChar: questiondown
Encoding: 191 191 129
Width: 464
Flags: W
Fore
49 3 m 256,0,1
 49 35 49 35 59.5 59.5 c 128,-1,2
 70 84 70 84 88.5 101 c 128,-1,3
 107 118 107 118 131 129 c 128,-1,4
 155 140 155 140 182 146 c 0,5,6
 193 148 193 148 203 150.5 c 128,-1,7
 213 153 213 153 221 159 c 0,8,9
 230 165 230 165 235.5 172.5 c 128,-1,10
 241 180 241 180 241 197 c 0,11,12
 241 222 241 222 252.5 229.5 c 128,-1,13
 264 237 264 237 278 237 c 0,14,15
 299 237 299 237 306.5 224.5 c 128,-1,16
 314 212 314 212 315 193 c 0,17,18
 315 162 315 162 304 141 c 128,-1,19
 293 120 293 120 256 97 c 0,20,21
 243 89 243 89 228.5 84.5 c 128,-1,22
 214 80 214 80 200 77 c 0,23,24
 184 73 184 73 170 68 c 128,-1,25
 156 63 156 63 145.5 55 c 128,-1,26
 135 47 135 47 129 34.5 c 128,-1,27
 123 22 123 22 123 3 c 0,28,29
 123 -20 123 -20 131.5 -36 c 128,-1,30
 140 -52 140 -52 154.5 -61.5 c 128,-1,31
 169 -71 169 -71 187 -75.5 c 128,-1,32
 205 -80 205 -80 224 -80 c 0,33,34
 256 -80 256 -80 286 -65.5 c 128,-1,35
 316 -51 316 -51 339 -26 c 0,36,37
 350 -15 350 -15 366 -14.5 c 128,-1,38
 382 -14 382 -14 393 -25 c 256,39,40
 404 -36 404 -36 404.5 -51.5 c 128,-1,41
 405 -67 405 -67 394 -78 c 0,42,43
 359 -114 359 -114 317 -133.5 c 128,-1,44
 275 -153 275 -153 226 -153 c 0,45,46
 181 -153 181 -153 148 -140.5 c 128,-1,47
 115 -128 115 -128 93 -107 c 128,-1,48
 71 -86 71 -86 60 -57.5 c 128,-1,49
 49 -29 49 -29 49 3 c 256,0,1
227 319 m 256,50,51
 227 339 227 339 242 353.5 c 128,-1,52
 257 368 257 368 278 368 c 256,53,54
 299 368 299 368 314 353.5 c 128,-1,55
 329 339 329 339 329 319 c 256,56,57
 329 299 329 299 314 284.5 c 128,-1,58
 299 270 299 270 278 270 c 256,59,60
 257 270 257 270 242 284.5 c 128,-1,61
 227 299 227 299 227 319 c 256,50,51
EndSplineSet
EndChar
StartChar: Aring
Encoding: 197 197 134
Width: 500
Flags: W
Fore
186 589 m 256,0,1
 186 616 186 616 205 635 c 128,-1,2
 224 654 224 654 251 654 c 256,3,4
 278 654 278 654 297 635 c 128,-1,5
 316 616 316 616 316 589 c 256,6,7
 316 562 316 562 297 543 c 128,-1,8
 278 524 278 524 251 524 c 256,9,10
 224 524 224 524 205 543 c 128,-1,11
 186 562 186 562 186 589 c 256,0,1
222 589 m 256,12,13
 222 577 222 577 230.5 568.5 c 128,-1,14
 239 560 239 560 251 560 c 256,15,16
 263 560 263 560 271 568.5 c 128,-1,17
 279 577 279 577 279 589 c 256,18,19
 279 601 279 601 271 609 c 128,-1,20
 263 617 263 617 251 617 c 256,21,22
 239 617 239 617 230.5 609 c 128,-1,23
 222 601 222 601 222 589 c 256,12,13
457 45 m 2,24,25
 457 20 457 20 446 10 c 128,-1,26
 435 0 435 0 421 0 c 0,27,28
 411 0 411 0 397 8 c 128,-1,29
 383 16 383 16 383 45 c 2,30,-1
 383 205 l 1,31,-1
 115 205 l 1,32,-1
 115 45 l 2,33,34
 115 20 115 20 103.5 10 c 128,-1,35
 92 0 92 0 78 0 c 0,36,37
 68 0 68 0 54.5 8 c 128,-1,38
 41 16 41 16 41 45 c 2,39,-1
 41 294 l 2,40,41
 41 333 41 333 52 368 c 128,-1,42
 63 403 63 403 87.5 430 c 128,-1,43
 112 457 112 457 152 473 c 128,-1,44
 192 489 192 489 250 489 c 0,45,46
 307 489 307 489 346.5 473.5 c 128,-1,47
 386 458 386 458 410.5 431.5 c 128,-1,48
 435 405 435 405 446 370 c 128,-1,49
 457 335 457 335 457 297 c 2,50,-1
 457 45 l 2,24,25
384 300 m 2,51,52
 384 322 384 322 378 343 c 128,-1,53
 372 364 372 364 357 381 c 128,-1,54
 342 398 342 398 316 408.5 c 128,-1,55
 290 419 290 419 250 419 c 0,56,57
 209 419 209 419 182.5 408.5 c 128,-1,58
 156 398 156 398 141 381 c 128,-1,59
 126 364 126 364 120.5 343 c 128,-1,60
 115 322 115 322 115 300 c 2,61,-1
 115 279 l 1,62,-1
 384 279 l 1,63,-1
 384 300 l 2,51,52
EndSplineSet
EndChar
StartChar: AE
Encoding: 198 198 135
Width: 836
Flags: W
Fore
384 300 m 2,0,1
 384 322 384 322 378 343 c 128,-1,2
 372 364 372 364 357 381 c 128,-1,3
 342 398 342 398 316 408.5 c 128,-1,4
 290 419 290 419 250 419 c 0,5,6
 209 419 209 419 182.5 408.5 c 128,-1,7
 156 398 156 398 141 381 c 128,-1,8
 126 364 126 364 120.5 343 c 128,-1,9
 115 322 115 322 115 300 c 2,10,-1
 115 279 l 1,11,-1
 384 279 l 1,12,-1
 384 300 l 2,0,1
457 45 m 2,13,14
 457 20 457 20 446 10 c 128,-1,15
 435 0 435 0 421 0 c 0,16,17
 411 0 411 0 397 8 c 128,-1,18
 383 16 383 16 383 45 c 2,19,-1
 383 205 l 1,20,-1
 115 205 l 1,21,-1
 115 45 l 2,22,23
 115 20 115 20 103.5 10 c 128,-1,24
 92 0 92 0 78 0 c 0,25,26
 68 0 68 0 54.5 8 c 128,-1,27
 41 16 41 16 41 45 c 2,28,-1
 41 294 l 2,29,30
 41 333 41 333 52 368 c 128,-1,31
 63 403 63 403 87.5 430 c 128,-1,32
 112 457 112 457 152 473 c 128,-1,33
 192 489 192 489 250 489 c 0,34,35
 314 489 314 489 356 469.5 c 128,-1,36
 398 450 398 450 422 418 c 1,37,38
 452 456 452 456 501 473.5 c 128,-1,39
 550 491 550 491 601 491 c 0,40,41
 633 491 633 491 663 485.5 c 128,-1,42
 693 480 693 480 718.5 469 c 128,-1,43
 744 458 744 458 764 442.5 c 128,-1,44
 784 427 784 427 796 407 c 0,45,46
 804 393 804 393 802 379 c 128,-1,47
 800 365 800 365 786 357 c 256,48,49
 772 349 772 349 757.5 353.5 c 128,-1,50
 743 358 743 358 733 370 c 0,51,52
 718 390 718 390 685 403 c 128,-1,53
 652 416 652 416 601 416 c 0,54,55
 579 416 579 416 553.5 410.5 c 128,-1,56
 528 405 528 405 506.5 393 c 128,-1,57
 485 381 485 381 471 361 c 128,-1,58
 457 341 457 341 457 312 c 2,59,-1
 457 280 l 1,60,-1
 636 279 l 2,61,62
 655 279 655 279 668 271 c 128,-1,63
 681 263 681 263 681 243 c 0,64,65
 681 229 681 229 671 217 c 128,-1,66
 661 205 661 205 636 205 c 2,67,-1
 457 205 l 1,68,-1
 457 185 l 2,69,70
 458 156 458 156 473 134 c 128,-1,71
 488 112 488 112 509 98 c 128,-1,72
 530 84 530 84 554.5 77 c 128,-1,73
 579 70 579 70 601 70 c 0,74,75
 652 70 652 70 685 83 c 128,-1,76
 718 96 718 96 733 116 c 0,77,78
 743 128 743 128 757.5 132.5 c 128,-1,79
 772 137 772 137 786 129 c 256,80,81
 800 121 800 121 802 107 c 128,-1,82
 804 93 804 93 796 79 c 0,83,84
 784 59 784 59 764 44 c 128,-1,85
 744 29 744 29 718.5 18.5 c 128,-1,86
 693 8 693 8 663 3 c 128,-1,87
 633 -2 633 -2 601 -2 c 0,88,89
 581 -2 581 -2 558.5 3.5 c 128,-1,90
 536 9 536 9 515.5 18 c 128,-1,91
 495 27 495 27 479 39.5 c 128,-1,92
 463 52 463 52 457 66 c 1,93,-1
 457 45 l 2,13,14
EndSplineSet
EndChar
StartChar: Eth
Encoding: 208 208 145
Width: 522
Flags: W
Fore
413 417 m 0,0,1
 445 386 445 386 463.5 340.5 c 128,-1,2
 482 295 482 295 483.5 246 c 128,-1,3
 485 197 485 197 468 150.5 c 128,-1,4
 451 104 451 104 413 71 c 0,5,6
 384 43 384 43 350 28.5 c 128,-1,7
 316 14 316 14 286.5 7.5 c 128,-1,8
 257 1 257 1 236.5 0.5 c 128,-1,9
 216 0 216 0 215 0 c 2,10,-1
 155 0 l 2,11,12
 116 1 116 1 88 28 c 0,13,14
 61 53 61 53 61 96 c 2,15,-1
 61 225 l 1,16,-1
 0 225 l 1,17,-1
 0 286 l 1,18,-1
 61 286 l 1,19,-1
 61 393 l 2,20,21
 61 433 61 433 88 462 c 0,22,23
 117 489 117 489 156 489 c 2,24,-1
 214 489 l 2,25,26
 216 489 216 489 236.5 488.5 c 128,-1,27
 257 488 257 488 286.5 481.5 c 128,-1,28
 316 475 316 475 350 460 c 128,-1,29
 384 445 384 445 413 417 c 0,0,1
361 125 m 0,30,31
 386 149 386 149 398 181.5 c 128,-1,32
 410 214 410 214 409.5 247 c 128,-1,33
 409 280 409 280 396.5 311 c 128,-1,34
 384 342 384 342 361 365 c 0,35,36
 341 384 341 384 316.5 394 c 128,-1,37
 292 404 292 404 269 409 c 0,38,39
 243 414 243 414 216 414 c 2,40,-1
 156 414 l 2,41,42
 135 414 135 414 135 394 c 2,43,-1
 135 286 l 1,44,-1
 244 286 l 1,45,-1
 244 225 l 1,46,-1
 135 225 l 1,47,-1
 135 94 l 2,48,49
 135 74 135 74 156 74 c 2,50,-1
 216 74 l 1,51,52
 231.5 74.5 l 130,-1,53
 247 75 247 75 269 79.5 c 128,-1,54
 291 84 291 84 316 94.5 c 128,-1,55
 341 105 341 105 361 125 c 0,30,31
EndSplineSet
EndChar
StartChar: multiply
Encoding: 215 215 152
Width: 460
Flags: W
Fore
388 51 m 0,0,1
 388 37 388 37 377 26 c 0,2,3
 363 12 363 12 347.5 15 c 128,-1,4
 332 18 332 18 319 31 c 2,5,-1
 229 120 l 1,6,-1
 139 31 l 2,7,8
 126 18 126 18 110.5 15 c 128,-1,9
 95 12 95 12 81 26 c 256,10,11
 67 40 67 40 70 55 c 128,-1,12
 73 70 73 70 87 83 c 2,13,-1
 177 173 l 1,14,-1
 88 262 l 2,15,16
 71 279 71 279 72 294.5 c 128,-1,17
 73 310 73 310 83 320 c 0,18,19
 97 334 97 334 112 331 c 128,-1,20
 127 328 127 328 140 314 c 2,21,-1
 229 225 l 1,22,-1
 319 316 l 2,23,24
 332 330 332 330 347 333 c 128,-1,25
 362 336 362 336 376 322 c 0,26,27
 386 312 386 312 387 296.5 c 128,-1,28
 388 281 388 281 371 264 c 2,29,-1
 281 173 l 1,30,-1
 371 83 l 2,31,32
 388 68 388 68 388 51 c 0,0,1
EndSplineSet
EndChar
StartChar: Oslash
Encoding: 216 216 153
Width: 542
Flags: W
Fore
437 418 m 2,0,1
 474 383 474 383 492 336.5 c 128,-1,2
 510 290 510 290 510 241 c 128,-1,3
 510 192 510 192 491.5 145.5 c 128,-1,4
 473 99 473 99 437 65 c 0,5,6
 411 38 411 38 378 21 c 128,-1,7
 345 4 345 4 309 -2 c 128,-1,8
 273 -8 273 -8 236.5 -3 c 128,-1,9
 200 2 200 2 168 19 c 1,10,-1
 130 -39 l 2,11,12
 123 -49 123 -49 112 -51.5 c 128,-1,13
 101 -54 101 -54 91 -48 c 0,14,15
 82 -42 82 -42 79.5 -31 c 128,-1,16
 77 -20 77 -20 84 -10 c 2,17,-1
 118 50 l 1,18,19
 77 85 77 85 55 132 c 128,-1,20
 33 179 33 179 31 229.5 c 128,-1,21
 29 280 29 280 46.5 329 c 128,-1,22
 64 378 64 378 102 418 c 0,23,24
 129 445 129 445 162.5 462 c 128,-1,25
 196 479 196 479 233 485 c 128,-1,26
 270 491 270 491 307.5 485.5 c 128,-1,27
 345 480 345 480 379 463 c 1,28,-1
 414 519 l 2,29,30
 420 530 420 530 431.5 533 c 128,-1,31
 443 536 443 536 454 530 c 0,32,33
 465 522 465 522 467.5 510.5 c 128,-1,34
 470 499 470 499 464 489 c 2,35,-1
 425 432 l 1,36,37
 428 429 428 429 431 425.5 c 128,-1,38
 434 422 434 422 437 418 c 2,0,1
157 119 m 2,39,40
 158 117 158 117 159 116.5 c 128,-1,41
 160 116 160 116 161 114 c 1,42,-1
 336 397 l 1,43,44
 314 408 314 408 289.5 411 c 128,-1,45
 265 414 265 414 241 409.5 c 128,-1,46
 217 405 217 405 195 393.5 c 128,-1,47
 173 382 173 382 157 365 c 0,48,49
 131 341 131 341 118 308.5 c 128,-1,50
 105 276 105 276 105 241.5 c 128,-1,51
 105 207 105 207 118 174.5 c 128,-1,52
 131 142 131 142 157 119 c 2,39,40
385 119 m 0,53,54
 410 142 410 142 422.5 174.5 c 128,-1,55
 435 207 435 207 435 241.5 c 128,-1,56
 435 276 435 276 422.5 308.5 c 128,-1,57
 410 341 410 341 385 365 c 1,58,-1
 207 82 l 1,59,60
 252 66 252 66 301 73.5 c 128,-1,61
 350 81 350 81 385 119 c 0,53,54
EndSplineSet
EndChar
StartChar: Thorn
Encoding: 222 222 159
Width: 474
Flags: W
Fore
268 420 m 2,0,1
 285 420 285 420 313.5 415.5 c 128,-1,2
 342 411 342 411 370 394 c 128,-1,3
 398 377 398 377 418 344 c 128,-1,4
 438 311 438 311 438 254 c 0,5,6
 438 212 438 212 423 181.5 c 128,-1,7
 408 151 408 151 385 131.5 c 128,-1,8
 362 112 362 112 334 103 c 128,-1,9
 306 94 306 94 279 94 c 2,10,-1
 134 94 l 1,11,-1
 135 14 l 2,12,13
 135 -2 135 -2 122.5 -9.5 c 128,-1,14
 110 -17 110 -17 99 -17 c 256,15,16
 88 -17 88 -17 74.5 -9.5 c 128,-1,17
 61 -2 61 -2 61 14 c 2,18,-1
 61 469 l 2,19,20
 61 485 61 485 74.5 492.5 c 128,-1,21
 88 500 88 500 99 500 c 256,22,23
 110 500 110 500 122.5 492.5 c 128,-1,24
 135 485 135 485 135 469 c 2,25,-1
 135 420 l 1,26,-1
 268 420 l 2,0,1
278 152 m 2,27,28
 313 152 313 152 339.5 177 c 128,-1,29
 366 202 366 202 366 249 c 0,30,31
 366 302 366 302 341 326.5 c 128,-1,32
 316 351 316 351 278 351 c 2,33,-1
 135 351 l 1,34,-1
 135 152 l 1,35,-1
 278 152 l 2,27,28
EndSplineSet
EndChar
StartChar: uni00DF
Encoding: 223 223 160
Width: 456
Flags: W
Fore
199 69 m 2,0,-1
 219 69 l 2,1,2
 270 71 270 71 299.5 99.5 c 128,-1,3
 329 128 329 128 327 177 c 0,4,5
 327 199 327 199 318 218 c 128,-1,6
 309 237 309 237 294 251 c 128,-1,7
 279 265 279 265 259.5 273.5 c 128,-1,8
 240 282 240 282 219 282 c 2,9,-1
 175 282 l 1,10,-1
 175 345 l 1,11,-1
 225 345 l 2,12,13
 253 345 253 345 266.5 358.5 c 128,-1,14
 280 372 280 372 281 390 c 0,15,16
 282 411 282 411 268.5 424.5 c 128,-1,17
 255 438 255 438 236 443 c 128,-1,18
 217 448 217 448 195.5 444.5 c 128,-1,19
 174 441 174 441 158 429 c 0,20,21
 146 419 146 419 136.5 402 c 128,-1,22
 127 385 127 385 127 356 c 2,23,-1
 127 32 l 2,24,25
 127 17 127 17 117.5 8 c 128,-1,26
 108 -1 108 -1 94 -1 c 256,27,28
 80 -1 80 -1 71 8.5 c 128,-1,29
 62 18 62 18 62 32 c 2,30,-1
 62 361 l 2,31,32
 62 427 62 427 101.5 463.5 c 128,-1,33
 141 500 141 500 205 500 c 0,34,35
 261 500 261 500 295.5 477.5 c 128,-1,36
 330 455 330 455 342.5 424 c 128,-1,37
 355 393 355 393 347 362 c 128,-1,38
 339 331 339 331 310 314 c 1,39,40
 332 305 332 305 348 289.5 c 128,-1,41
 364 274 364 274 374.5 255 c 128,-1,42
 385 236 385 236 390.5 215 c 128,-1,43
 396 194 396 194 396 174 c 0,44,45
 396 139 396 139 384 108 c 128,-1,46
 372 77 372 77 350 54 c 128,-1,47
 328 31 328 31 296.5 17 c 128,-1,48
 265 3 265 3 227 2 c 2,49,-1
 207 2 l 2,50,51
 190 1 190 1 176 9 c 128,-1,52
 162 17 162 17 162 35 c 0,53,54
 162 49 162 49 173.5 58.5 c 128,-1,55
 185 68 185 68 199 69 c 2,0,-1
EndSplineSet
EndChar
StartChar: ae
Encoding: 230 230 167
Width: 738
Flags: W
Fore
663 316 m 0,0,1
 682 295 682 295 691 275 c 128,-1,2
 700 255 700 255 702.5 237 c 128,-1,3
 705 219 705 219 703.5 205.5 c 128,-1,4
 702 192 702 192 699 185 c 0,5,6
 690 163 690 163 672 156.5 c 128,-1,7
 654 150 654 150 632 150 c 2,8,-1
 407 150 l 1,9,10
 408 127 408 127 418.5 110 c 128,-1,11
 429 93 429 93 445.5 81.5 c 128,-1,12
 462 70 462 70 482.5 64 c 128,-1,13
 503 58 503 58 525 58 c 0,14,15
 560 58 560 58 582.5 67 c 128,-1,16
 605 76 605 76 618 90 c 0,17,18
 634 106 634 106 647 108 c 128,-1,19
 660 110 660 110 671 102 c 0,20,21
 683 92 683 92 683 73.5 c 128,-1,22
 683 55 683 55 672 44 c 0,23,24
 644 20 644 20 610.5 5.5 c 128,-1,25
 577 -9 577 -9 525 -9 c 0,26,27
 477 -9 477 -9 436.5 8 c 128,-1,28
 396 25 396 25 370 58 c 1,29,30
 354 38 354 38 334 25 c 128,-1,31
 314 12 314 12 292 4.5 c 128,-1,32
 270 -3 270 -3 247.5 -5.5 c 128,-1,33
 225 -8 225 -8 205 -8 c 0,34,35
 124 -8 124 -8 77.5 24.5 c 128,-1,36
 31 57 31 57 31 120 c 0,37,38
 31 148 31 148 44.5 171.5 c 128,-1,39
 58 195 58 195 82 212 c 128,-1,40
 106 229 106 229 139.5 239 c 128,-1,41
 173 249 173 249 214 249 c 0,42,43
 253 249 253 249 284.5 235 c 128,-1,44
 316 221 316 221 333 208 c 1,45,-1
 333 210 l 2,46,47
 327 259 327 259 296.5 279.5 c 128,-1,48
 266 300 266 300 206 300 c 0,49,50
 176 300 176 300 150 292 c 128,-1,51
 124 284 124 284 104 272 c 0,52,53
 82 260 82 260 71.5 264.5 c 128,-1,54
 61 269 61 269 58 272 c 0,55,56
 44 287 44 287 49.5 302.5 c 128,-1,57
 55 318 55 318 70 329 c 0,58,59
 127 365 127 365 205 365 c 0,60,61
 264 365 264 365 304.5 348.5 c 128,-1,62
 345 332 345 332 373 296 c 1,63,64
 399 330 399 330 438.5 347.5 c 128,-1,65
 478 365 478 365 525 365 c 0,66,67
 579 365 579 365 611 349 c 128,-1,68
 643 333 643 333 663 316 c 0,0,1
208 54 m 0,69,70
 259 54 259 54 292.5 71.5 c 128,-1,71
 326 89 326 89 326 118 c 0,72,73
 326 138 326 138 316 151 c 128,-1,74
 306 164 306 164 290 172 c 128,-1,75
 274 180 274 180 253 183 c 128,-1,76
 232 186 232 186 211 186 c 0,77,78
 193 186 193 186 174 182 c 128,-1,79
 155 178 155 178 139.5 170 c 128,-1,80
 124 162 124 162 114 150.5 c 128,-1,81
 104 139 104 139 103 124 c 1,82,83
 106 88 106 88 135 71 c 128,-1,84
 164 54 164 54 208 54 c 0,69,70
635 219 m 1,85,86
 631 235 631 235 623.5 249.5 c 128,-1,87
 616 264 616 264 603 275.5 c 128,-1,88
 590 287 590 287 571.5 293.5 c 128,-1,89
 553 300 553 300 527 300 c 0,90,91
 498 300 498 300 477 291.5 c 128,-1,92
 456 283 456 283 441.5 270.5 c 128,-1,93
 427 258 427 258 419.5 244 c 128,-1,94
 412 230 412 230 412 219 c 1,95,-1
 635 219 l 1,85,86
EndSplineSet
EndChar
StartChar: eth
Encoding: 240 240 177
Width: 473
Flags: W
Fore
365 440 m 1,0,1
 388 407 388 407 404 356 c 128,-1,2
 420 305 420 305 420 244 c 2,3,-1
 420 37 l 2,4,5
 420 21 420 21 408.5 10 c 128,-1,6
 397 -1 397 -1 382 -1 c 256,7,8
 367 -1 367 -1 356 10 c 128,-1,9
 345 21 345 21 346 37 c 2,10,-1
 346 38 l 1,11,12
 323 19 323 19 291.5 10 c 128,-1,13
 260 1 260 1 225 1 c 0,14,15
 177 1 177 1 140.5 16.5 c 128,-1,16
 104 32 104 32 80 57.5 c 128,-1,17
 56 83 56 83 44 116.5 c 128,-1,18
 32 150 32 150 32 186 c 256,19,20
 32 222 32 222 45.5 255 c 128,-1,21
 59 288 59 288 84.5 313.5 c 128,-1,22
 110 339 110 339 145.5 354 c 128,-1,23
 181 369 181 369 225 369 c 0,24,25
 270 369 270 369 299 358.5 c 128,-1,26
 328 348 328 348 346 332 c 1,27,28
 341 357 341 357 328 379.5 c 128,-1,29
 315 402 315 402 303 416 c 1,30,-1
 253 396 l 1,31,-1
 224 429 l 1,32,-1
 269 450 l 1,33,34
 258 457 258 457 244.5 467 c 128,-1,35
 231 477 231 477 221 481 c 256,36,37
 211 485 211 485 206.5 491.5 c 128,-1,38
 202 498 202 498 201 504.5 c 128,-1,39
 200 511 200 511 202 517 c 128,-1,40
 204 523 204 523 208 527 c 0,41,42
 221 540 221 540 234.5 537 c 128,-1,43
 248 534 248 534 255 532 c 1,44,45
 275 523 275 523 297 507 c 128,-1,46
 319 491 319 491 334 477 c 1,47,-1
 383 498 l 1,48,-1
 416 461 l 1,49,-1
 365 440 l 1,0,1
344 188 m 2,50,51
 344 243 344 243 310 269.5 c 128,-1,52
 276 296 276 296 225 296 c 0,53,54
 198 296 198 296 175.5 287 c 128,-1,55
 153 278 153 278 137 263 c 128,-1,56
 121 248 121 248 112.5 228 c 128,-1,57
 104 208 104 208 104 186 c 256,58,59
 104 164 104 164 112.5 144 c 128,-1,60
 121 124 121 124 136.5 109 c 128,-1,61
 152 94 152 94 174.5 85 c 128,-1,62
 197 76 197 76 225 76 c 0,63,64
 276 76 276 76 309.5 102.5 c 128,-1,65
 343 129 343 129 344 187 c 2,66,-1
 344 188 l 2,50,51
EndSplineSet
EndChar
StartChar: divide
Encoding: 247 247 184
Width: 501
Flags: W
Fore
68 132 m 2,0,-1
 430 132 l 2,1,2
 447 132 447 132 458 144 c 128,-1,3
 469 156 469 156 469 173 c 256,4,5
 469 190 469 190 458.5 202 c 128,-1,6
 448 214 448 214 430 214 c 2,7,-1
 68 214 l 2,8,9
 51 214 51 214 39.5 202 c 128,-1,10
 28 190 28 190 28 173 c 256,11,12
 28 156 28 156 40 144 c 128,-1,13
 52 132 52 132 68 132 c 2,0,-1
244 250 m 256,14,15
 225 250 225 250 210 264 c 128,-1,16
 195 278 195 278 195 297 c 0,17,18
 195 317 195 317 210 331 c 128,-1,19
 225 345 225 345 244 345 c 256,20,21
 263 345 263 345 276.5 331 c 128,-1,22
 290 317 290 317 290 297 c 0,23,24
 290 278 290 278 276.5 264 c 128,-1,25
 263 250 263 250 244 250 c 256,14,15
244 4 m 256,26,27
 225 4 225 4 210 18 c 128,-1,28
 195 32 195 32 195 52 c 256,29,30
 195 72 195 72 210 86 c 128,-1,31
 225 100 225 100 244 100 c 256,32,33
 263 100 263 100 276.5 86 c 128,-1,34
 290 72 290 72 290 52 c 256,35,36
 290 32 290 32 276.5 18 c 128,-1,37
 263 4 263 4 244 4 c 256,26,27
EndSplineSet
EndChar
StartChar: oslash
Encoding: 248 248 185
Width: 441
Flags: W
Fore
352 318 m 2,0,1
 379 291 379 291 393.5 255 c 128,-1,2
 408 219 408 219 408 181 c 0,3,4
 408 100 408 100 352 41 c 0,5,6
 330 19 330 19 302.5 6 c 128,-1,7
 275 -7 275 -7 245.5 -11 c 128,-1,8
 216 -15 216 -15 186 -10 c 128,-1,9
 156 -5 156 -5 129 10 c 1,10,-1
 99 -35 l 2,11,12
 94 -43 94 -43 85.5 -45 c 128,-1,13
 77 -47 77 -47 69 -41 c 0,14,15
 61 -36 61 -36 59.5 -27 c 128,-1,16
 58 -18 58 -18 63 -10 c 2,17,-1
 93 36 l 1,18,19
 64 64 64 64 48.5 100.5 c 128,-1,20
 33 137 33 137 31.5 175 c 128,-1,21
 30 213 30 213 44 250.5 c 128,-1,22
 58 288 58 288 87 318 c 0,23,24
 108 339 108 339 135 352.5 c 128,-1,25
 162 366 162 366 191 371 c 128,-1,26
 220 376 220 376 249.5 371.5 c 128,-1,27
 279 367 279 367 304 352 c 1,28,-1
 333 396 l 2,29,30
 348 413 348 413 362 403 c 0,31,32
 370 398 370 398 373.5 388.5 c 128,-1,33
 377 379 377 379 372 371 c 2,34,-1
 344 326 l 1,35,-1
 352 318 l 2,0,1
89 181 m 0,36,37
 89 125 89 125 125 87 c 1,38,-1
 273 303 l 1,39,40
 238 319 238 319 198 312.5 c 128,-1,41
 158 306 158 306 128 277 c 0,42,43
 89 235 89 235 89 181 c 0,36,37
308 84 m 1,44,45
 329 102 329 102 339.5 127.5 c 128,-1,46
 350 153 350 153 350 180 c 128,-1,47
 350 207 350 207 339.5 232.5 c 128,-1,48
 329 258 329 258 308 277 c 1,49,-1
 164 59 l 1,50,51
 199 39 199 39 240.5 46.5 c 128,-1,52
 282 54 282 54 308 84 c 1,44,45
EndSplineSet
EndChar
StartChar: thorn
Encoding: 254 254 191
Width: 458
Flags: W
Fore
136 22 m 1,0,-1
 136 -125 l 2,1,2
 137 -143 137 -143 126.5 -155.5 c 128,-1,3
 116 -168 116 -168 99 -168 c 0,4,5
 79 -168 79 -168 70.5 -155.5 c 128,-1,6
 62 -143 62 -143 62 -125 c 2,7,-1
 62 470 l 2,8,9
 62 489 62 489 70.5 501.5 c 128,-1,10
 79 514 79 514 99 514 c 0,11,12
 118 514 118 514 127 501.5 c 128,-1,13
 136 489 136 489 136 470 c 1,14,15
 135 470 135 470 135 455 c 2,16,-1
 135 327 l 1,17,18
 157 343 157 343 185 354.5 c 128,-1,19
 213 366 213 366 242 366 c 0,20,21
 289 366 289 366 324.5 347 c 128,-1,22
 360 328 360 328 383.5 298 c 128,-1,23
 407 268 407 268 417 230.5 c 128,-1,24
 427 193 427 193 424 156 c 0,25,26
 420 121 420 121 406 91 c 128,-1,27
 392 61 392 61 368.5 38 c 128,-1,28
 345 15 345 15 311.5 2 c 128,-1,29
 278 -11 278 -11 236 -11 c 0,30,31
 213 -11 213 -11 186.5 -3.5 c 128,-1,32
 160 4 160 4 137 21 c 1,33,-1
 136 22 l 1,0,-1
235 58 m 0,34,35
 289 55 289 55 321.5 89 c 128,-1,36
 354 123 354 123 354 183 c 0,37,38
 354 203 354 203 345.5 223 c 128,-1,39
 337 243 337 243 322 259 c 128,-1,40
 307 275 307 275 286.5 284 c 128,-1,41
 266 293 266 293 241 292 c 0,42,43
 194 290 194 290 162.5 261.5 c 128,-1,44
 131 233 131 233 127 195 c 0,45,46
 121 135 121 135 149.5 98 c 128,-1,47
 178 61 178 61 235 58 c 0,34,35
EndSplineSet
EndChar
StartChar: Lslash
Encoding: 321 321 193
Width: 476
Flags: W
Fore
441 62 m 0,0,1
 451 53 451 53 451 37 c 0,2,3
 451 23 451 23 441.5 11 c 128,-1,4
 432 -1 432 -1 408 -1 c 2,5,-1
 159 -1 l 2,6,7
 107 -1 107 -1 85.5 27.5 c 128,-1,8
 64 56 64 56 64 96 c 2,9,-1
 64 219 l 1,10,-1
 3 180 l 1,11,-1
 3 232 l 1,12,-1
 64 271 l 1,13,-1
 64 442 l 2,14,15
 64 461 64 461 74 474 c 128,-1,16
 84 487 84 487 104 487 c 0,17,18
 123 487 123 487 131 473.5 c 128,-1,19
 139 460 139 460 139 442 c 2,20,-1
 139 317 l 1,21,-1
 196 351 l 1,22,-1
 196 299 l 1,23,-1
 139 265 l 1,24,-1
 139 94 l 2,25,26
 139 85 139 85 143.5 79 c 128,-1,27
 148 73 148 73 159 73 c 2,28,-1
 408 73 l 2,29,30
 430 73 430 73 441 62 c 0,0,1
EndSplineSet
EndChar
StartChar: lslash
Encoding: 322 322 194
Width: 201
Flags: W
Fore
190 386 m 1,0,-1
 190 336 l 1,1,-1
 135 289 l 1,2,-1
 135 44 l 2,3,4
 135 19 135 19 123 9 c 128,-1,5
 111 -1 111 -1 98 -1 c 0,6,7
 76 -1 76 -1 68.5 11.5 c 128,-1,8
 61 24 61 24 61 44 c 2,9,-1
 61 223 l 1,10,-1
 8 173 l 1,11,-1
 8 225 l 1,12,-1
 61 274 l 1,13,-1
 61 524 l 2,14,15
 61 544 61 544 68.5 556.5 c 128,-1,16
 76 569 76 569 98 569 c 0,17,18
 118 569 118 569 126.5 557 c 128,-1,19
 135 545 135 545 135 524 c 2,20,-1
 135 340 l 1,21,-1
 190 386 l 1,0,-1
EndSplineSet
EndChar
StartChar: OE
Encoding: 338 338 195
Width: 890
Flags: W
Fore
453 82 m 1,0,1
 420 42 420 42 372.5 18 c 128,-1,2
 325 -6 325 -6 269 -6 c 0,3,4
 219 -6 219 -6 175 14 c 128,-1,5
 131 34 131 34 98.5 68 c 128,-1,6
 66 102 66 102 47 146.5 c 128,-1,7
 28 191 28 191 28 241 c 0,8,9
 28 290 28 290 47 335 c 128,-1,10
 66 380 66 380 98.5 414 c 128,-1,11
 131 448 131 448 175 468 c 128,-1,12
 219 488 219 488 269 488 c 0,13,14
 324 488 324 488 371 464 c 128,-1,15
 418 440 418 440 451 401 c 1,16,17
 464 426 464 426 486.5 443.5 c 128,-1,18
 509 461 509 461 536 471.5 c 128,-1,19
 563 482 563 482 593 486.5 c 128,-1,20
 623 491 623 491 653 491 c 0,21,22
 685 491 685 491 715 485.5 c 128,-1,23
 745 480 745 480 770.5 469 c 128,-1,24
 796 458 796 458 816 442.5 c 128,-1,25
 836 427 836 427 848 407 c 0,26,27
 856 393 856 393 854 379 c 128,-1,28
 852 365 852 365 838 357 c 256,29,30
 824 349 824 349 809.5 353.5 c 128,-1,31
 795 358 795 358 785 370 c 0,32,33
 770 390 770 390 737 403 c 128,-1,34
 704 416 704 416 653 416 c 0,35,36
 631 416 631 416 605.5 413 c 128,-1,37
 580 410 580 410 558.5 400.5 c 128,-1,38
 537 391 537 391 523 373.5 c 128,-1,39
 509 356 509 356 509 327 c 2,40,-1
 509 280 l 1,41,-1
 688 279 l 2,42,43
 707 279 707 279 720 271 c 128,-1,44
 733 263 733 263 733 243 c 0,45,46
 733 229 733 229 723 217 c 128,-1,47
 713 205 713 205 688 205 c 2,48,-1
 509 205 l 1,49,-1
 509 160 l 2,50,51
 509 129 509 129 523 111 c 128,-1,52
 537 93 537 93 558.5 84 c 128,-1,53
 580 75 580 75 605.5 72.5 c 128,-1,54
 631 70 631 70 653 70 c 0,55,56
 704 70 704 70 737 83 c 128,-1,57
 770 96 770 96 785 116 c 0,58,59
 795 128 795 128 809.5 132.5 c 128,-1,60
 824 137 824 137 838 129 c 256,61,62
 852 121 852 121 854 107 c 128,-1,63
 856 93 856 93 848 79 c 0,64,65
 836 59 836 59 816 43.5 c 128,-1,66
 796 28 796 28 770.5 17 c 128,-1,67
 745 6 745 6 715 0.5 c 128,-1,68
 685 -5 685 -5 653 -5 c 0,69,70
 624 -5 624 -5 594 -0.5 c 128,-1,71
 564 4 564 4 537 14 c 128,-1,72
 510 24 510 24 488 41 c 128,-1,73
 466 58 466 58 453 82 c 1,0,1
434 241 m 256,74,75
 434 275 434 275 421 306 c 128,-1,76
 408 337 408 337 386 360.5 c 128,-1,77
 364 384 364 384 333.5 398 c 128,-1,78
 303 412 303 412 269 412 c 0,79,80
 234 412 234 412 204 398 c 128,-1,81
 174 384 174 384 151.5 361 c 128,-1,82
 129 338 129 338 116.5 306.5 c 128,-1,83
 104 275 104 275 104 241 c 0,84,85
 104 206 104 206 116.5 175 c 128,-1,86
 129 144 129 144 151.5 121 c 128,-1,87
 174 98 174 98 204 84 c 128,-1,88
 234 70 234 70 269 70 c 0,89,90
 303 70 303 70 333.5 84 c 128,-1,91
 364 98 364 98 386 121.5 c 128,-1,92
 408 145 408 145 421 176 c 128,-1,93
 434 207 434 207 434 241 c 256,74,75
EndSplineSet
EndChar
StartChar: oe
Encoding: 339 339 196
Width: 756
Flags: W
Fore
679 315 m 0,0,1
 698 295 698 295 707 274.5 c 128,-1,2
 716 254 716 254 719 236 c 128,-1,3
 722 218 722 218 719.5 204.5 c 128,-1,4
 717 191 717 191 714 184 c 0,5,6
 706 163 706 163 688 156 c 128,-1,7
 670 149 670 149 650 149 c 2,8,-1
 423 149 l 1,9,10
 430 105 430 105 462 81.5 c 128,-1,11
 494 58 494 58 542 58 c 0,12,13
 576 58 576 58 599 66.5 c 128,-1,14
 622 75 622 75 637 89 c 0,15,16
 666 118 666 118 686 100 c 0,17,18
 698 89 698 89 699 71 c 128,-1,19
 700 53 700 53 687 42 c 0,20,21
 661 19 661 19 627.5 4.5 c 128,-1,22
 594 -10 594 -10 543 -10 c 0,23,24
 437 -10 437 -10 381 64 c 1,25,26
 355 28 355 28 314.5 10.5 c 128,-1,27
 274 -7 274 -7 223 -7 c 0,28,29
 178 -7 178 -7 142.5 8 c 128,-1,30
 107 23 107 23 82 48.5 c 128,-1,31
 57 74 57 74 43.5 107.5 c 128,-1,32
 30 141 30 141 30 178 c 0,33,34
 30 221 30 221 44 255.5 c 128,-1,35
 58 290 58 290 83.5 314 c 128,-1,36
 109 338 109 338 144.5 350.5 c 128,-1,37
 180 363 180 363 223 363 c 0,38,39
 276 363 276 363 317.5 344.5 c 128,-1,40
 359 326 359 326 384 287 c 1,41,42
 411 325 411 325 451.5 344.5 c 128,-1,43
 492 364 492 364 543 364 c 0,44,45
 595 364 595 364 628.5 348 c 128,-1,46
 662 332 662 332 679 315 c 0,0,1
315 97 m 0,47,48
 326 108 326 108 332.5 120.5 c 128,-1,49
 339 133 339 133 342 144 c 128,-1,50
 345 155 345 155 346 164 c 128,-1,51
 347 173 347 173 347 178 c 0,52,53
 347 225 347 225 313.5 257 c 128,-1,54
 280 289 280 289 223 289 c 0,55,56
 165 289 165 289 132.5 257.5 c 128,-1,57
 100 226 100 226 100 178 c 256,58,59
 100 130 100 130 133 98 c 128,-1,60
 166 66 166 66 223 66 c 0,61,62
 281 66 281 66 315 97 c 0,47,48
653 217 m 1,63,64
 648 250 648 250 622.5 274 c 128,-1,65
 597 298 597 298 545 298 c 0,66,67
 516 298 516 298 495 289.5 c 128,-1,68
 474 281 474 281 459.5 269 c 128,-1,69
 445 257 445 257 437 243 c 128,-1,70
 429 229 429 229 428 217 c 1,71,-1
 653 217 l 1,63,64
EndSplineSet
EndChar
StartChar: florin
Encoding: 402 402 202
Width: 361
Flags: W
Fore
253 398 m 0,0,1
 247 377 247 377 245.5 350.5 c 128,-1,2
 244 324 244 324 239 304 c 1,3,-1
 305 304 l 1,4,-1
 296 246 l 1,5,-1
 228 246 l 1,6,7
 224 227 224 227 217.5 193.5 c 128,-1,8
 211 160 211 160 204 126 c 128,-1,9
 197 92 197 92 191.5 65 c 128,-1,10
 186 38 186 38 185 34 c 0,11,12
 179 10 179 10 170.5 -19.5 c 128,-1,13
 162 -49 162 -49 147.5 -75 c 128,-1,14
 133 -101 133 -101 112 -119 c 128,-1,15
 91 -137 91 -137 60 -137 c 0,16,17
 41 -137 41 -137 27.5 -122.5 c 128,-1,18
 14 -108 14 -108 14 -88 c 0,19,20
 14 -69 14 -69 27.5 -55.5 c 128,-1,21
 41 -42 41 -42 60 -42 c 0,22,23
 86 -42 86 -42 99 -60 c 1,24,25
 107 -33 107 -33 111 -2.5 c 128,-1,26
 115 28 115 28 122 65 c 0,27,28
 129 101 129 101 135 135 c 0,29,30
 140 164 140 164 145.5 195 c 128,-1,31
 151 226 151 226 155 246 c 1,32,-1
 84 246 l 1,33,-1
 90 305 l 1,34,-1
 167 305 l 1,35,-1
 167 306 l 1,36,37
 171 319 171 319 176.5 338 c 128,-1,38
 182 357 182 357 188.5 377 c 128,-1,39
 195 397 195 397 201.5 415 c 128,-1,40
 208 433 208 433 214 445 c 0,41,42
 230 477 230 477 247 487 c 128,-1,43
 264 497 264 497 284 497 c 256,44,45
 304 497 304 497 317.5 483 c 128,-1,46
 331 469 331 469 331 450 c 256,47,48
 331 431 331 431 317.5 417 c 128,-1,49
 304 403 304 403 284 403 c 0,50,51
 267 403 267 403 257 412 c 1,52,53
 255 404 255 404 253 398 c 0,0,1
EndSplineSet
EndChar
StartChar: circumflex
Encoding: 710 710 203
Width: 321
Flags: W
Fore
185 625 m 1,0,-1
 268 526 l 1,1,-1
 206 526 l 1,2,-1
 157 580 l 1,3,-1
 108 526 l 1,4,-1
 43 526 l 1,5,-1
 129 625 l 1,6,-1
 185 625 l 1,0,-1
EndSplineSet
EndChar
StartChar: caron
Encoding: 711 711 204
Width: 321
Flags: W
Fore
135 512 m 1,0,-1
 53 611 l 1,1,-1
 112 611 l 1,2,-1
 163 550 l 1,3,-1
 214 611 l 1,4,-1
 276 611 l 1,5,-1
 191 512 l 1,6,-1
 135 512 l 1,0,-1
EndSplineSet
EndChar
StartChar: breve
Encoding: 728 728 205
Width: 300
Flags: W
Fore
152 425 m 0,0,1
 127 425 127 425 104.5 434 c 128,-1,2
 82 443 82 443 66 460.5 c 128,-1,3
 50 478 50 478 45 498 c 128,-1,4
 40 518 40 518 41 540 c 1,5,-1
 93 540 l 1,6,7
 91 507 91 507 106.5 491 c 128,-1,8
 122 475 122 475 150 475 c 0,9,10
 176 475 176 475 192 490 c 128,-1,11
 208 505 208 505 207 540 c 1,12,-1
 259 540 l 1,13,14
 260 518 260 518 255 498 c 128,-1,15
 250 478 250 478 234 460.5 c 128,-1,16
 218 443 218 443 195.5 434 c 128,-1,17
 173 425 173 425 152 425 c 0,0,1
EndSplineSet
EndChar
StartChar: dotaccent
Encoding: 729 729 206
Width: 186
Flags: W
Fore
43 469 m 256,0,1
 43 489 43 489 58 503.5 c 128,-1,2
 73 518 73 518 94 518 c 256,3,4
 115 518 115 518 130 503.5 c 128,-1,5
 145 489 145 489 145 469 c 256,6,7
 145 449 145 449 130 434.5 c 128,-1,8
 115 420 115 420 94 420 c 256,9,10
 73 420 73 420 58 434.5 c 128,-1,11
 43 449 43 449 43 469 c 256,0,1
EndSplineSet
EndChar
StartChar: ring
Encoding: 730 730 207
Width: 278
Flags: W
Fore
74 470 m 256,0,1
 74 497 74 497 93 516 c 128,-1,2
 112 535 112 535 139 535 c 256,3,4
 166 535 166 535 185 516 c 128,-1,5
 204 497 204 497 204 470 c 256,6,7
 204 443 204 443 185 424 c 128,-1,8
 166 405 166 405 139 405 c 256,9,10
 112 405 112 405 93 424 c 128,-1,11
 74 443 74 443 74 470 c 256,0,1
111 470 m 256,12,13
 111 459 111 459 119.5 450.5 c 128,-1,14
 128 442 128 442 139 442 c 256,15,16
 150 442 150 442 158.5 450.5 c 128,-1,17
 167 459 167 459 167 470 c 256,18,19
 167 481 167 481 158.5 489.5 c 128,-1,20
 150 498 150 498 139 498 c 256,21,22
 128 498 128 498 119.5 489.5 c 128,-1,23
 111 481 111 481 111 470 c 256,12,13
EndSplineSet
EndChar
StartChar: tilde
Encoding: 732 732 209
Width: 295
Flags: W
Fore
19 405 m 1,0,1
 21 422 21 422 28 440.5 c 128,-1,2
 35 459 35 459 50 473 c 0,3,4
 64 486 64 486 87.5 489 c 128,-1,5
 111 492 111 492 142 475 c 0,6,7
 167 462 167 462 183.5 457.5 c 128,-1,8
 200 453 200 453 210 455 c 128,-1,9
 220 457 220 457 224 464 c 128,-1,10
 228 471 228 471 228 482 c 1,11,-1
 277 482 l 1,12,13
 278 463 278 463 272.5 444 c 128,-1,14
 267 425 267 425 254 412.5 c 128,-1,15
 241 400 241 400 219.5 397.5 c 128,-1,16
 198 395 198 395 168 408 c 2,17,-1
 132 424 l 2,18,19
 115 432 115 432 104.5 432 c 128,-1,20
 94 432 94 432 87.5 428 c 128,-1,21
 81 424 81 424 78.5 417.5 c 128,-1,22
 76 411 76 411 75 405 c 1,23,-1
 19 405 l 1,0,1
EndSplineSet
EndChar
StartChar: uni0E01
Encoding: 3585 3585 212
Width: 517
Flags: W
Fore
468 29 m 2,0,1
 468 14 468 14 457.5 7 c 128,-1,2
 447 0 447 0 432 0 c 256,3,4
 417 0 417 0 406.5 7 c 128,-1,5
 396 14 396 14 396 29 c 2,6,-1
 396 242 l 2,7,8
 396 300 396 300 360 323 c 128,-1,9
 324 346 324 346 263 346 c 0,10,11
 228 346 228 346 202.5 337 c 128,-1,12
 177 328 177 328 159 315.5 c 128,-1,13
 141 303 141 303 131 289 c 128,-1,14
 121 275 121 275 118 265 c 1,15,16
 125 261 125 261 135 256.5 c 128,-1,17
 145 252 145 252 153 248 c 1,18,19
 159 252 159 252 167.5 260.5 c 128,-1,20
 176 269 176 269 183 273 c 0,21,22
 197 281 197 281 205 274.5 c 128,-1,23
 213 268 213 268 221 259 c 0,24,25
 223 256 223 256 225.5 251.5 c 128,-1,26
 228 247 228 247 229.5 242 c 128,-1,27
 231 237 231 237 229 232 c 128,-1,28
 227 227 227 227 220 224 c 0,29,30
 203 216 203 216 195 196 c 128,-1,31
 187 176 187 176 187 162 c 2,32,-1
 187 31 l 2,33,34
 188 15 188 15 177.5 8 c 128,-1,35
 167 1 167 1 152 0 c 256,36,37
 137 -1 137 -1 126 6 c 128,-1,38
 115 13 115 13 115 28 c 0,39,40
 113 60 113 60 112.5 84.5 c 128,-1,41
 112 109 112 109 113 126 c 0,42,43
 113 146 113 146 115 162 c 0,44,45
 115 168 115 168 117 181 c 128,-1,46
 119 194 119 194 123 200 c 1,47,48
 100 211 100 211 87 217 c 128,-1,49
 74 223 74 223 68 226 c 0,50,51
 61 230 61 230 59 231 c 0,52,53
 50 236 50 236 49.5 242 c 128,-1,54
 49 248 49 248 51 259 c 0,55,56
 55 276 55 276 68.5 301 c 128,-1,57
 82 326 82 326 108 349 c 128,-1,58
 134 372 134 372 173.5 388.5 c 128,-1,59
 213 405 213 405 269 405 c 0,60,61
 373 405 373 405 420.5 359 c 128,-1,62
 468 313 468 313 468 233 c 2,63,-1
 468 29 l 2,0,1
EndSplineSet
EndChar
StartChar: uni0E02
Encoding: 3586 3586 213
Width: 461
Flags: W
Fore
412 123 m 2,0,1
 410 83 410 83 397.5 58 c 128,-1,2
 385 33 385 33 364 19 c 128,-1,3
 343 5 343 5 315.5 0 c 128,-1,4
 288 -5 288 -5 257 -5 c 0,5,6
 230 -5 230 -5 205.5 1.5 c 128,-1,7
 181 8 181 8 161.5 21.5 c 128,-1,8
 142 35 142 35 129.5 56.5 c 128,-1,9
 117 78 117 78 116 108 c 0,10,11
 114 142 114 142 130 171 c 128,-1,12
 146 200 146 200 164 215 c 0,13,14
 172 222 172 222 187.5 234.5 c 128,-1,15
 203 247 203 247 214.5 264 c 128,-1,16
 226 281 226 281 226 300.5 c 128,-1,17
 226 320 226 320 203 341 c 1,18,19
 209 304 209 304 192.5 281.5 c 128,-1,20
 176 259 176 259 150 248 c 0,21,22
 132 242 132 242 114.5 242 c 128,-1,23
 97 242 97 242 81.5 248 c 128,-1,24
 66 254 66 254 54 265.5 c 128,-1,25
 42 277 42 277 36 293 c 0,26,27
 24 325 24 325 40 356.5 c 128,-1,28
 56 388 56 388 91 402 c 1,29,30
 87 400 87 400 97 403.5 c 128,-1,31
 107 407 107 407 126 409.5 c 128,-1,32
 145 412 145 412 170 410 c 128,-1,33
 195 408 195 408 221 395 c 0,34,35
 250 381 250 381 266 354.5 c 128,-1,36
 282 328 282 328 282 300 c 0,37,38
 282 264 282 264 265 239.5 c 128,-1,39
 248 215 248 215 227 195 c 0,40,41
 204 173 204 173 196 149.5 c 128,-1,42
 188 126 188 126 193 106.5 c 128,-1,43
 198 87 198 87 214.5 74.5 c 128,-1,44
 231 62 231 62 257 62 c 0,45,46
 305 62 305 62 322 77.5 c 128,-1,47
 339 93 339 93 339 123 c 2,48,-1
 339 379 l 2,49,50
 339 394 339 394 349.5 401 c 128,-1,51
 360 408 360 408 375 408 c 256,52,53
 390 408 390 408 401 401 c 128,-1,54
 412 394 412 394 412 379 c 2,55,-1
 412 123 l 2,0,1
156 339 m 256,56,57
 151 351 151 351 137.5 355.5 c 128,-1,58
 124 360 124 360 109 354 c 0,59,60
 94 349 94 349 87 336.5 c 128,-1,61
 80 324 80 324 85 311 c 0,62,63
 90 299 90 299 103.5 294.5 c 128,-1,64
 117 290 117 290 132 296 c 0,65,66
 146 301 146 301 153.5 314 c 128,-1,67
 161 327 161 327 156 339 c 256,56,57
EndSplineSet
EndChar
StartChar: uni0E03
Encoding: 3587 3587 214
Width: 502
Flags: W
Fore
453 129 m 2,0,1
 453 71 453 71 416 33 c 128,-1,2
 379 -5 379 -5 302 -5 c 0,3,4
 267 -5 267 -5 240.5 4.5 c 128,-1,5
 214 14 214 14 196 30 c 128,-1,6
 178 46 178 46 168.5 68 c 128,-1,7
 159 90 159 90 158 115 c 0,8,9
 157 139 157 139 165.5 159.5 c 128,-1,10
 174 180 174 180 186.5 197 c 128,-1,11
 199 214 199 214 214 227.5 c 128,-1,12
 229 241 229 241 242 250 c 0,13,14
 280 279 280 279 289 303 c 128,-1,15
 298 327 298 327 283 341 c 0,16,17
 280 343 280 343 274 344.5 c 128,-1,18
 268 346 268 346 261.5 345 c 128,-1,19
 255 344 255 344 249.5 339 c 128,-1,20
 244 334 244 334 244 324 c 0,21,22
 243 316 243 316 234 311 c 128,-1,23
 225 306 225 306 215 306 c 0,24,25
 192 306 192 306 187 326 c 0,26,27
 185 338 185 338 172.5 344 c 128,-1,28
 160 350 160 350 145.5 350 c 128,-1,29
 131 350 131 350 118 343.5 c 128,-1,30
 105 337 105 337 102 323 c 1,31,32
 116 329 116 329 132 327 c 128,-1,33
 148 325 148 325 161.5 317.5 c 128,-1,34
 175 310 175 310 184 297 c 128,-1,35
 193 284 193 284 193 266 c 0,36,37
 193 240 193 240 172 222.5 c 128,-1,38
 151 205 151 205 121 205 c 0,39,40
 111 205 111 205 98 207 c 128,-1,41
 85 209 85 209 72.5 215.5 c 128,-1,42
 60 222 60 222 49.5 233.5 c 128,-1,43
 39 245 39 245 35 264 c 0,44,45
 29 290 29 290 34 314 c 128,-1,46
 39 338 39 338 52 357 c 128,-1,47
 65 376 65 376 85 388.5 c 128,-1,48
 105 401 105 401 128 405 c 0,49,50
 152 410 152 410 175.5 404 c 128,-1,51
 199 398 199 398 210 382 c 1,52,53
 214 387.5 l 130,-1,54
 218 393 218 393 227.5 398.5 c 128,-1,55
 237 404 237 404 252.5 406.5 c 128,-1,56
 268 409 268 409 290 403 c 0,57,58
 333 389 333 389 346 352.5 c 128,-1,59
 359 316 359 316 345 274 c 0,60,61
 338 252 338 252 321.5 235 c 128,-1,62
 305 218 305 218 287.5 203 c 128,-1,63
 270 188 270 188 255 172.5 c 128,-1,64
 240 157 240 157 236 139 c 0,65,66
 227 107 227 107 243.5 84.5 c 128,-1,67
 260 62 260 62 304 63 c 0,68,69
 331 63 331 63 346.5 70.5 c 128,-1,70
 362 78 362 78 369.5 88 c 128,-1,71
 377 98 377 98 378.5 109.5 c 128,-1,72
 380 121 380 121 380 129 c 2,73,-1
 380 376 l 2,74,75
 380 391 380 391 390.5 398.5 c 128,-1,76
 401 406 401 406 416 406 c 0,77,78
 432 406 432 406 442.5 398.5 c 128,-1,79
 453 391 453 391 453 376 c 2,80,-1
 453 129 l 2,0,1
156 267 m 256,81,82
 156 278 156 278 147 285 c 128,-1,83
 138 292 138 292 123 292 c 256,84,85
 108 292 108 292 99 285 c 128,-1,86
 90 278 90 278 90 267 c 0,87,88
 90 257 90 257 99 250 c 128,-1,89
 108 243 108 243 123 243 c 0,90,91
 137 243 137 243 146.5 249.5 c 128,-1,92
 156 256 156 256 156 267 c 256,81,82
EndSplineSet
EndChar
StartChar: uni0E04
Encoding: 3588 3588 215
Width: 494
Flags: W
Fore
445 28 m 2,0,1
 445 13 445 13 434.5 6 c 128,-1,2
 424 -1 424 -1 409 -1 c 256,3,4
 394 -1 394 -1 383.5 6 c 128,-1,5
 373 13 373 13 373 28 c 2,6,-1
 373 219 l 2,7,8
 373 253 373 253 365 276 c 128,-1,9
 357 299 357 299 341.5 312.5 c 128,-1,10
 326 326 326 326 304 332 c 128,-1,11
 282 338 282 338 254 338 c 256,12,13
 226 338 226 338 202 332 c 128,-1,14
 178 326 178 326 160 312 c 128,-1,15
 142 298 142 298 132 275 c 128,-1,16
 122 252 122 252 122 218 c 2,17,-1
 122 204 l 1,18,19
 131 214 131 214 144 227.5 c 128,-1,20
 157 241 157 241 174 253 c 128,-1,21
 191 265 191 265 211 273.5 c 128,-1,22
 231 282 231 282 254 282 c 0,23,24
 290 282 290 282 315 259 c 128,-1,25
 340 236 340 236 340 204 c 256,26,27
 340 172 340 172 315 149 c 128,-1,28
 290 126 290 126 254 126 c 0,29,30
 228 126 228 126 208.5 139 c 128,-1,31
 189 152 189 152 178 171 c 1,32,33
 153 149 153 149 137.5 117 c 128,-1,34
 122 85 122 85 122 47 c 2,35,-1
 122 28 l 2,36,37
 122 13 122 13 111 6 c 128,-1,38
 100 -1 100 -1 85 -1 c 256,39,40
 70 -1 70 -1 59.5 6 c 128,-1,41
 49 13 49 13 49 28 c 2,42,-1
 49 218 l 2,43,44
 49 301 49 301 98 350 c 0,45,46
 152 404 152 404 254 404 c 0,47,48
 346 404 346 404 398 352 c 0,49,50
 415 335 415 335 430 302.5 c 128,-1,51
 445 270 445 270 445 218 c 2,52,-1
 445 28 l 2,0,1
289 204 m 256,53,54
 289 216 289 216 278.5 224.5 c 128,-1,55
 268 233 268 233 254 233 c 0,56,57
 239 233 239 233 229 224.5 c 128,-1,58
 219 216 219 216 219 204 c 256,59,60
 219 192 219 192 229 183.5 c 128,-1,61
 239 175 239 175 254 175 c 0,62,63
 268 175 268 175 278.5 183.5 c 128,-1,64
 289 192 289 192 289 204 c 256,53,54
EndSplineSet
EndChar
StartChar: uni0E05
Encoding: 3589 3589 216
Width: 495
Flags: W
Fore
446 28 m 2,0,1
 446 13 446 13 435.5 6 c 128,-1,2
 425 -1 425 -1 410 -1 c 256,3,4
 395 -1 395 -1 384.5 6 c 128,-1,5
 374 13 374 13 374 28 c 2,6,-1
 374 324 l 2,7,8
 374 328 374 328 370.5 331 c 128,-1,9
 367 334 367 334 356 338 c 1,10,11
 353 334 353 334 345 326.5 c 128,-1,12
 337 319 337 319 325 311 c 128,-1,13
 313 303 313 303 297.5 297 c 128,-1,14
 282 291 282 291 263 291 c 0,15,16
 245 291 245 291 229 296.5 c 128,-1,17
 213 302 213 302 201 309.5 c 128,-1,18
 189 317 189 317 181 324.5 c 128,-1,19
 173 332 173 332 170 337 c 1,20,21
 141 333 141 333 131.5 313.5 c 128,-1,22
 122 294 122 294 122 264 c 2,23,-1
 122 197 l 1,24,25
 144 226 144 226 167 241.5 c 128,-1,26
 190 257 190 257 210 265 c 0,27,28
 233 274 233 274 255 275 c 0,29,30
 268 275 268 275 283 270.5 c 128,-1,31
 298 266 298 266 311 256 c 128,-1,32
 324 246 324 246 332 231.5 c 128,-1,33
 340 217 340 217 340 197 c 0,34,35
 340 165 340 165 315 142 c 128,-1,36
 290 119 290 119 254 119 c 0,37,38
 229 119 229 119 208.5 130.5 c 128,-1,39
 188 142 188 142 177 161 c 1,40,41
 169 157 169 157 159.5 145.5 c 128,-1,42
 150 134 150 134 142 117.5 c 128,-1,43
 134 101 134 101 128 82 c 128,-1,44
 122 63 122 63 122 45 c 2,45,-1
 122 28 l 2,46,47
 122 13 122 13 111 6 c 128,-1,48
 100 -1 100 -1 85 -1 c 256,49,50
 70 -1 70 -1 59.5 6 c 128,-1,51
 49 13 49 13 49 28 c 2,52,-1
 49 264 l 2,53,54
 49 326 49 326 81 362.5 c 128,-1,55
 113 399 113 399 177 404 c 0,56,57
 194 405 194 405 201 397.5 c 128,-1,58
 208 390 208 390 216 379 c 0,59,60
 240 352 240 352 262.5 352.5 c 128,-1,61
 285 353 285 353 310 378 c 1,62,63
 318 389 318 389 327 397.5 c 128,-1,64
 336 406 336 406 358 401 c 0,65,66
 366 399 366 399 381 395 c 128,-1,67
 396 391 396 391 410.5 381.5 c 128,-1,68
 425 372 425 372 435.5 356 c 128,-1,69
 446 340 446 340 446 315 c 2,70,-1
 446 28 l 2,0,1
290 197 m 0,71,72
 290 209 290 209 279.5 218 c 128,-1,73
 269 227 269 227 254 227 c 256,74,75
 239 227 239 227 228.5 218 c 128,-1,76
 218 209 218 209 218 197 c 0,77,78
 218 184 218 184 228.5 175.5 c 128,-1,79
 239 167 239 167 254 167 c 256,80,81
 269 167 269 167 279.5 175.5 c 128,-1,82
 290 184 290 184 290 197 c 0,71,72
EndSplineSet
EndChar
StartChar: uni0E06
Encoding: 3590 3590 217
Width: 560
Flags: W
Fore
511 109 m 2,0,1
 511 84 511 84 504 61 c 128,-1,2
 497 38 497 38 482.5 21.5 c 128,-1,3
 468 5 468 5 445.5 -3 c 128,-1,4
 423 -11 423 -11 392 -6 c 0,5,6
 366 -2 366 -2 334 18 c 128,-1,7
 302 38 302 38 267 71 c 1,8,9
 264 56 264 56 257 42 c 128,-1,10
 250 28 250 28 238 17 c 128,-1,11
 226 6 226 6 209 0 c 128,-1,12
 192 -6 192 -6 171 -5 c 0,13,14
 143 -3 143 -3 121.5 14 c 128,-1,15
 100 31 100 31 90 59 c 0,16,17
 79 91 79 91 87 123 c 128,-1,18
 95 155 95 155 120 176 c 0,19,20
 137 190 137 190 158.5 195 c 128,-1,21
 180 200 180 200 202 194 c 1,22,23
 204 220 204 220 212 237.5 c 128,-1,24
 220 255 220 255 238 269 c 0,25,26
 276 298 276 298 283 315.5 c 128,-1,27
 290 333 290 333 275 346 c 0,28,29
 272 348 272 348 266.5 349.5 c 128,-1,30
 261 351 261 351 256 349 c 128,-1,31
 251 347 251 347 247 340.5 c 128,-1,32
 243 334 243 334 244 322 c 0,33,34
 244 315 244 315 234.5 309.5 c 128,-1,35
 225 304 225 304 215 304 c 0,36,37
 192 304 192 304 187 325 c 0,38,39
 185 336 185 336 171.5 345.5 c 128,-1,40
 158 355 158 355 143 353 c 0,41,42
 129 351 129 351 121.5 343.5 c 128,-1,43
 114 336 114 336 113 329 c 1,44,45
 127 331 127 331 142.5 328.5 c 128,-1,46
 158 326 158 326 170.5 318.5 c 128,-1,47
 183 311 183 311 191 298.5 c 128,-1,48
 199 286 199 286 199 268 c 0,49,50
 199 242 199 242 178 224 c 128,-1,51
 157 206 157 206 127 206 c 0,52,53
 117 206 117 206 105 209 c 128,-1,54
 93 212 93 212 81.5 218.5 c 128,-1,55
 70 225 70 225 60 235.5 c 128,-1,56
 50 246 50 246 44 261 c 0,57,58
 35 286 35 286 38 311 c 128,-1,59
 41 336 41 336 53 356 c 128,-1,60
 65 376 65 376 84.5 389.5 c 128,-1,61
 104 403 104 403 127 407 c 0,62,63
 152 412 152 412 175.5 404.5 c 128,-1,64
 199 397 199 397 210 381 c 1,65,66
 210 380 210 380 214 386 c 128,-1,67
 218 392 218 392 227 398.5 c 128,-1,68
 236 405 236 405 251.5 408 c 128,-1,69
 267 411 267 411 289 405 c 0,70,71
 310 398 310 398 324.5 384 c 128,-1,72
 339 370 339 370 345.5 352 c 128,-1,73
 352 334 352 334 351 315 c 128,-1,74
 350 296 350 296 341 278 c 0,75,76
 334 265 334 265 322 254 c 128,-1,77
 310 243 310 243 298.5 232.5 c 128,-1,78
 287 222 287 222 278.5 210 c 128,-1,79
 270 198 270 198 270 182 c 2,80,-1
 270 157 l 1,81,82
 278 151 278 151 287 143.5 c 128,-1,83
 296 136 296 136 307 127 c 0,84,85
 316 119 316 119 328.5 108.5 c 128,-1,86
 341 98 341 98 353.5 88.5 c 128,-1,87
 366 79 366 79 377.5 72 c 128,-1,88
 389 65 389 65 395 64 c 0,89,90
 398 64 398 64 405 62.5 c 128,-1,91
 412 61 412 61 419.5 64 c 128,-1,92
 427 67 427 67 433 77 c 128,-1,93
 439 87 439 87 439 109 c 2,94,-1
 439 375 l 2,95,96
 439 390 439 390 449.5 397 c 128,-1,97
 460 404 460 404 475 404 c 256,98,99
 490 404 490 404 500.5 397 c 128,-1,100
 511 390 511 390 511 375 c 2,101,-1
 511 109 l 2,0,1
161 268 m 256,102,103
 161 279 161 279 152 286.5 c 128,-1,104
 143 294 143 294 127 294 c 256,105,106
 111 294 111 294 102 286.5 c 128,-1,107
 93 279 93 279 93 268 c 256,108,109
 93 257 93 257 102 250 c 128,-1,110
 111 243 111 243 127 243 c 0,111,112
 142 243 142 243 151.5 250 c 128,-1,113
 161 257 161 257 161 268 c 256,102,103
208 94 m 0,114,115
 208 112 208 112 202 124 c 128,-1,116
 196 136 196 136 179 136 c 0,117,118
 168 136 168 136 157.5 127 c 128,-1,119
 147 118 147 118 147 93 c 0,120,121
 147 82 147 82 154 70 c 128,-1,122
 161 58 161 58 178 58 c 256,123,124
 195 58 195 58 200.5 67.5 c 128,-1,125
 206 77 206 77 208 94 c 0,114,115
EndSplineSet
EndChar
